<svg width="32" height="32" viewBox="0 0 32 32" fill="none" xmlns="http://www.w3.org/2000/svg">
<path d="M4.33325 12.0002C4.33325 7.76598 7.76574 4.3335 11.9999 4.3335H21.3504C21.9027 4.3335 22.3504 4.78121 22.3504 5.3335C22.3504 5.88578 21.9027 6.3335 21.3504 6.3335H11.9999C8.8703 6.3335 6.33325 8.87055 6.33325 12.0002V21.476C6.33325 22.0283 5.88554 22.476 5.33325 22.476C4.78097 22.476 4.33325 22.0283 4.33325 21.476V12.0002Z" fill="#8F00FF"/>
<path d="M24.5367 9.05784C20.2154 8.57488 15.7845 8.57488 11.4632 9.05784C10.2322 9.19543 9.24294 10.1642 9.09784 11.4048C8.58533 15.7868 8.58533 20.2135 9.09784 24.5955C9.24294 25.8361 10.2322 26.8049 11.4632 26.9425C15.7845 27.4254 20.2154 27.4254 24.5367 26.9425C25.7677 26.8049 26.7569 25.8361 26.902 24.5955C27.4145 20.2135 27.4145 15.7868 26.902 11.4048C26.7569 10.1642 25.7677 9.19543 24.5367 9.05784Z" fill="#8F00FF"/>
</svg>
