<svg width="14" height="21" viewBox="0 0 14 21" fill="none" xmlns="http://www.w3.org/2000/svg">
<path d="M7.06254 0.110031C6.77291 -0.0269137 6.48765 0.0688887 6.30414 0.270434C6.12588 0.466213 6.03673 0.765017 6.09923 1.06628C6.1979 1.54181 6.25 2.03654 6.25 2.54472C6.25 3.70494 5.97885 4.51754 5.5123 5.19118C5.03803 5.87597 4.35149 6.43347 3.48466 7.0625C3.47103 7.07239 3.45834 7.0837 3.44678 7.09627L3.34179 7.21037C1.48195 8.50616 0.25 10.7624 0.25 13.329C0.25 17.3493 3.27208 20.6084 7 20.6084C10.7279 20.6084 13.75 17.3493 13.75 13.329C13.75 12.1486 13.4893 11.0331 13.0264 10.0465C12.9887 9.96628 12.9164 9.91156 12.8336 9.90065C12.7508 9.88974 12.6684 9.92408 12.614 9.9922C12.5435 10.0804 12.4744 10.1674 12.4064 10.2531C11.5281 11.3598 10.8193 12.2529 9.36616 12.6518C9.30436 12.6688 9.26597 12.6562 9.23873 12.6378C9.20667 12.6162 9.1716 12.5731 9.14757 12.5042C9.09748 12.3606 9.11897 12.1775 9.22161 12.0575C9.99879 11.1489 10.5509 9.91535 10.7482 8.16062C11.1177 4.87367 9.73249 1.37244 7.06254 0.110031Z" fill="#8F00FF"/>
</svg>
