<svg width="25" height="24" viewBox="0 0 25 24" fill="none" xmlns="http://www.w3.org/2000/svg">
<path d="M3.05394 16.0607C2.9578 16.2506 2.99237 16.4805 3.1401 16.6337C3.28782 16.7868 3.51632 16.8297 3.70954 16.7406L6.20888 15.587C8.30948 14.6175 10.6018 14.174 12.8902 14.2783C12.9174 15.0132 12.9577 15.7477 13.0112 16.4815L13.0797 17.4204C13.1212 17.9901 13.7564 18.3085 14.2376 18.001C16.3266 16.6662 18.1427 14.9462 19.589 12.9328L20.0492 12.2922C20.1744 12.1179 20.1744 11.8831 20.0492 11.7088L19.589 11.0681C18.1427 9.05474 16.3266 7.33479 14.2376 5.99997C13.7564 5.69243 13.1212 6.01087 13.0797 6.58051L13.0112 7.51948C12.9653 8.14933 12.9291 8.77972 12.9025 9.41041H12.2595C8.67848 9.41041 5.40176 11.4241 3.78406 14.6188L3.05394 16.0607Z" fill="white"/>
</svg>
