<svg width="25" height="24" viewBox="0 0 25 24" fill="none" xmlns="http://www.w3.org/2000/svg">
<path d="M11.837 3.75C11.379 3.75001 10.9499 3.97406 10.6882 4.34991L6.45631 10.427C5.66164 11.5682 5.30745 12.9587 5.45934 14.341L5.78477 17.3024C5.92383 18.5679 6.9173 19.5703 8.18151 19.7207L10.2986 19.9725C11.9152 20.1648 13.5544 19.9981 15.0992 19.4843C16.1806 19.1246 17.0467 18.3039 17.464 17.2435L19.1726 12.9014C19.2552 12.6914 19.3123 12.4722 19.3427 12.2485C19.607 10.3014 17.8476 8.68822 15.9306 9.12017L12.0327 9.99848L13.1926 5.49935C13.421 4.61335 12.7519 3.74998 11.837 3.75Z" fill="white"/>
</svg>
