<svg width="24" height="24" viewBox="0 0 24 24" fill="none" xmlns="http://www.w3.org/2000/svg">
<path fill-rule="evenodd" clip-rule="evenodd" d="M21.0101 10.1714L21.0127 13.7943C20.9872 14.1394 20.9543 14.4842 20.9141 14.8283C20.8468 15.4037 20.379 15.8678 19.7916 15.9335C17.9519 16.1391 16.0481 16.1391 14.2083 15.9335C13.6209 15.8678 13.1531 15.4037 13.0858 14.8283C12.8661 12.9492 12.8661 11.051 13.0858 9.17201C13.1531 8.59661 13.6209 8.13246 14.2083 8.06681C16.0481 7.86119 17.9519 7.86119 19.7916 8.06681C20.379 8.13246 20.8468 8.59661 20.9141 9.17201C20.953 9.50462 20.985 9.83782 21.0101 10.1714ZM17 10.5001C16.1715 10.5001 15.5 11.1717 15.5 12.0001C15.5 12.8286 16.1715 13.5001 17 13.5001C17.8284 13.5001 18.5 12.8286 18.5 12.0001C18.5 11.1717 17.8284 10.5001 17 10.5001Z" fill="white"/>
<path d="M20.4036 6.03985C20.559 6.30911 20.2672 6.61063 19.9582 6.57609C18.0077 6.3581 15.9922 6.3581 14.0417 6.57609C12.7723 6.71796 11.7457 7.7175 11.596 8.99776C11.3627 10.9925 11.3627 13.0077 11.596 15.0025C11.7457 16.2828 12.7723 17.2823 14.0417 17.4242C15.9922 17.6422 18.0077 17.6422 19.9582 17.4242C20.2693 17.3894 20.5635 17.693 20.4065 17.9638C19.6279 19.3066 18.2398 20.2438 16.6268 20.4135L15.9749 20.4821C12.6641 20.8305 9.32462 20.8076 6.01887 20.4136L5.58692 20.3622C3.8048 20.1498 2.39275 18.7575 2.15538 16.9785C1.71448 13.6742 1.71448 10.326 2.15538 7.02179C2.39275 5.24282 3.8048 3.85046 5.58692 3.6381L6.01886 3.58663C9.32461 3.1927 12.6641 3.16973 15.9749 3.51813L16.6268 3.58673C18.2412 3.75661 19.6271 4.69522 20.4036 6.03985Z" fill="white"/>
</svg>
