<svg width="209" height="54" viewBox="0 0 209 54" fill="none" xmlns="http://www.w3.org/2000/svg">
<path d="M4.58052 25.255C4.6949 24.9447 5.1321 24.9447 5.24648 25.255L5.52811 26.0192C5.56407 26.1167 5.6407 26.1937 5.73788 26.2298L6.49897 26.5125C6.80809 26.6273 6.80808 27.0663 6.49897 27.1811L5.73788 27.4639C5.6407 27.5 5.56407 27.5769 5.52811 27.6745L5.24648 28.4386C5.1321 28.749 4.6949 28.749 4.58052 28.4386L4.29889 27.6745C4.26292 27.5769 4.1863 27.5 4.08912 27.4639L3.32803 27.1811C3.01891 27.0663 3.01891 26.6273 3.32803 26.5125L4.08912 26.2298C4.1863 26.1937 4.26292 26.1167 4.29889 26.0192L4.58052 25.255Z" fill="#370063"/>
<path d="M51.7356 34.1837C51.8826 33.7846 52.4447 33.7846 52.5918 34.1837L52.9539 35.1661C53.0001 35.2916 53.0987 35.3905 53.2236 35.4369L54.2022 35.8004C54.5996 35.9481 54.5996 36.5124 54.2022 36.6601L53.2236 37.0236C53.0987 37.07 53.0001 37.1689 52.9539 37.2944L52.5918 38.2768C52.4447 38.6758 51.8826 38.6758 51.7356 38.2768L51.3735 37.2944C51.3272 37.1689 51.2287 37.07 51.1038 37.0236L50.1252 36.6601C49.7278 36.5124 49.7278 35.9481 50.1252 35.8004L51.1038 35.4369C51.2287 35.3905 51.3272 35.2916 51.3735 35.1661L51.7356 34.1837Z" fill="#370063"/>
<path d="M35.5439 0.365761C35.7237 -0.121921 36.4107 -0.12192 36.5905 0.365762L37.033 1.56652C37.0895 1.71985 37.2099 1.84074 37.3627 1.89747L38.5587 2.3418C39.0444 2.52225 39.0444 3.21202 38.5587 3.39248L37.3627 3.83681C37.2099 3.89354 37.0895 4.01443 37.033 4.16775L36.5905 5.36852C36.4107 5.8562 35.7237 5.8562 35.5439 5.36852L35.1014 4.16775C35.0449 4.01443 34.9245 3.89354 34.7717 3.83681L33.5757 3.39248C33.09 3.21202 33.09 2.52225 33.5757 2.3418L34.7717 1.89747C34.9245 1.84074 35.0449 1.71985 35.1014 1.56652L35.5439 0.365761Z" fill="#370063"/>
<path fill-rule="evenodd" clip-rule="evenodd" d="M3.64869 52.4077C3.51813 52.91 3.77956 53.4312 4.26033 53.6273C4.74109 53.8233 5.29284 53.6336 5.55117 53.1835L5.5523 53.1816L5.56099 53.1667C5.56931 53.1526 5.58268 53.13 5.60113 53.0994C5.63804 53.0381 5.69527 52.9446 5.77305 52.8219C5.92862 52.5763 6.1663 52.2137 6.48792 51.7574C7.13134 50.8447 8.10957 49.5587 9.43716 48.0859C11.2401 46.0858 13.682 43.7467 16.7993 41.5293C16.1133 42.6479 15.4056 43.9694 14.7467 45.4977C14.5458 45.9636 14.7122 46.5063 15.1397 46.7798C15.5672 47.0534 16.1301 46.9773 16.4695 46.6001L16.4711 46.5983L16.4795 46.5891L16.5162 46.549C16.5494 46.513 16.5996 46.4587 16.6659 46.3885C16.7983 46.248 16.9942 46.0437 17.2436 45.7936C17.7431 45.2928 18.454 44.6115 19.2975 43.8909C20.2616 43.0673 21.3642 42.223 22.4985 41.5348C22.2784 42.0967 22.0406 42.7627 21.7876 43.5523C21.63 44.0441 21.8589 44.5767 22.3243 44.8011C22.7848 45.0232 23.3378 44.8763 23.6276 44.4572L23.6322 44.451C23.6415 44.4387 23.6624 44.412 23.6967 44.3719C23.7653 44.2919 23.888 44.1583 24.0804 43.9797C24.465 43.6225 25.1297 43.0842 26.1997 42.4342C28.3416 41.1331 32.1013 39.3886 38.4711 37.7563C45.2211 36.0264 48.4971 32.3457 50.0428 29.0118C50.8062 27.3653 51.1352 25.8316 51.2738 24.7072C51.3432 24.144 51.3654 23.6802 51.3697 23.3514C51.3719 23.187 51.3697 23.056 51.3667 22.9628C51.3657 22.9345 51.3648 22.9097 51.3638 22.8885C51.3655 22.8641 51.3673 22.8347 51.3693 22.8006C51.3749 22.6994 51.3809 22.5563 51.3833 22.3766C51.3882 22.0175 51.3789 21.5106 51.3238 20.9006C51.214 19.6848 50.9198 18.0355 50.1746 16.326C48.655 12.8399 45.3128 9.24481 38.307 8.45913C31.239 7.66647 25.245 11.365 20.8586 15.5189C16.4568 19.6873 13.5078 24.4667 12.4916 26.2044C12.2453 26.6255 12.3264 27.1612 12.6862 27.4907C13.046 27.8202 13.5872 27.8542 13.9855 27.5724L13.9856 27.5723L13.9877 27.5709L13.9975 27.564L14.0393 27.5348C14.0766 27.5089 14.1325 27.4704 14.2043 27.4216C14.348 27.3239 14.5552 27.1854 14.8058 27.0244C15.0918 26.8405 15.4303 26.6299 15.7927 26.4181C15.2909 26.8929 14.7461 27.4238 14.177 28.0026C11.7061 30.5154 8.72299 33.9833 6.83321 37.7026C6.60912 38.1436 6.72833 38.6814 7.11783 38.9866C7.50731 39.2918 8.05835 39.2793 8.43354 38.9567L8.43357 38.9567L8.43363 38.9567L8.43402 38.9563L8.43641 38.9543L8.44713 38.9451L8.49158 38.9073C8.53119 38.8737 8.59039 38.8237 8.66716 38.7595C8.82073 38.6312 9.04434 38.4464 9.32179 38.2228C9.8709 37.7804 10.6271 37.1891 11.466 36.5846C11.2363 36.8829 11.0014 37.1956 10.7629 37.5225C8.24574 40.9726 5.30889 46.0217 3.64869 52.4077Z" fill="#370063"/>
<path d="M18.4979 19.419C18.4979 19.419 17.9996 20.0485 17.3061 20.9689C16.5913 21.9175 16.1161 22.6053 15.895 23.1687C15.8265 23.3433 15.7922 23.4306 16.2198 23.8912C16.6473 24.3518 16.7305 24.3261 16.897 24.2747C17.2763 24.1575 17.7922 23.8928 18.9323 23.4584C19.5985 23.2501 20.276 22.9683 20.6255 22.9228C20.975 22.8773 21.2296 22.7719 21.357 23.0285C21.4348 23.1852 21.2815 23.3572 20.975 23.7012L16.8988 28.2752C15.5989 29.7339 14.949 30.4632 15.1935 30.8004C15.438 31.1377 16.3384 30.746 18.1392 29.9626C18.8127 29.6696 19.4855 29.3832 20.0988 29.1328C20.7206 28.8789 21.0314 28.7519 21.1521 28.9069C21.2728 29.0619 21.0713 29.3343 20.6685 29.8792C19.812 31.0377 18.472 32.8589 16.9084 35.0145C15.5697 36.8602 14.9003 37.783 15.1799 38.0943C15.4595 38.4055 16.4637 37.8319 18.4721 36.6846C20.129 35.7381 22.0036 34.759 23.7796 34.0356C24.3678 33.7961 24.6619 33.6763 24.7831 33.8245C24.9043 33.9727 24.7244 34.2423 24.3647 34.7816C23.9847 35.3512 23.5301 36.0481 23.104 36.7409C22.5774 37.597 22.3141 38.0251 22.5771 38.3131C22.84 38.6012 23.3055 38.3712 24.2366 37.9111L26.6728 36.7073C27.1657 36.4638 27.4121 36.3421 27.5427 36.4593C27.6734 36.5765 27.5786 36.8344 27.3891 37.3501L27.1748 37.9331C26.8374 38.8512 26.6687 39.3102 26.8966 39.5439C27.1245 39.7776 27.5925 39.6195 28.5284 39.3033C30.4275 38.6616 33.3308 37.7476 36.1327 37.1298C40.8575 36.088 43.2371 34.4958 43.2371 34.4958C43.2371 34.4958 45.6018 33.201 47.6426 30.8704C49.4566 28.7987 50.5733 25.2266 50.4624 23.2538C50.3515 21.281 50.8617 16.8256 46.1591 12.3923C41.4565 7.95912 32.384 9.84324 32.384 9.84324C32.384 9.84324 25.5075 10.9959 18.4979 19.419Z" fill="#8F00FF"/>
<path d="M38.8593 21.8068C39.4318 21.8068 39.8959 21.2271 39.8959 20.512C39.8959 19.7969 39.4318 19.2172 38.8593 19.2172C38.2868 19.2172 37.8228 19.7969 37.8228 20.512C37.8228 21.2271 38.2868 21.8068 38.8593 21.8068Z" fill="#370063"/>
<path d="M45.0786 21.8068C45.6511 21.8068 46.1152 21.2271 46.1152 20.512C46.1152 19.7969 45.6511 19.2172 45.0786 19.2172C44.5061 19.2172 44.042 19.7969 44.042 20.512C44.042 21.2271 44.5061 21.8068 45.0786 21.8068Z" fill="#370063"/>
<path fill-rule="evenodd" clip-rule="evenodd" d="M44.8881 24.6855C45.1595 25.0202 45.108 25.5115 44.7729 25.7828C43.3184 26.9603 41.8927 27.0269 40.8273 26.7587C40.3099 26.6285 39.8901 26.4237 39.5995 26.2522C39.1144 25.9659 38.5833 25.3267 39.0238 24.8127C39.3031 24.4867 39.7932 24.4476 40.1207 24.7242L40.1279 24.73C40.1367 24.737 40.1529 24.7497 40.1762 24.7666C40.2227 24.8006 40.2964 24.8513 40.3935 24.9086C40.5895 25.0243 40.8703 25.1605 41.2086 25.2457C41.8548 25.4083 42.7614 25.4031 43.79 24.5704C44.125 24.2991 44.6167 24.3507 44.8881 24.6855Z" fill="#370063"/>
<path d="M80.3551 28.3593L77.8045 23.0467L75.315 28.3593H80.3551ZM83.3955 34.7095L82.212 32.2192H73.5398L72.3767 34.7095H66.5L74.0091 19.2698H81.8039L89.7415 34.7095H83.3955Z" fill="#370063"/>
<path d="M100.153 35H98.2957C92.1197 35 89.0318 33.1738 89.0318 29.5214V29.3139H95.3982C95.507 30.7665 96.7721 31.4929 99.1935 31.4929H99.3772C100.153 31.4929 100.799 31.4583 101.316 31.3891C101.833 31.3061 102.213 31.1954 102.458 31.0571C102.703 30.9049 102.866 30.7527 102.948 30.6005C103.043 30.4345 103.091 30.2477 103.091 30.0402V30.0195C103.091 29.7289 103.016 29.5006 102.866 29.3346C102.73 29.1548 102.39 29.0026 101.846 28.8781C101.316 28.7397 100.54 28.6567 99.52 28.6291L96.7041 28.546C91.7388 28.4077 89.2562 26.8582 89.2562 23.8975V23.7108C89.2562 23.1712 89.331 22.687 89.4807 22.2581C89.6303 21.8154 89.9024 21.3865 90.2969 20.9715C90.6914 20.5564 91.2083 20.2105 91.8477 19.9339C92.487 19.6572 93.3236 19.4358 94.3575 19.2698C95.405 19.0899 96.6157 19 97.9896 19H99.8057C105.954 19 109.029 20.6256 109.029 23.8768V24.0428H102.724C102.601 22.9498 101.377 22.4034 99.0507 22.4034H98.8466C97.8944 22.4034 97.1598 22.4656 96.6429 22.5901C96.126 22.7008 95.8063 22.8323 95.6838 22.9844C95.5614 23.1228 95.5002 23.3096 95.5002 23.5447V23.5655C95.5002 23.8007 95.5682 23.9944 95.7042 24.1466C95.8539 24.2987 96.1804 24.4371 96.6837 24.5616C97.187 24.6723 97.8944 24.7345 98.8058 24.7484L101.54 24.8106C104.41 24.8936 106.465 25.3018 107.702 26.035C108.94 26.7544 109.559 27.8958 109.559 29.4591V29.7497C109.559 30.3169 109.491 30.8357 109.355 31.3061C109.219 31.7626 108.947 32.233 108.539 32.7172C108.131 33.1876 107.587 33.5888 106.907 33.9209C106.24 34.2391 105.329 34.5019 104.172 34.7095C103.03 34.9032 101.69 35 100.153 35Z" fill="#370063"/>
<path d="M116.47 34.7095V23.4825H109.92V19.2698H128.816V23.4825H122.266V34.7095H116.47Z" fill="#370063"/>
<path d="M136.112 23.0259V25.6822H142.764C143.934 25.6822 144.519 25.2395 144.519 24.3541V24.3333C144.519 23.4617 143.934 23.0259 142.764 23.0259H136.112ZM136.112 29.4176V34.7095H130.317V19.2698H144.111C148.368 19.2698 150.497 20.591 150.497 23.2335V23.4617C150.497 23.9875 150.395 24.4648 150.191 24.8936C149.987 25.3225 149.715 25.6684 149.375 25.9313C149.049 26.1941 148.722 26.4016 148.396 26.5538C148.083 26.706 147.763 26.8236 147.437 26.9066C148.402 27.128 149.164 27.5569 149.722 28.1933C150.28 28.8158 150.559 29.6113 150.559 30.5798V32.8625C150.559 33.6649 150.654 34.246 150.844 34.6057V34.7095H144.927C144.804 34.5711 144.743 34.3013 144.743 33.9001V32.0947C144.743 31.1816 144.505 30.5106 144.029 30.0817C143.566 29.639 142.777 29.4176 141.662 29.4176H136.112Z" fill="#370063"/>
<path d="M164.905 28.3593L162.354 23.0467L159.865 28.3593H164.905ZM167.945 34.7095L166.762 32.2192H158.09L156.927 34.7095H151.05L158.559 19.2698H166.354L174.291 34.7095H167.945Z" fill="#370063"/>
<path d="M174.953 19.2698H180.748V30.2892H191.277V34.7095H174.953V19.2698Z" fill="#370063"/>
<path d="M194.584 34.7095V28.8988L186.279 19.2698H193.217L197.644 24.6031L202.154 19.2698H208.5L200.379 28.9403V34.7095H194.584Z" fill="#370063"/>
</svg>
