<svg width="80" height="80" viewBox="0 0 80 80" fill="none" xmlns="http://www.w3.org/2000/svg">
<path d="M6.04519 37.4149C6.21464 36.9551 6.86235 36.9551 7.03181 37.4149L7.44904 38.5469C7.50231 38.6915 7.61583 38.8054 7.75981 38.8589L8.88735 39.2778C9.34529 39.448 9.34529 40.0982 8.88735 40.2684L7.75981 40.6873C7.61583 40.7407 7.50231 40.8547 7.44904 40.9993L7.03181 42.1313C6.86235 42.5911 6.21464 42.5911 6.04519 42.1313L5.62796 40.9993C5.57468 40.8547 5.46117 40.7407 5.31719 40.6873L4.18965 40.2684C3.7317 40.0982 3.73171 39.448 4.18965 39.2778L5.31719 38.8589C5.46117 38.8054 5.57468 38.6915 5.62796 38.5469L6.04519 37.4149Z" fill="#370063"/>
<path d="M75.9044 50.6424C76.1223 50.0513 76.9551 50.0513 77.1729 50.6424L77.7094 52.0979C77.7779 52.2838 77.9238 52.4303 78.1089 52.4991L79.5586 53.0376C80.1474 53.2564 80.1474 54.0925 79.5586 54.3112L78.1089 54.8498C77.9238 54.9185 77.7779 55.0651 77.7094 55.2509L77.1729 56.7064C76.9551 57.2975 76.1223 57.2975 75.9044 56.7064L75.368 55.2509C75.2995 55.0651 75.1535 54.9185 74.9684 54.8498L73.5187 54.3112C72.93 54.0925 72.93 53.2564 73.5187 53.0376L74.9684 52.4991C75.1535 52.4303 75.2995 52.2838 75.368 52.0979L75.9044 50.6424Z" fill="#370063"/>
<path d="M51.917 0.541869C52.1833 -0.180624 53.2011 -0.180623 53.4674 0.54187L54.123 2.32078C54.2068 2.54793 54.3851 2.72702 54.6114 2.81107L56.3832 3.46933C57.1029 3.73667 57.1029 4.75855 56.3832 5.0259L54.6114 5.68416C54.3851 5.76821 54.2068 5.9473 54.123 6.17445L53.4674 7.95336C53.2011 8.67585 52.1833 8.67585 51.917 7.95336L51.2613 6.17445C51.1776 5.9473 50.9992 5.76821 50.773 5.68416L49.0011 5.0259C48.2815 4.75855 48.2815 3.73667 49.0011 3.46933L50.773 2.81107C50.9992 2.72702 51.1776 2.54793 51.2613 2.32078L51.917 0.541869Z" fill="#370063"/>
<path fill-rule="evenodd" clip-rule="evenodd" d="M4.6648 77.6411C4.47138 78.3851 4.85869 79.1573 5.57093 79.4478C6.28317 79.7382 7.10057 79.4572 7.48329 78.7904L7.48496 78.7875L7.49784 78.7655C7.51016 78.7445 7.52997 78.7111 7.55731 78.6657C7.61199 78.575 7.69677 78.4365 7.81199 78.2546C8.04247 77.8907 8.39459 77.3535 8.87106 76.6776C9.82427 75.3254 11.2735 73.4203 13.2403 71.2383C15.9113 68.2752 19.529 64.8098 24.1471 61.5249C23.1308 63.182 22.0824 65.1398 21.1063 67.4039C20.8087 68.0941 21.0552 68.8981 21.6885 69.3034C22.3219 69.7087 23.1557 69.596 23.6586 69.0372L23.661 69.0345L23.6734 69.0208L23.7278 68.9614C23.7769 68.908 23.8514 68.8277 23.9495 68.7236C24.1457 68.5154 24.4359 68.2129 24.8054 67.8424C25.5454 67.1004 26.5985 66.091 27.8483 65.0234C29.2765 63.8034 30.91 62.5525 32.5904 61.533C32.2643 62.3654 31.9121 63.3522 31.5373 64.5219C31.3038 65.2504 31.6429 66.0395 32.3323 66.372C33.0146 66.701 33.8338 66.4834 34.2631 65.8624L34.27 65.8533C34.2838 65.835 34.3148 65.7955 34.3656 65.7362C34.4672 65.6176 34.6489 65.4197 34.9339 65.1551C35.5038 64.626 36.4884 63.8285 38.0737 62.8655C41.2469 60.9379 46.8168 58.3535 56.2535 55.9352C66.2536 53.3725 71.1069 47.9196 73.3968 42.9804C74.5277 40.5411 75.0151 38.269 75.2205 36.6033C75.3234 35.7689 75.3561 35.0817 75.3626 34.5947C75.3659 34.351 75.3626 34.1569 75.3581 34.019C75.3567 33.977 75.3553 33.9402 75.3538 33.9088C75.3563 33.8727 75.3591 33.8292 75.3619 33.7786C75.3703 33.6288 75.3792 33.4166 75.3828 33.1504C75.39 32.6185 75.3763 31.8675 75.2946 30.9639C75.1318 29.1627 74.6961 26.7192 73.5921 24.1866C71.3409 19.022 66.3894 13.696 56.0105 12.532C45.5393 11.3577 36.6593 16.837 30.1609 22.9909C23.6397 29.1664 19.2709 36.2469 17.7654 38.8212C17.4005 39.4451 17.5206 40.2387 18.0537 40.7269C18.5868 41.2151 19.3885 41.2655 19.9786 40.848L19.9788 40.8479L19.9818 40.8457L19.9964 40.8355L20.0583 40.7923C20.1136 40.7539 20.1963 40.6969 20.3027 40.6246C20.5157 40.4799 20.8226 40.2747 21.1938 40.0361C21.6175 39.7637 22.119 39.4516 22.6559 39.1379C21.9125 39.8412 21.1054 40.6278 20.2623 41.4852C16.6017 45.208 12.1823 50.3456 9.3826 55.8556C9.05062 56.509 9.22723 57.3058 9.80427 57.7579C10.3813 58.2101 11.1976 58.1915 11.7535 57.7137L11.7535 57.7136L11.7536 57.7135L11.7542 57.713L11.7577 57.71L11.7736 57.6964L11.8394 57.6404C11.8981 57.5906 11.9858 57.5165 12.0996 57.4215C12.3271 57.2314 12.6584 56.9576 13.0694 56.6264C13.8829 55.9709 15.0032 55.095 16.2461 54.1994C15.9057 54.6413 15.5577 55.1046 15.2044 55.5889C11.4752 60.7002 7.12436 68.1803 4.6648 77.6411Z" fill="#370063"/>
<path d="M26.6643 28.7689C26.6643 28.7689 25.926 29.7014 24.8985 31.065C23.6167 32.7662 22.8551 33.901 22.6514 34.8283C22.5758 35.1726 22.538 35.3447 22.863 35.7233C23.188 36.1019 23.3839 36.0893 23.7756 36.0641C24.4501 36.0207 25.0603 35.6095 27.3078 34.7532C28.2948 34.4446 29.2985 34.0271 29.8162 33.9597C30.334 33.8923 30.7112 33.7361 30.8999 34.1162C31.0152 34.3484 30.7881 34.6032 30.334 35.1128L24.2951 41.8892C22.3694 44.0501 21.4066 45.1306 21.7688 45.6302C22.131 46.1299 23.4649 45.5496 26.1328 44.389C27.1306 43.9549 28.1273 43.5307 29.036 43.1596C29.9571 42.7835 30.4176 42.5954 30.5964 42.825C30.7751 43.0546 30.4767 43.4582 29.8799 44.2655C28.6111 45.9817 26.6258 48.6798 24.3094 51.8733C22.3261 54.6077 21.3345 55.9748 21.7486 56.4359C22.1628 56.8971 23.6505 56.0472 26.626 54.3475C29.0807 52.9453 31.8578 51.4948 34.489 50.4231C35.3604 50.0682 35.7961 49.8908 35.9756 50.1103C36.1551 50.3299 35.8887 50.7294 35.3557 51.5283C34.7929 52.3721 34.1193 53.4046 33.488 54.431C32.7079 55.6993 32.3179 56.3334 32.7074 56.7601C33.0969 57.1869 33.7866 56.8461 35.166 56.1646L38.7752 54.3812C39.5054 54.0204 39.8704 53.84 40.064 54.0137C40.2575 54.1874 40.1171 54.5694 39.8363 55.3335L39.5189 56.1971C39.0191 57.5573 38.7692 58.2374 39.1068 58.5836C39.4444 58.9298 40.1377 58.6956 41.5242 58.2271C44.3377 57.2765 48.6389 55.9223 52.7899 55.007C59.7896 53.4636 63.3149 51.1049 63.3149 51.1049C63.3149 51.1049 66.8182 49.1867 69.8416 45.7339C72.529 42.6647 74.1834 37.3726 74.0191 34.45C73.8548 31.5273 74.6106 24.9267 67.6438 18.359C60.6769 11.7912 47.2362 14.5825 47.2362 14.5825C47.2362 14.5825 37.0488 16.2902 26.6643 28.7689Z" fill="#8F00FF"/>
<path d="M56.8286 32.3063C57.6768 32.3063 58.3643 31.4475 58.3643 30.3881C58.3643 29.3287 57.6768 28.4698 56.8286 28.4698C55.9805 28.4698 55.293 29.3287 55.293 30.3881C55.293 31.4475 55.9805 32.3063 56.8286 32.3063Z" fill="#370063"/>
<path d="M66.0425 32.3063C66.8907 32.3063 67.5782 31.4475 67.5782 30.3881C67.5782 29.3287 66.8907 28.4698 66.0425 28.4698C65.1944 28.4698 64.5068 29.3287 64.5068 30.3881C64.5068 31.4475 65.1944 32.3063 66.0425 32.3063Z" fill="#370063"/>
<path fill-rule="evenodd" clip-rule="evenodd" d="M65.7601 36.571C66.1622 37.067 66.0858 37.7948 65.5894 38.1966C63.4346 39.9411 61.3224 40.0398 59.744 39.6425C58.9775 39.4496 58.3556 39.1461 57.9251 38.892C57.2065 38.468 56.4197 37.521 57.0722 36.7595C57.486 36.2766 58.212 36.2186 58.6972 36.6284L58.708 36.637C58.721 36.6474 58.745 36.6661 58.7794 36.6912C58.8484 36.7416 58.9575 36.8167 59.1014 36.9016C59.3918 37.073 59.8077 37.2747 60.309 37.4009C61.2662 37.6418 62.6093 37.6342 64.1333 36.4005C64.6296 35.9986 65.358 36.075 65.7601 36.571Z" fill="#370063"/>
</svg>
