<svg width="144" height="36" viewBox="0 0 144 36" fill="none" xmlns="http://www.w3.org/2000/svg">
<path fill-rule="evenodd" clip-rule="evenodd" d="M36.9998 17.9996C36.9998 27.9407 28.7173 35.9993 18.5002 35.9993C8.28301 35.9993 0 27.9407 0 17.9996C0 8.0586 8.28301 0 18.5002 0C28.7173 0 36.9998 8.0586 36.9998 17.9996Z" fill="#29296E"/>
<path fill-rule="evenodd" clip-rule="evenodd" d="M27.109 13.1866L26.6386 11.7726C26.543 11.485 26.3097 11.2612 26.013 11.1729L24.5526 10.7359C24.3504 10.6759 24.3487 10.3984 24.5493 10.3351L26.0032 9.87741C26.2982 9.78436 26.5282 9.55736 26.6195 9.2687L27.068 7.84771C27.1298 7.65155 27.415 7.64944 27.48 7.84505L27.9505 9.25915C28.0461 9.54621 28.2794 9.77 28.576 9.85878L30.0365 10.2952C30.2387 10.3559 30.2408 10.6328 30.0398 10.6961L28.5859 11.1538C28.2909 11.2468 28.0608 11.4744 27.9696 11.763L27.521 13.1835C27.4593 13.3802 27.1741 13.3823 27.109 13.1866Z" fill="#FAFAFA"/>
<path fill-rule="evenodd" clip-rule="evenodd" d="M1.68213 17.7143C2.12196 16.8759 2.99179 16.2444 3.89549 15.8451C4.80847 15.4501 5.81217 15.2077 6.79782 15.1291C8.7877 14.9542 10.7263 15.2779 12.4921 15.8377C13.4018 16.1014 14.2159 16.4677 15.0568 16.8376C15.4655 17.029 15.8496 17.2459 16.2452 17.4554L17.3379 18.0715C18.5377 18.787 19.701 19.4207 20.7937 19.913C21.8892 20.401 22.8792 20.7311 23.8124 20.8996C24.7456 21.0703 25.6941 21.0682 26.8606 20.8077C28.0178 20.553 29.3198 20.0039 30.6809 19.2995C32.0501 18.5946 33.4543 17.7302 35.0562 16.8855C34.8956 18.6509 34.382 20.3064 33.5799 21.9049C32.7582 23.4843 31.6152 25.0249 29.9487 26.2726C28.314 27.5304 26.0689 28.407 23.7835 28.5388C21.4969 28.6893 19.3218 28.1991 17.4712 27.4618C15.6136 26.7138 14.0083 25.7309 12.5855 24.6459C12.1927 24.3461 11.9818 24.1759 11.6917 23.9373L10.8814 23.2467C10.3356 22.831 9.80669 22.3339 9.26632 21.9219C8.18834 21.0453 7.12181 20.1671 5.95257 19.4058C5.36303 19.0188 4.75494 18.66 4.06541 18.3421C3.72283 18.1885 3.35895 18.0455 2.96829 17.9327C2.56835 17.8057 2.16185 17.7302 1.68213 17.7143Z" fill="#F6643C"/>
<path fill-rule="evenodd" clip-rule="evenodd" d="M1.68213 17.7143C1.90669 15.8978 2.77706 14.194 4.17195 12.7437C5.55973 11.3074 7.72773 10.2 10.1334 10.0533C11.3207 9.97619 12.526 10.1048 13.6341 10.4036C14.7372 10.7013 15.7709 11.1351 16.7025 11.646C17.168 11.9027 17.6034 12.1834 18.0373 12.4668L19.1934 13.3184L20.9981 14.7038C22.1695 15.6112 23.2874 16.4506 24.3205 17.1439C25.3636 17.8381 26.252 18.3453 27.1005 18.6424C27.9414 18.9667 29.0035 19.0497 30.4077 18.7062C31.1048 18.5499 31.8321 18.2645 32.6079 17.9551C33.3794 17.6382 34.1804 17.2603 35.0562 16.8855C34.9508 17.7988 34.7601 18.7084 34.3979 19.5584C34.0498 20.4201 33.5914 21.2633 32.9505 22.0495C32.6227 22.4323 32.2714 22.8172 31.8616 23.1723C31.4518 23.5189 30.9978 23.8479 30.4962 24.1366C29.4958 24.7006 28.3091 25.1126 27.0918 25.2594C25.8744 25.4082 24.6522 25.3338 23.5392 25.1041C22.4203 24.8809 21.4007 24.5209 20.4648 24.1052C18.5995 23.261 17.039 22.1999 15.6594 21.0767C14.9667 20.5158 14.317 19.93 13.7018 19.3351L12.9751 18.6254C12.756 18.4197 12.5348 18.2129 12.3156 18.0237C11.4327 17.264 10.6131 16.6835 9.71053 16.3215C8.81448 15.9424 7.66764 15.7867 6.26072 16.0429C4.8593 16.2965 3.3218 16.886 1.68213 17.7143Z" fill="#FAFAFA"/>
<path fill-rule="evenodd" clip-rule="evenodd" d="M9.07695 27.0816C9.07695 27.6191 8.62893 28.055 8.07654 28.055C7.52416 28.055 7.07666 27.6191 7.07666 27.0816C7.07666 26.5442 7.52416 26.1083 8.07654 26.1083C8.62893 26.1083 9.07695 26.5442 9.07695 27.0816Z" fill="#FAFAFA"/>
<path fill-rule="evenodd" clip-rule="evenodd" d="M9.07695 27.0816C9.07695 27.6191 8.62893 28.055 8.07654 28.055C7.52416 28.055 7.07666 27.6191 7.07666 27.0816C7.07666 26.5442 7.52416 26.1083 8.07654 26.1083C8.62893 26.1083 9.07695 26.5442 9.07695 27.0816Z" fill="#FAFAFA"/>
<path fill-rule="evenodd" clip-rule="evenodd" d="M54.0075 18.5008C53.5077 18.1875 52.6004 17.7921 51.2858 17.3149C49.9709 16.8376 49.0583 16.4091 48.5475 16.0294C48.0371 15.6497 47.7815 15.1252 47.7815 14.4563C47.7815 13.7875 48.0403 13.2598 48.5585 12.8731C49.0762 12.4864 49.7591 12.2932 50.6066 12.2932C51.4542 12.2932 52.144 12.5145 52.6763 12.9566C53.209 13.3992 53.4752 14.0278 53.4752 14.8431H55.5506C55.5506 13.4429 55.0685 12.3471 54.1053 11.5564C53.1417 10.7658 51.9813 10.3705 50.6229 10.3705C49.2649 10.3705 48.1109 10.7377 47.1623 11.4729C46.2133 12.2081 45.739 13.1955 45.739 14.4356C45.739 15.3972 45.9849 16.1597 46.4778 16.7244C46.7383 17.0237 46.9883 17.2766 47.2272 17.4819C47.4666 17.6875 47.9697 17.9697 48.7378 18.3283C49.5055 18.6874 50.1575 18.9293 50.6935 19.0546C51.7253 19.4807 52.5712 19.828 53.1113 20.2042C53.6505 20.5804 53.9207 21.0979 53.9207 21.7562C53.9207 22.4146 53.6399 22.9461 53.0784 23.35C52.5173 23.7539 51.7423 23.956 50.7535 23.956C49.7647 23.956 48.9585 23.7176 48.3357 23.2403C47.7125 22.7631 47.4013 22.0821 47.4013 21.197H45.3369C45.3369 22.6811 45.8672 23.8378 46.9286 24.6667C47.9896 25.4959 49.2701 25.9104 50.7698 25.9104C52.269 25.9104 53.515 25.5307 54.5074 24.7713C55.4998 24.0118 55.9904 22.9773 55.9798 21.6673C55.9689 20.3576 55.3116 19.302 54.0075 18.5008Z" fill="#28286E"/>
<path fill-rule="evenodd" clip-rule="evenodd" d="M67.7488 10.7915H57.5063V12.6647H61.6055V25.6309H63.6281V12.6647H67.7488V10.7915Z" fill="#28286E"/>
<path fill-rule="evenodd" clip-rule="evenodd" d="M73.0857 10.7915L67.394 25.6309H69.5781C69.5781 25.6309 70.1328 23.9798 70.5827 23.3047C72.538 20.3735 75.7888 20.0161 76.8335 20.043L78.917 25.6309H81.1011L75.3988 10.7915H73.0857ZM71.845 19.5521L74.2478 13.1096L76.1304 18.1577C75.0568 18.2334 73.4919 18.5441 71.845 19.5521Z" fill="#28286E"/>
<path fill-rule="evenodd" clip-rule="evenodd" d="M107.751 10.7915H105.233L98.7995 17.5177V10.7915H96.7554V25.6309H98.7995V18.5113L105.459 25.6309H107.966L100.941 18.0251L107.751 10.7915Z" fill="#28286E"/>
<path fill-rule="evenodd" clip-rule="evenodd" d="M117.896 19.9498L111.882 10.7915H109.569V25.6309H112.614V16.452L118.606 25.6309H120.919V10.7915H117.896V19.9498Z" fill="#28286E"/>
<path fill-rule="evenodd" clip-rule="evenodd" d="M125.845 19.5047H131.29V16.773H125.845V13.596H131.838V10.7917H122.801V25.6308H131.946V22.837H125.845V19.5047Z" fill="#28286E"/>
<path fill-rule="evenodd" clip-rule="evenodd" d="M133.509 10.7915V13.5962H137.21V25.6309H140.244V13.5962H143.966V10.7915H133.509Z" fill="#28286E"/>
<path fill-rule="evenodd" clip-rule="evenodd" d="M90.359 20.2887C90.0474 20.0116 89.7313 19.7709 89.4144 19.559C90.4093 19.4177 91.4813 18.8948 92.1714 18.0456C92.8007 17.2717 93.0754 16.3691 93.0754 15.3966C93.0754 14.1201 92.6056 13.0337 91.6659 12.1369C90.7262 11.2401 89.5966 10.7917 88.2767 10.7917H82.6606V25.6308H84.7048V20.0347C85.8224 20.0596 87.4847 20.3309 89.0128 21.6889C90.4779 22.9931 91.4902 24.6134 92.0116 25.63H94.1827C93.7331 24.5069 92.4449 22.1439 90.359 20.2887ZM88.2767 12.6438C89.0371 12.6438 89.6863 12.9116 90.2243 13.4458C90.7623 13.9804 91.0309 14.629 91.0309 15.3912C91.0309 16.1537 90.7704 16.8152 90.2243 17.3521C89.2501 18.3098 86.9987 18.119 84.7652 18.1287C84.7449 18.1283 84.7246 18.1275 84.7048 18.1272V12.6438H88.2767Z" fill="#28286E"/>
</svg>
