<svg width="20" height="22" viewBox="0 0 20 22" fill="none" xmlns="http://www.w3.org/2000/svg">
<path d="M18.1477 3.54471H4.33514L3.15497 1.26339C3.0225 1.00733 2.7719 0.848633 2.5 0.848633H1C0.585786 0.848633 0.25 1.21076 0.25 1.65746C0.25 2.10416 0.585786 2.46628 1 2.46628H2.0596L3.22429 4.71767L5.91037 11.127L5.91312 11.1336L6.14971 11.6981L3.45287 14.8003C3.25895 15.0234 3.19825 15.3453 3.29599 15.6323C3.39372 15.9194 3.63317 16.1224 3.91486 16.1571L6.37299 16.4601C9.44767 16.839 12.5524 16.839 15.627 16.4601L18.0852 16.1571C18.4967 16.1064 18.7922 15.7055 18.7452 15.2617C18.6981 14.8179 18.3264 14.4992 17.9149 14.5499L15.4567 14.8529C12.4952 15.2179 9.50481 15.2179 6.54331 14.8529L5.56779 14.7327L7.54717 12.4557C7.56632 12.4337 7.5841 12.4108 7.60052 12.3872L8.35334 12.4929C9.40826 12.6409 10.4746 12.6699 11.5351 12.5795C14.0086 12.3685 16.301 11.0992 17.9015 9.0545L18.4795 8.31596C18.499 8.29116 18.517 8.26512 18.5335 8.23798L19.6109 6.46736C20.3745 5.21232 19.5397 3.54471 18.1477 3.54471Z" fill="#8F00FF"/>
<path d="M5.5 17.8339C4.67157 17.8339 4 18.5582 4 19.4516C4 20.345 4.67157 21.0692 5.5 21.0692C6.32843 21.0692 7 20.345 7 19.4516C7 18.5582 6.32843 17.8339 5.5 17.8339Z" fill="#8F00FF"/>
<path d="M15 19.4516C15 18.5582 15.6716 17.8339 16.5 17.8339C17.3284 17.8339 18 18.5582 18 19.4516C18 20.345 17.3284 21.0692 16.5 21.0692C15.6716 21.0692 15 20.345 15 19.4516Z" fill="#8F00FF"/>
</svg>
