<svg width="19" height="21" viewBox="0 0 19 21" fill="none" xmlns="http://www.w3.org/2000/svg">
<path d="M18.9384 7.66975C18.4878 3.76549 15.6183 0.670932 11.998 0.185068C11.45 0.111516 11 0.601417 11 1.19702V8.20682C11 8.50462 11.2239 8.74604 11.5 8.74604H18C18.5523 8.74604 19.0066 8.26079 18.9384 7.66975Z" fill="#8F00FF"/>
<path d="M9 1.73624C4.30558 1.73624 0.5 5.8403 0.5 10.9029C0.5 15.9655 4.30558 20.0696 9 20.0696C13.6944 20.0696 17.5 15.9655 17.5 10.9029C17.5 10.6051 17.2761 10.3637 17 10.3637H10C9.72386 10.3637 9.5 10.1223 9.5 9.82448V2.27546C9.5 1.97766 9.27614 1.73624 9 1.73624Z" fill="#8F00FF"/>
</svg>
