<svg width="24" height="24" viewBox="0 0 24 24" fill="none" xmlns="http://www.w3.org/2000/svg">
<path fill-rule="evenodd" clip-rule="evenodd" d="M7.30603 7.75828L7.64909 10.8458L6.95486 10.9013C5.98677 10.9785 5.19627 11.7063 5.03933 12.6647C4.67764 14.8736 4.67764 17.1266 5.03933 19.3355C5.19627 20.2939 5.98677 21.0217 6.95486 21.0989L8.45099 21.2184C10.8131 21.407 13.1866 21.407 15.5487 21.2184L17.0448 21.0989C18.0129 21.0217 18.8034 20.2939 18.9604 19.3355C19.322 17.1266 19.322 14.8736 18.9604 12.6647C18.8034 11.7063 18.0129 10.9785 17.0448 10.9013L16.3505 10.8458L16.6936 7.75828C16.734 7.3943 16.734 7.02696 16.6936 6.66298L16.6708 6.45809C16.4293 4.2847 14.7207 2.56504 12.5489 2.30953C12.1841 2.26661 11.8155 2.26661 11.4507 2.30953C9.27888 2.56504 7.57028 4.2847 7.32879 6.45809L7.30603 6.66298C7.26559 7.02696 7.26559 7.3943 7.30603 7.75828ZM12.3737 3.79926C12.1253 3.77004 11.8743 3.77004 11.6259 3.79926C10.1473 3.97322 8.98403 5.14402 8.81962 6.62373L8.79685 6.82863C8.76864 7.08252 8.76864 7.33875 8.79685 7.59263L9.14565 10.7318C11.0465 10.6099 12.9531 10.6099 14.8539 10.7318L15.2027 7.59263C15.2309 7.33874 15.2309 7.08252 15.2027 6.82863L15.18 6.62373C15.0156 5.14402 13.8523 3.97322 12.3737 3.79926ZM11.9998 14.5001C11.1714 14.5001 10.4998 15.1717 10.4998 16.0001C10.4998 16.8285 11.1714 17.5001 11.9998 17.5001C12.8282 17.5001 13.4998 16.8285 13.4998 16.0001C13.4998 15.1717 12.8282 14.5001 11.9998 14.5001Z" fill="url(#paint0_linear_2303_12372)"/>
<defs>
<linearGradient id="paint0_linear_2303_12372" x1="11.9998" y1="21.3598" x2="11.9998" y2="11.8186" gradientUnits="userSpaceOnUse">
<stop stop-color="#7E1AFF"/>
<stop offset="1" stop-color="#9F24FF"/>
</linearGradient>
</defs>
</svg>
