<svg width="24" height="24" viewBox="0 0 24 24" fill="none" xmlns="http://www.w3.org/2000/svg">
<path fill-rule="evenodd" clip-rule="evenodd" d="M13.0002 3C13.0002 2.44772 12.5525 2 12.0002 2C11.4479 2 11.0002 2.44772 11.0002 3V3.75H10.4428C8.21769 3.75 6.3761 5.48001 6.2372 7.70074L6.0162 11.2342C5.93194 12.5814 5.47965 13.8797 4.70859 14.9876C4.01191 15.9886 4.63213 17.3712 5.84306 17.5165L9.25018 17.9254V19C9.25018 20.5188 10.4814 21.75 12.0002 21.75C13.519 21.75 14.7502 20.5188 14.7502 19V17.9254L18.1573 17.5165C19.3682 17.3712 19.9885 15.9886 19.2918 14.9876C18.5207 13.8797 18.0684 12.5814 17.9842 11.2342L17.7632 7.70074C17.6243 5.48001 15.7827 3.75 13.5576 3.75H13.0002V3ZM10.7502 19C10.7502 19.6904 11.3098 20.25 12.0002 20.25C12.6905 20.25 13.2502 19.6904 13.2502 19V18.25H10.7502V19Z" fill="#8F00FF"/>
</svg>
