<svg width="24" height="24" viewBox="0 0 24 24" fill="none" xmlns="http://www.w3.org/2000/svg">
<path fill-rule="evenodd" clip-rule="evenodd" d="M10.6636 11.838L10.8509 11.9993L10.6636 12.1607C8.6882 13.8627 7.04577 15.9165 5.81976 18.2178C5.33865 19.1209 5.93595 20.222 6.9553 20.3111L8.12884 20.4137C10.7047 20.6389 13.2952 20.6389 15.8711 20.4137L17.0446 20.3111C18.0639 20.222 18.6612 19.1209 18.1801 18.2178C16.9541 15.9165 15.3117 13.8627 13.3363 12.1607L13.149 11.9993L13.3363 11.838C15.3117 10.1359 16.9541 8.08212 18.1801 5.7808C18.6612 4.87773 18.0639 3.77665 17.0446 3.68753L15.8711 3.58492C13.2952 3.35971 10.7047 3.35971 8.12884 3.58492L6.9553 3.68753C5.93595 3.77665 5.33865 4.87773 5.81976 5.7808C7.04577 8.08212 8.6882 10.1359 10.6636 11.838ZM11.9999 9.74932C11.801 9.74932 11.6102 9.67031 11.4696 9.52966L9.46957 7.52965C9.25507 7.31516 9.1909 6.99257 9.30699 6.71231C9.42308 6.43206 9.69655 6.24932 9.9999 6.24932H13.9999C14.3032 6.24932 14.5767 6.43206 14.6928 6.71231C14.8089 6.99257 14.7447 7.31516 14.5302 7.52965L12.5302 9.52965C12.3896 9.67031 12.1988 9.74932 11.9999 9.74932ZM11.9999 14.2493C11.801 14.2493 11.6102 14.3283 11.4696 14.469L9.46957 16.469C9.25507 16.6835 9.1909 17.0061 9.30699 17.2863C9.42308 17.5666 9.69655 17.7493 9.9999 17.7493H13.9999C14.3032 17.7493 14.5767 17.5666 14.6928 17.2863C14.8089 17.0061 14.7447 16.6835 14.5302 16.469L12.5302 14.469C12.3896 14.3283 12.1988 14.2493 11.9999 14.2493Z" fill="white"/>
</svg>
