<svg width="21" height="17" viewBox="0 0 21 17" fill="none" xmlns="http://www.w3.org/2000/svg">
<path d="M13.5737 8.50061C13.5737 7.67218 14.2452 7.00061 15.0737 7.00061C15.9021 7.00061 16.5737 7.67218 16.5737 8.50061C16.5737 9.32904 15.9021 10.0006 15.0737 10.0006C14.2452 10.0006 13.5737 9.32904 13.5737 8.50061Z" fill="currentColor"/>
<path fill-rule="evenodd" clip-rule="evenodd" d="M18.515 3.17463C17.8573 1.62897 16.4039 0.517841 14.6743 0.335843L14.0225 0.267247C10.7302 -0.0792067 7.40942 -0.0563602 4.12218 0.33536L3.69023 0.386832C2.02144 0.585691 0.699188 1.8895 0.476912 3.55534C0.038946 6.83765 0.0389459 10.1636 0.476912 13.4459C0.699188 15.1117 2.02144 16.4156 3.69024 16.6144L4.12218 16.6659C7.40942 17.0576 10.7302 17.0805 14.0225 16.734L14.6743 16.6654C16.4039 16.4834 17.8573 15.3723 18.515 13.8266C19.5543 13.5172 20.3474 12.6162 20.4776 11.503C20.711 9.50821 20.711 7.49303 20.4776 5.49825C20.3474 4.38503 19.5543 3.48405 18.515 3.17463ZM13.8655 1.75901C10.6844 1.42426 7.47585 1.44634 4.29967 1.82482L3.86772 1.87629C2.87891 1.99412 2.09544 2.76667 1.96373 3.75373C1.54334 6.90437 1.54334 10.0969 1.96373 13.2475C2.09544 14.2346 2.87891 15.0071 3.86773 15.125L4.29967 15.1764C7.47585 15.5549 10.6844 15.577 13.8655 15.2422L14.5174 15.1736C15.3679 15.0841 16.1205 14.6649 16.642 14.0426C15.1338 14.1305 13.6056 14.0912 12.1154 13.9247C10.8461 13.7828 9.81947 12.7833 9.66973 11.503C9.43642 9.50821 9.43642 7.49303 9.66973 5.49825C9.81947 4.21799 10.8461 3.21845 12.1154 3.07658C13.6056 2.91003 15.1338 2.87073 16.642 2.95867C16.1205 2.33636 15.3679 1.91711 14.5174 1.82761L13.8655 1.75901ZM17.3511 4.51532C17.3517 4.51916 17.3523 4.523 17.3529 4.52684L17.3589 4.56572L17.5575 4.53487C17.6603 4.54505 17.7629 4.55585 17.8654 4.5673C18.4528 4.63295 18.9205 5.09709 18.9878 5.6725C19.2076 7.55151 19.2076 9.44973 18.9878 11.3287C18.9205 11.9042 18.4528 12.3683 17.8654 12.4339C17.7629 12.4454 17.6603 12.4562 17.5575 12.4664L17.3589 12.4355L17.3529 12.4744C17.3523 12.4782 17.3517 12.4821 17.3511 12.4859C15.6724 12.6378 13.9509 12.6205 12.282 12.4339C11.6946 12.3683 11.2269 11.9042 11.1596 11.3287C10.9398 9.44973 10.9398 7.55151 11.1596 5.6725C11.2269 5.09709 11.6946 4.63295 12.282 4.5673C13.9509 4.38078 15.6724 4.36346 17.3511 4.51532Z" fill="currentColor"/>
</svg>
