<svg width="25" height="25" viewBox="0 0 25 25" fill="none" xmlns="http://www.w3.org/2000/svg">
<path d="M21.3553 10.4523C21.3386 10.3583 21.2562 10.2908 21.1607 10.2908H12.7C12.5895 10.2908 12.5 10.3804 12.5 10.4908V13.6908C12.5 13.8013 12.5895 13.8908 12.7 13.8908H17.5864C16.8443 15.9865 14.8503 17.4908 12.5 17.4908C9.51785 17.4908 7.1 15.073 7.1 12.0908C7.1 9.10867 9.51785 6.69082 12.5 6.69082C13.8087 6.69082 15.0052 7.16022 15.9394 7.93543C16.0209 8.00307 16.1409 7.99987 16.2158 7.92497L18.4816 5.65921C18.5617 5.57915 18.5595 5.4485 18.475 5.3732C16.8853 3.95752 14.7961 3.09082 12.5 3.09082C7.52975 3.09082 3.5 7.12057 3.5 12.0908C3.5 17.0611 7.52975 21.0908 12.5 21.0908C17.4703 21.0908 21.5 17.0611 21.5 12.0908C21.5 11.5438 21.449 10.978 21.3553 10.4523Z" fill="#8A6AB1"/>
</svg>
