<svg width="24" height="25" viewBox="0 0 24 25" fill="none" xmlns="http://www.w3.org/2000/svg">
<path d="M21.8098 6.31806C21.8677 6.23729 21.7821 6.133 21.6894 6.16893C21.0307 6.42426 20.3423 6.59653 19.64 6.68142C20.4219 6.2143 21.0253 5.50322 21.3599 4.66135C21.394 4.57559 21.3003 4.49901 21.2195 4.54362C20.4928 4.94496 19.7091 5.23395 18.8949 5.40039C18.8608 5.40736 18.8257 5.39576 18.8018 5.37051C18.1908 4.72584 17.3866 4.2966 16.5098 4.14827C15.6147 3.99683 14.6946 4.14678 13.8938 4.57461C13.0931 5.00244 12.457 5.68395 12.0853 6.51226C11.7319 7.29982 11.6365 8.17773 11.8108 9.02085C11.8243 9.08627 11.7731 9.14804 11.7065 9.14389C10.1224 9.04551 8.57469 8.62418 7.15868 7.90528C5.74627 7.18821 4.49554 6.19065 3.48267 4.97412C3.43772 4.92013 3.35252 4.92711 3.31977 4.98927C3.0046 5.58733 2.83958 6.25393 2.84003 6.93142C2.83875 7.6058 3.00425 8.27004 3.32178 8.86498C3.63932 9.45993 4.09905 9.96713 4.66003 10.3414C4.0651 10.3252 3.48178 10.1782 2.95128 9.91149C2.88291 9.87713 2.8009 9.92606 2.80446 10.0025C2.84583 10.8917 3.17228 11.7845 3.73734 12.4694C4.33866 13.1983 5.17328 13.6971 6.10003 13.8814C5.74328 13.99 5.3729 14.0472 5.00003 14.0514C4.79709 14.0491 4.59454 14.0341 4.39356 14.0066C4.31904 13.9964 4.2582 14.0672 4.28428 14.1377C4.5607 14.8852 5.04903 15.5375 5.6911 16.0136C6.37755 16.5226 7.2056 16.805 8.06003 16.8214C6.61723 17.9567 4.83591 18.5763 3.00003 18.5814C2.81138 18.582 2.62282 18.5759 2.43471 18.5631C2.3287 18.5559 2.27995 18.6971 2.37132 18.7513C4.16009 19.8129 6.20462 20.374 8.29003 20.3714C9.82972 20.3874 11.3572 20.0964 12.7831 19.5155C14.2091 18.9346 15.5051 18.0753 16.5952 16.9879C17.6854 15.9005 18.548 14.6068 19.1326 13.1823C19.7172 11.7578 20.0121 10.2311 20 8.69142V8.21159C20 8.18002 20.015 8.15033 20.0402 8.1313C20.7184 7.61916 21.3149 7.00773 21.8098 6.31806Z" fill="#8A6AB1"/>
</svg>
