<svg width="24" height="28" viewBox="0 0 24 28" fill="none" xmlns="http://www.w3.org/2000/svg">
<path fill-rule="evenodd" clip-rule="evenodd" d="M10.107 0.875C8.94654 0.875 7.97856 1.76185 7.87723 2.91783C7.66536 5.33476 7.61175 7.76246 7.71654 10.1854C7.59004 10.1939 7.46356 10.2027 7.33711 10.2119L5.10285 10.3748C3.67477 10.4789 2.87647 12.0712 3.64744 13.2778C5.2917 15.8511 7.41038 18.0882 9.89054 19.8698L10.7857 20.5128C11.5114 21.0341 12.4889 21.0341 13.2146 20.5128L14.1097 19.8698C16.5899 18.0882 18.7085 15.8511 20.3528 13.2778C21.1238 12.0712 20.3255 10.4789 18.8974 10.3748L16.6631 10.2119C16.5367 10.2027 16.4102 10.1939 16.2837 10.1854C16.3885 7.76245 16.3349 5.33475 16.123 2.91782C16.0217 1.76184 15.0537 0.875 13.8933 0.875H10.107ZM10.0224 11.1721C9.85178 8.49126 9.88364 5.80126 10.1177 3.125H13.8825C14.1166 5.80126 14.1485 8.49126 13.9779 11.1721C13.9588 11.4726 14.0609 11.7683 14.2615 11.9929C14.4622 12.2175 14.7445 12.3523 15.0453 12.3672C15.5303 12.3911 16.0151 12.4207 16.4996 12.456L18.1222 12.5743C16.6829 14.6942 14.8807 16.5456 12.797 18.0424L12.0001 18.6148L11.2032 18.0424C9.11958 16.5456 7.31735 14.6942 5.87805 12.5743L7.50069 12.456C7.98517 12.4207 8.46997 12.3911 8.95498 12.3672C9.25577 12.3523 9.53807 12.2175 9.73868 11.9929C9.9393 11.7683 10.0415 11.4726 10.0224 11.1721Z" fill="currentColor"/>
<path d="M2.625 21.5C2.625 20.8787 2.12132 20.375 1.5 20.375C0.87868 20.375 0.375 20.8787 0.375 21.5V24.5C0.375 25.9497 1.55025 27.125 3 27.125H21C22.4497 27.125 23.625 25.9497 23.625 24.5V21.5C23.625 20.8787 23.1213 20.375 22.5 20.375C21.8787 20.375 21.375 20.8787 21.375 21.5V24.5C21.375 24.7071 21.2071 24.875 21 24.875H3C2.79289 24.875 2.625 24.7071 2.625 24.5V21.5Z" fill="#8A6AB1"/>
</svg>
