<svg width="36" height="37" viewBox="0 0 36 37" fill="none" xmlns="http://www.w3.org/2000/svg">
<path d="M11.2955 10.2682C11.7348 9.82881 11.7348 9.1165 11.2955 8.67716C10.8562 8.23782 10.1438 8.23782 9.7045 8.67716L6.7045 11.6772C6.26517 12.1165 6.26517 12.8288 6.7045 13.2682L9.7045 16.2682C10.1438 16.7075 10.8562 16.7075 11.2955 16.2682C11.7348 15.8288 11.7348 15.1165 11.2955 14.6772L10.216 13.5977H25.5C26.1213 13.5977 26.625 13.094 26.625 12.4727C26.625 11.8513 26.1213 11.3477 25.5 11.3477H10.216L11.2955 10.2682Z" fill="#8A6AB1"/>
<path d="M24.7045 20.6772C24.2652 21.1165 24.2652 21.8288 24.7045 22.2682L25.784 23.3477H10.5C9.87868 23.3477 9.375 23.8513 9.375 24.4727C9.375 25.094 9.87868 25.5977 10.5 25.5977H25.784L24.7045 26.6772C24.2652 27.1165 24.2652 27.8288 24.7045 28.2682C25.1438 28.7075 25.8562 28.7075 26.2955 28.2682L29.2955 25.2682C29.7348 24.8288 29.7348 24.1165 29.2955 23.6772L26.2955 20.6772C25.8562 20.2378 25.1438 20.2378 24.7045 20.6772Z" fill="#8A6AB1"/>
</svg>
