<svg width="36" height="37" viewBox="0 0 36 37" fill="none" xmlns="http://www.w3.org/2000/svg">
<path d="M10.2969 10.8235C12.2672 8.84647 14.9899 7.625 18 7.625C24.0061 7.625 28.875 12.4939 28.875 18.5C28.875 24.5061 24.0061 29.375 18 29.375C11.9939 29.375 7.125 24.5061 7.125 18.5C7.125 17.8787 6.62132 17.375 6 17.375C5.37868 17.375 4.875 17.8787 4.875 18.5C4.875 25.7487 10.7513 31.625 18 31.625C25.2487 31.625 31.125 25.7487 31.125 18.5C31.125 11.2513 25.2487 5.375 18 5.375C14.3678 5.375 11.0784 6.85193 8.70319 9.23528C8.66502 9.27358 8.63018 9.31395 8.59867 9.35602L6.71232 7.46967C6.50654 7.26389 6.2003 7.19573 5.92667 7.29479C5.65304 7.39386 5.46141 7.64228 5.43507 7.9321L4.90474 13.7657C4.88458 13.9874 4.96393 14.2066 5.12133 14.364C5.27872 14.5214 5.49789 14.6007 5.71956 14.5805L11.5532 14.0502C11.843 14.0239 12.0914 13.8323 12.1905 13.5586C12.2896 13.285 12.2214 12.9787 12.0156 12.773L10.1734 10.9308C10.2165 10.8985 10.2578 10.8628 10.2969 10.8235Z" fill="#370063"/>
<path d="M19.125 11C19.125 10.3787 18.6213 9.875 18 9.875C17.3787 9.875 16.875 10.3787 16.875 11V18.5C16.875 18.8879 17.0748 19.2484 17.4038 19.454L21.9038 22.2665C22.4306 22.5958 23.1247 22.4356 23.454 21.9087C23.7833 21.3819 23.6231 20.6878 23.0962 20.3585L19.125 17.8765V11Z" fill="#370063"/>
</svg>
