<svg width="36" height="36" viewBox="0 0 36 36" fill="none" xmlns="http://www.w3.org/2000/svg">
<path fill-rule="evenodd" clip-rule="evenodd" d="M18.0015 17.4742C16.9659 17.4742 16.1265 18.3137 16.1265 19.3492C16.1265 20.3847 16.9659 21.2242 18.0015 21.2242C19.037 21.2242 19.8765 20.3847 19.8765 19.3492C19.8765 18.3137 19.037 17.4742 18.0015 17.4742ZM13.8765 19.3492C13.8765 17.071 15.7233 15.2242 18.0015 15.2242C20.2796 15.2242 22.1265 17.071 22.1265 19.3492C22.1265 21.6274 20.2796 23.4742 18.0015 23.4742C15.7233 23.4742 13.8765 21.6274 13.8765 19.3492Z" fill="#8F00FF"/>
<path fill-rule="evenodd" clip-rule="evenodd" d="M18.0015 11.4742C16.4439 11.4742 14.9214 11.9361 13.6264 12.8014C12.3313 13.6667 11.322 14.8966 10.7259 16.3356C10.1299 17.7745 9.97393 19.3579 10.2778 20.8855C10.5816 22.4131 11.3317 23.8163 12.433 24.9177C12.8723 25.357 12.8723 26.0693 12.433 26.5087C11.9937 26.948 11.2814 26.948 10.842 26.5087C9.42601 25.0927 8.46169 23.2886 8.07102 21.3245C7.68034 19.3604 7.88085 17.3246 8.64719 15.4745C9.41353 13.6244 10.7113 12.0431 12.3763 10.9306C14.0414 9.81803 15.9989 9.22421 18.0015 9.22421C20.004 9.22421 21.9616 9.81803 23.6266 10.9306C25.2917 12.0431 26.5894 13.6244 27.3557 15.4745C28.1221 17.3246 28.3226 19.3604 27.9319 21.3245C27.5412 23.2886 26.5769 25.0927 25.1609 26.5087C24.7216 26.948 24.0093 26.948 23.5699 26.5087C23.1306 26.0693 23.1306 25.357 23.5699 24.9177C24.6713 23.8163 25.4213 22.4132 25.7252 20.8855C26.029 19.3579 25.8731 17.7745 25.277 16.3356C24.681 14.8966 23.6716 13.6667 22.3766 12.8014C21.0815 11.9361 19.559 11.4742 18.0015 11.4742Z" fill="#8F00FF"/>
<path fill-rule="evenodd" clip-rule="evenodd" d="M18.0016 5.625C15.2872 5.625 12.6337 6.42991 10.3768 7.93795C8.11987 9.44599 6.3608 11.5894 5.32204 14.0972C4.28329 16.605 4.01151 19.3645 4.54106 22.0267C5.07061 24.6889 6.37772 27.1344 8.29708 29.0537C8.73642 29.4931 8.73642 30.2054 8.29708 30.6447C7.85774 31.0841 7.14543 31.0841 6.70609 30.6447C4.47206 28.4107 2.95066 25.5643 2.33429 22.4657C1.71792 19.367 2.03426 16.1551 3.24332 13.2362C4.45237 10.3172 6.49983 7.82242 9.12677 6.06714C11.7537 4.31187 14.8422 3.375 18.0016 3.375C21.161 3.375 24.2494 4.31187 26.8764 6.06714C29.5033 7.82242 31.5508 10.3173 32.7598 13.2362C33.9689 16.1551 34.2852 19.367 33.6689 22.4657C33.0525 25.5643 31.5311 28.4107 29.2971 30.6447C28.8577 31.0841 28.1454 31.0841 27.7061 30.6447C27.2667 30.2054 27.2667 29.4931 27.7061 29.0537C29.6254 27.1344 30.9326 24.6889 31.4621 22.0267C31.9917 19.3645 31.7199 16.605 30.6811 14.0972C29.6424 11.5894 27.8833 9.44599 25.6264 7.93795C23.3694 6.42991 20.716 5.625 18.0016 5.625Z" fill="#8F00FF"/>
</svg>
