<svg width="36" height="37" viewBox="0 0 36 37" fill="none" xmlns="http://www.w3.org/2000/svg">
<path fill-rule="evenodd" clip-rule="evenodd" d="M13.3938 7.17937C11.487 6.96625 9.51314 6.96625 7.60632 7.17937C7.14298 7.23115 6.77758 7.59804 6.72547 8.04362C6.49776 9.99053 6.49776 11.9574 6.72547 13.9043C6.77758 14.3499 7.14298 14.7167 7.60632 14.7685C9.51314 14.9816 11.487 14.9816 13.3938 14.7685C13.8572 14.7167 14.2226 14.3499 14.2747 13.9043C14.5024 11.9574 14.5024 9.99053 14.2747 8.04362C14.2226 7.59804 13.8572 7.23115 13.3938 7.17937ZM7.3564 4.94329C9.42932 4.71161 11.5708 4.71161 13.6437 4.94329C15.13 5.1094 16.3337 6.27938 16.5094 7.78225C16.7575 9.90282 16.7575 12.0451 16.5094 14.1656C16.3337 15.6685 15.13 16.8385 13.6437 17.0046C11.5708 17.2363 9.42932 17.2363 7.3564 17.0046C5.87014 16.8385 4.66648 15.6685 4.4907 14.1656C4.24268 12.0451 4.24268 9.90282 4.4907 7.78225C4.66648 6.27938 5.87014 5.1094 7.3564 4.94329Z" fill="#8A6AB1"/>
<path fill-rule="evenodd" clip-rule="evenodd" d="M13.3938 22.1794C11.487 21.9663 9.51314 21.9663 7.60632 22.1794C7.14298 22.2312 6.77758 22.598 6.72547 23.0436C6.49776 24.9905 6.49776 26.9574 6.72547 28.9043C6.77758 29.3498 7.14298 29.7167 7.60632 29.7685C9.51314 29.9816 11.487 29.9816 13.3938 29.7685C13.8572 29.7167 14.2226 29.3498 14.2747 28.9043C14.5024 26.9574 14.5024 24.9905 14.2747 23.0436C14.2226 22.598 13.8572 22.2312 13.3938 22.1794ZM7.3564 19.9433C9.42932 19.7116 11.5708 19.7116 13.6437 19.9433C15.13 20.1094 16.3337 21.2794 16.5094 22.7822C16.7575 24.9028 16.7575 27.0451 16.5094 29.1656C16.3337 30.6685 15.13 31.8385 13.6437 32.0046C11.5708 32.2363 9.42932 32.2363 7.3564 32.0046C5.87014 31.8385 4.66648 30.6685 4.4907 29.1656C4.24268 27.0451 4.24268 24.9028 4.4907 22.7822C4.66648 21.2794 5.87014 20.1094 7.3564 19.9433Z" fill="#8A6AB1"/>
<path fill-rule="evenodd" clip-rule="evenodd" d="M28.3938 7.17937C26.487 6.96625 24.5131 6.96625 22.6063 7.17937C22.143 7.23115 21.7776 7.59804 21.7255 8.04362C21.4978 9.99053 21.4978 11.9574 21.7255 13.9043C21.7776 14.3499 22.143 14.7167 22.6063 14.7685C24.5131 14.9816 26.487 14.9816 28.3938 14.7685C28.8572 14.7167 29.2226 14.3499 29.2747 13.9043C29.5024 11.9574 29.5024 9.99053 29.2747 8.04362C29.2226 7.59804 28.8572 7.23115 28.3938 7.17937ZM22.3564 4.94329C24.4293 4.71161 26.5708 4.71161 28.6437 4.94329C30.13 5.1094 31.3337 6.27938 31.5094 7.78225C31.7575 9.90282 31.7575 12.0451 31.5094 14.1656C31.3337 15.6685 30.13 16.8385 28.6437 17.0046C26.5708 17.2363 24.4293 17.2363 22.3564 17.0046C20.8701 16.8385 19.6665 15.6685 19.4907 14.1656C19.2427 12.0451 19.2427 9.90282 19.4907 7.78225C19.6665 6.27938 20.8701 5.1094 22.3564 4.94329Z" fill="#8A6AB1"/>
<path fill-rule="evenodd" clip-rule="evenodd" d="M28.3938 22.1794C26.487 21.9663 24.5131 21.9663 22.6063 22.1794C22.143 22.2312 21.7776 22.598 21.7255 23.0436C21.4978 24.9905 21.4978 26.9574 21.7255 28.9043C21.7776 29.3498 22.143 29.7167 22.6063 29.7685C24.5131 29.9816 26.487 29.9816 28.3938 29.7685C28.8572 29.7167 29.2226 29.3498 29.2747 28.9043C29.5024 26.9574 29.5024 24.9905 29.2747 23.0436C29.2226 22.598 28.8572 22.2312 28.3938 22.1794ZM22.3564 19.9433C24.4293 19.7116 26.5708 19.7116 28.6437 19.9433C30.13 20.1094 31.3337 21.2794 31.5094 22.7822C31.7575 24.9028 31.7575 27.0451 31.5094 29.1656C31.3337 30.6685 30.13 31.8385 28.6437 32.0046C26.5708 32.2363 24.4293 32.2363 22.3564 32.0046C20.8701 31.8385 19.6665 30.6685 19.4907 29.1656C19.2427 27.0451 19.2427 24.9028 19.4907 22.7822C19.6665 21.2794 20.8701 20.1094 22.3564 19.9433Z" fill="#8A6AB1"/>
</svg>
