<svg width="32" height="30" viewBox="0 0 32 30" fill="none" xmlns="http://www.w3.org/2000/svg">
<path fill-rule="evenodd" clip-rule="evenodd" d="M7.87538 19.576C7.86297 20.0922 8.2035 20.5505 8.70126 20.6877C9.19902 20.8248 9.72623 20.6055 9.97991 20.1558L11.3334 17.7565C12.9385 14.9111 16.1338 13.3522 19.3643 13.8384L19.5883 13.8721C19.6286 14.8889 19.6857 15.9052 19.7597 16.9205L19.8615 18.3165C19.9443 19.4517 21.2101 20.0863 22.1692 19.4735C25.3157 17.4629 28.0511 14.8723 30.2296 11.8397L30.9137 10.8872C31.1955 10.495 31.1955 9.96676 30.9137 9.57455L30.2296 8.62214C28.0511 5.58951 25.3157 2.99887 22.1692 0.988333C21.2101 0.375459 19.9443 1.01006 19.8615 2.14529L19.7597 3.54125C19.7001 4.35984 19.6514 5.17903 19.6136 5.99861L18.0863 5.9986C12.5892 5.9986 8.09636 10.3848 7.96424 15.8802L7.87538 19.576ZM19.6992 11.6135C16.0702 11.0673 12.4759 12.5283 10.2495 15.346C10.6419 11.3512 14.0089 8.2486 18.0863 8.2486L20.6944 8.24861C21.3007 8.24861 21.798 7.76806 21.8187 7.16207C21.8582 6.00887 21.9199 4.85624 22.0038 3.70483L22.0119 3.59314C24.4771 5.33564 26.6375 7.47822 28.4022 9.93484L28.6149 10.2309L28.4022 10.527C26.6375 12.9836 24.4771 15.1262 22.0119 16.8687L22.0038 16.757C21.9093 15.4611 21.843 14.1638 21.8049 12.8658C21.7889 12.3219 21.3859 11.8673 20.8478 11.7864L19.6992 11.6135Z" fill="#8A6AB1"/>
<path d="M26.4621 23.1169C26.639 21.6045 26.7638 20.0874 26.8367 18.5686C26.8446 18.4041 26.9191 18.2501 27.0425 18.1411C27.5876 17.66 28.1157 17.16 28.6259 16.6421C28.8178 16.4473 29.1531 16.5835 29.1473 16.8569C29.1005 19.0348 28.9503 21.2111 28.6968 23.3783C28.342 26.4121 25.9055 28.7896 22.8874 29.1269C17.6875 29.7081 12.3125 29.7081 7.11268 29.1269C4.0946 28.7896 1.6581 26.4121 1.30327 23.3783C0.681462 18.0619 0.681462 12.6911 1.30327 7.3746C1.6581 4.34081 4.0946 1.96329 7.11268 1.62598C10.5491 1.2419 14.0621 1.11165 17.5504 1.23523C17.8441 1.24564 18.0463 1.53315 18.0097 1.82474C18.0021 1.88547 17.996 1.94689 17.9915 2.00898L17.9145 3.0647C17.8969 3.30709 17.69 3.49151 17.4471 3.48299C14.0765 3.36473 10.6818 3.49109 7.3626 3.86206C5.36744 4.08505 3.76921 5.65947 3.53804 7.63598C2.93654 12.7788 2.93654 17.9741 3.53804 23.1169C3.76921 25.0934 5.36744 26.6679 7.3626 26.8909C12.3964 27.4534 17.6037 27.4534 22.6375 26.8909C24.6327 26.6679 26.2309 25.0934 26.4621 23.1169Z" fill="#8A6AB1"/>
</svg>
