<svg width="36" height="37" viewBox="0 0 36 37" fill="none" xmlns="http://www.w3.org/2000/svg">
<path d="M15.75 24.474C15.75 23.2314 16.7574 22.224 18 22.224C19.2427 22.224 20.25 23.2314 20.25 24.474C20.25 25.7167 19.2427 26.724 18 26.724C16.7574 26.724 15.75 25.7167 15.75 24.474Z" fill="#8A6AB1"/>
<path fill-rule="evenodd" clip-rule="evenodd" d="M14.7157 6.48151C15.0643 6.34274 15.4279 6.24532 15.7991 6.19123C18.009 5.86922 20.149 7.11397 20.9617 9.19408L21.0742 9.48212C21.2137 9.83902 21.3131 10.2103 21.3708 10.5891L21.6958 12.7225L23.9201 12.3838L23.5952 10.2503C23.5125 9.70723 23.3699 9.175 23.17 8.66333L23.0574 8.3753C21.8638 5.32005 18.7206 3.49178 15.4747 3.96474C14.9294 4.04418 14.3954 4.18729 13.8835 4.39111C10.836 5.60445 9.02802 8.75938 9.52191 12.0021L9.56847 12.3078C9.65118 12.8509 9.79379 13.3831 9.99369 13.8948L10.9749 16.4063L10.4027 16.452C8.7786 16.5816 7.45245 17.8025 7.18917 19.4103C6.64007 22.7638 6.64007 26.1843 7.18917 29.5378C7.45245 31.1456 8.77861 32.3665 10.4027 32.4961L12.6469 32.6753C16.21 32.9597 19.7901 32.9597 23.3531 32.6753L25.5973 32.4961C27.2214 32.3665 28.5476 31.1456 28.8108 29.5378C29.36 26.1843 29.36 22.7638 28.8108 19.4103C28.5476 17.8025 27.2214 16.5816 25.5973 16.452L23.3531 16.2728C20.0139 16.0062 16.6598 15.9895 13.3188 16.2226L12.0894 13.076C11.95 12.7191 11.8505 12.3479 11.7928 11.9691L11.7463 11.6634C11.41 9.45558 12.6409 7.3076 14.7157 6.48151ZM23.1741 18.5157C19.7302 18.2407 16.2698 18.2407 12.8259 18.5157L10.5817 18.6948C9.98935 18.7421 9.50563 19.1874 9.4096 19.7739C8.89992 22.8866 8.89992 26.0615 9.4096 29.1742C9.50563 29.7606 9.98936 30.206 10.5817 30.2532L12.8259 30.4324C16.2698 30.7073 19.7302 30.7073 23.1741 30.4324L25.4183 30.2532C26.0107 30.206 26.4944 29.7606 26.5904 29.1742C27.1001 26.0615 27.1001 22.8866 26.5904 19.7739C26.4944 19.1874 26.0107 18.7421 25.4183 18.6948L23.1741 18.5157Z" fill="#8A6AB1"/>
</svg>
