<svg width="25" height="24" viewBox="0 0 25 24" fill="none" xmlns="http://www.w3.org/2000/svg">
<path fill-rule="evenodd" clip-rule="evenodd" d="M14.3083 8.44743C13.1158 8.31416 11.8841 8.31416 10.6917 8.44743C9.79371 8.5478 9.06598 9.2546 8.95965 10.1637C8.81696 11.3838 8.81696 12.6163 8.95965 13.8363C9.06598 14.7454 9.79371 15.4522 10.6917 15.5526C11.8841 15.6858 13.1158 15.6858 14.3083 15.5526C15.2063 15.4522 15.934 14.7454 16.0403 13.8363C16.183 12.6163 16.183 11.3838 16.0403 10.1637C15.934 9.2546 15.2063 8.5478 14.3083 8.44743ZM10.8583 9.93815C11.94 9.81726 13.06 9.81726 14.1417 9.93815C14.3577 9.9623 14.5266 10.1337 14.5505 10.338C14.6796 11.4422 14.6796 12.5578 14.5505 13.662C14.5266 13.8663 14.3577 14.0377 14.1417 14.0619C13.06 14.1827 11.94 14.1827 10.8583 14.0619C10.6423 14.0377 10.4734 13.8663 10.4495 13.662C10.3203 12.5578 10.3203 11.4422 10.4495 10.338C10.4734 10.1337 10.6423 9.9623 10.8583 9.93815Z" fill="#8A6AB1"/>
<path fill-rule="evenodd" clip-rule="evenodd" d="M16.25 3C16.25 2.58579 15.9142 2.25 15.5 2.25C15.0858 2.25 14.75 2.58579 14.75 3V5.52362C14.2517 5.48862 13.7512 5.4653 13.25 5.45366V4C13.25 3.58579 12.9142 3.25 12.5 3.25C12.0858 3.25 11.75 3.58579 11.75 4V5.45366C11.2488 5.4653 10.7483 5.48862 10.25 5.52362V3C10.25 2.58579 9.91421 2.25 9.5 2.25C9.08579 2.25 8.75 2.58579 8.75 3V5.67203C7.45006 5.9088 6.4125 6.93591 6.18791 8.25H3.5C3.08579 8.25 2.75 8.58579 2.75 9C2.75 9.41421 3.08579 9.75 3.5 9.75H6.0374C6.00089 10.2495 5.97655 10.7496 5.96439 11.25H4.5C4.08579 11.25 3.75 11.5858 3.75 12C3.75 12.4142 4.08579 12.75 4.5 12.75H5.96439C5.97655 13.2504 6.00089 13.7505 6.0374 14.25H3.5C3.08579 14.25 2.75 14.5858 2.75 15C2.75 15.4142 3.08579 15.75 3.5 15.75H6.18791C6.41251 17.0641 7.45006 18.0912 8.75 18.328V21C8.75 21.4142 9.08579 21.75 9.5 21.75C9.91421 21.75 10.25 21.4142 10.25 21V18.4764C10.7483 18.5114 11.2488 18.5347 11.75 18.5463V20C11.75 20.4142 12.0858 20.75 12.5 20.75C12.9142 20.75 13.25 20.4142 13.25 20V18.5463C13.7512 18.5347 14.2517 18.5114 14.75 18.4764V21C14.75 21.4142 15.0858 21.75 15.5 21.75C15.9142 21.75 16.25 21.4142 16.25 21V18.328C17.5499 18.0912 18.5875 17.0641 18.8121 15.75H21.5C21.9142 15.75 22.25 15.4142 22.25 15C22.25 14.5858 21.9142 14.25 21.5 14.25H18.9626C18.9991 13.7505 19.0235 13.2504 19.0356 12.75H20.5C20.9142 12.75 21.25 12.4142 21.25 12C21.25 11.5858 20.9142 11.25 20.5 11.25H19.0356C19.0235 10.7496 18.9991 10.2495 18.9626 9.75H21.5C21.9142 9.75 22.25 9.41421 22.25 9C22.25 8.58579 21.9142 8.25 21.5 8.25H18.8121C18.5875 6.93591 17.5499 5.90879 16.25 5.67203V3ZM9.13335 7.13094C11.3521 6.88296 13.6479 6.88296 15.8667 7.13094C16.6397 7.21734 17.2569 7.82785 17.3459 8.58883C17.611 10.8552 17.611 13.1448 17.3459 15.4112C17.2569 16.1721 16.6397 16.7827 15.8667 16.8691C13.6479 17.117 11.3521 17.117 9.13335 16.8691C8.36027 16.7827 7.74309 16.1721 7.65408 15.4112C7.38901 13.1448 7.38901 10.8552 7.65408 8.58883C7.74309 7.82785 8.36027 7.21734 9.13335 7.13094Z" fill="#8A6AB1"/>
</svg>
