<svg width="32" height="32" viewBox="0 0 32 32" fill="none" xmlns="http://www.w3.org/2000/svg">
<path d="M21.4211 11.9931C21.8117 11.6026 21.8117 10.9694 21.4211 10.5789C21.0306 10.1884 20.3975 10.1884 20.0069 10.5789L16 14.5858L11.9931 10.5789C11.6025 10.1884 10.9694 10.1884 10.5789 10.5789C10.1883 10.9694 10.1883 11.6026 10.5789 11.9931L14.5858 16.0001L10.5788 20.007C10.1883 20.3975 10.1883 21.0307 10.5788 21.4212C10.9694 21.8117 11.6025 21.8117 11.9931 21.4212L16 17.4143L20.0069 21.4212C20.3975 21.8117 21.0306 21.8117 21.4212 21.4212C21.8117 21.0307 21.8117 20.3975 21.4212 20.007L17.4142 16.0001L21.4211 11.9931Z" fill="white"/>
</svg>
