<svg width="25" height="26" viewBox="0 0 25 26" fill="none" xmlns="http://www.w3.org/2000/svg">
<g clip-path="url(#clip0_7137_221866)">
<path d="M12.462 0.607258V0.619574C12.4497 0.68115 12.4497 0.755042 12.4497 0.828933V9.70824C12.462 9.75751 12.499 9.76982 12.5359 9.79445C12.7945 9.9176 13.0408 10.0284 13.2995 10.1393C13.6566 10.2994 14.0261 10.4718 14.3832 10.6319L15.6763 11.223C16.0335 11.3831 16.3906 11.5432 16.7354 11.7033C17.1541 11.9004 17.5852 12.0851 18.0039 12.2821C18.361 12.4422 18.7182 12.6146 19.0876 12.7747C19.3832 12.9102 19.6788 13.0334 19.962 13.1688C19.9867 13.1812 20.0113 13.1935 20.0359 13.1935C20.0482 13.1935 20.0482 13.1935 20.0605 13.1812L19.728 12.627C19.0876 11.5679 18.4596 10.5211 17.8192 9.46194C17.1418 8.32893 16.4522 7.19593 15.7748 6.06292C15.1468 5.01613 14.5064 3.96933 13.8783 2.92253C13.4226 2.15898 12.9546 1.39544 12.499 0.631889C12.4867 0.607258 12.4743 0.594943 12.4743 0.570312H12.462C12.4743 0.582628 12.462 0.594943 12.462 0.607258Z" fill="#8A92B2"/>
<path d="M4.90207 13.1813L4.88976 13.1937L6.7001 14.2651L12.3898 17.6272C12.4144 17.6395 12.439 17.6518 12.4513 17.6641C12.4883 17.6641 12.4883 17.6272 12.4883 17.6148V17.504V9.89317C12.4883 9.85623 12.4883 9.80697 12.476 9.77002C12.4637 9.72076 12.4267 9.73307 12.3898 9.74539C12.2297 9.81928 12.0572 9.89317 11.8971 9.96706C11.4169 10.1887 10.9366 10.4104 10.4563 10.6198C10.0375 10.8045 9.63114 11.0015 9.21242 11.1863C8.7937 11.371 8.37498 11.568 7.95626 11.7528C7.59912 11.9129 7.22966 12.0853 6.87252 12.2454C6.51537 12.4055 6.14591 12.5779 5.78877 12.738C5.50552 12.8612 5.22227 12.9966 4.93902 13.1198C4.93902 13.1567 4.9267 13.169 4.90207 13.1813Z" fill="#454A75"/>
<path d="M12.464 25.3129C12.464 25.3252 12.4763 25.3375 12.4763 25.3498H12.4886C12.4886 25.3252 12.5132 25.3129 12.5256 25.2882C13.2891 24.2168 14.0526 23.1331 14.8162 22.0616C15.5921 20.9656 16.3802 19.8572 17.1561 18.7611C17.9073 17.702 18.6709 16.6306 19.4221 15.5715C19.6192 15.2882 19.8162 15.0173 20.0132 14.734C20.0256 14.7094 20.0379 14.6971 20.0625 14.6602C20.0256 14.6602 20.0009 14.6848 19.9886 14.6971C18.9172 15.3252 17.8581 15.9533 16.7866 16.5813C15.5551 17.3079 14.3359 18.0345 13.1044 18.7611L12.4763 19.1306C12.4517 19.1552 12.4517 19.1799 12.4517 19.2045V25.1405C12.4517 25.202 12.4517 25.2636 12.464 25.3129Z" fill="#8A92B2"/>
<path d="M20.0742 13.2073V13.195C19.6801 13.0226 19.2984 12.8378 18.9043 12.6654C18.3993 12.4314 17.8944 12.2097 17.3895 11.9758C17.0077 11.8033 16.6136 11.6186 16.2319 11.4462C15.6654 11.1876 15.1112 10.9413 14.5447 10.6827C14.1629 10.5102 13.7811 10.3378 13.387 10.1531C13.1161 10.0299 12.8328 9.90679 12.5619 9.78364C12.5373 9.77132 12.5003 9.75901 12.488 9.73438C12.4757 9.73438 12.4757 9.74669 12.488 9.75901V17.5792C12.488 17.6161 12.5003 17.6531 12.4757 17.6777C12.5003 17.7147 12.525 17.6777 12.5373 17.6654C12.6481 17.6038 12.7589 17.5423 12.8698 17.4684C15.2466 16.0644 17.6358 14.6482 20.0126 13.2442C20.025 13.2319 20.0496 13.2196 20.0742 13.2073Z" fill="#62688F"/>
<path d="M4.9273 14.6602H4.91498C4.91498 14.6848 4.93961 14.7094 4.95193 14.734C7.21794 17.9237 9.48395 21.1257 11.75 24.3153C11.984 24.6478 12.2303 24.9804 12.4642 25.3129C12.4766 25.3006 12.4766 25.2882 12.4766 25.2759V25.202V19.2291V19.1183C11.9593 18.8104 11.4544 18.5148 10.9372 18.207C8.94208 17.0247 6.947 15.8547 4.96425 14.6725C4.95193 14.6848 4.93962 14.6725 4.9273 14.6602Z" fill="#62688F"/>
<path d="M12.4754 9.75902V9.73439V9.6605V0.719616C12.4754 0.68267 12.4877 0.65804 12.4631 0.621094C9.96305 4.77134 7.46305 8.90927 4.97537 13.0595C4.95074 13.0965 4.91379 13.1457 4.90148 13.195C5.07389 13.1334 5.23399 13.0472 5.39409 12.9733C5.59113 12.8871 5.80049 12.7886 5.99753 12.7024C6.12069 12.6408 6.25616 12.5915 6.37931 12.53C6.58867 12.4314 6.79803 12.3452 7.00739 12.2467C7.13054 12.1974 7.25369 12.1359 7.37685 12.0743L8.18965 11.7048C8.32512 11.6433 8.46059 11.5817 8.60837 11.5201L9.19951 11.2615C9.32266 11.2122 9.44581 11.1507 9.56896 11.0891L10.3818 10.7196C10.5172 10.658 10.6527 10.5965 10.8005 10.5349L11.3916 10.2763C11.5271 10.2147 11.6502 10.1531 11.7857 10.0915C12.0197 9.9807 12.2537 9.86986 12.5 9.77134C12.4631 9.75902 12.4754 9.75902 12.4754 9.75902Z" fill="#62688F"/>
</g>
<defs>
<clipPath id="clip0_7137_221866">
<rect width="25" height="25" fill="white" transform="matrix(-1 0 0 1 25 0.472656)"/>
</clipPath>
</defs>
</svg>
