<svg width="36" height="36" viewBox="0 0 36 36" fill="none" xmlns="http://www.w3.org/2000/svg">
<path fill-rule="evenodd" clip-rule="evenodd" d="M4.875 15.0447C4.875 10.994 8.42871 7.875 12.6 7.875C14.7502 7.875 16.6423 8.88321 18 10.1877C19.3577 8.88321 21.2498 7.875 23.4 7.875C27.5713 7.875 31.125 10.994 31.125 15.0447C31.125 17.8195 29.9417 20.2597 28.3023 22.3223C26.6657 24.3814 24.5249 26.1289 22.4752 27.549C21.6923 28.0913 20.9003 28.5917 20.1754 28.9608C19.4948 29.3075 18.7121 29.625 18 29.625C17.2879 29.625 16.5052 29.3075 15.8246 28.9608C15.0997 28.5917 14.3077 28.0913 13.5248 27.549C11.4751 26.1289 9.33431 24.3814 7.69773 22.3223C6.05832 20.2597 4.875 17.8195 4.875 15.0447ZM12.6 10.125C9.48113 10.125 7.125 12.4186 7.125 15.0447C7.125 17.1499 8.01868 19.11 9.45914 20.9223C10.9024 22.7382 12.8444 24.3404 14.8061 25.6994C15.5484 26.2137 16.2476 26.6513 16.8457 26.9559C17.488 27.283 17.86 27.375 18 27.375C18.14 27.375 18.512 27.283 19.1543 26.9559C19.7524 26.6513 20.4516 26.2137 21.1939 25.6994C23.1556 24.3404 25.0976 22.7382 26.5409 20.9223C27.9813 19.11 28.875 17.1499 28.875 15.0447C28.875 12.4186 26.5189 10.125 23.4 10.125C21.6088 10.125 19.9362 11.1951 18.8918 12.5534C18.6789 12.8303 18.3494 12.9926 18 12.9926C17.6506 12.9926 17.3211 12.8303 17.1082 12.5534C16.0638 11.1951 14.3912 10.125 12.6 10.125Z" fill="#8F00FF"/>
</svg>
