<svg width="24" height="24" viewBox="0 0 24 24" fill="none" xmlns="http://www.w3.org/2000/svg">
<g filter="url(#filter0_d_1511_21610)">
<path d="M7.48337 5.25929C6.33894 5.3872 5.42289 6.29045 5.29048 7.42255C4.93479 10.4637 4.93479 13.5359 5.29048 16.5771C5.42289 17.7092 6.33894 18.6124 7.48337 18.7404C10.4602 19.0731 13.5398 19.0731 16.5167 18.7404C17.6611 18.6124 18.5771 17.7092 18.7095 16.5771C18.9651 14.3919 19.0371 12.1907 18.9254 9.99656C18.9225 9.93989 18.9436 9.88462 18.9838 9.84451L20.0225 8.80573C20.1428 8.68549 20.3482 8.76068 20.361 8.93024C20.557 11.5352 20.5032 14.1542 20.1994 16.7513C19.9845 18.5883 18.5096 20.0269 16.6833 20.2311C13.5957 20.5761 10.4043 20.5761 7.31676 20.2311C5.49038 20.0269 4.01548 18.5883 3.80064 16.7513C3.4314 13.5944 3.4314 10.4052 3.80064 7.2483C4.01548 5.41134 5.49038 3.9727 7.31676 3.76858C10.4043 3.4235 13.5957 3.4235 16.6833 3.76858C17.3265 3.84047 17.9262 4.0655 18.4425 4.40713C18.5441 4.47436 18.5542 4.6172 18.4681 4.70334L17.6652 5.50623C17.5995 5.5719 17.4976 5.58295 17.4158 5.53908C17.1424 5.39259 16.8386 5.29527 16.5167 5.25929C13.5398 4.92659 10.4602 4.92659 7.48337 5.25929Z" fill="white"/>
<path d="M21.0303 6.03015C21.3232 5.73726 21.3232 5.26239 21.0303 4.96949C20.7374 4.6766 20.2626 4.6766 19.9697 4.96949L11.5 13.4392L9.03033 10.9695C8.73744 10.6766 8.26256 10.6766 7.96967 10.9695C7.67678 11.2624 7.67678 11.7373 7.96967 12.0302L10.9697 15.0302C11.2626 15.323 11.7374 15.323 12.0303 15.0302L21.0303 6.03015Z" fill="white"/>
</g>
<defs>
<filter id="filter0_d_1511_21610" x="2.52371" y="3.50977" width="19.7263" height="18.98" filterUnits="userSpaceOnUse" color-interpolation-filters="sRGB">
<feFlood flood-opacity="0" result="BackgroundImageFix"/>
<feColorMatrix in="SourceAlpha" type="matrix" values="0 0 0 0 0 0 0 0 0 0 0 0 0 0 0 0 0 0 127 0" result="hardAlpha"/>
<feOffset dy="1"/>
<feGaussianBlur stdDeviation="0.5"/>
<feComposite in2="hardAlpha" operator="out"/>
<feColorMatrix type="matrix" values="0 0 0 0 0 0 0 0 0 0 0 0 0 0 0 0 0 0 0.15 0"/>
<feBlend mode="normal" in2="BackgroundImageFix" result="effect1_dropShadow_1511_21610"/>
<feBlend mode="normal" in="SourceGraphic" in2="effect1_dropShadow_1511_21610" result="shape"/>
</filter>
</defs>
</svg>
