<svg width="28" height="28" viewBox="0 0 28 28" fill="none" xmlns="http://www.w3.org/2000/svg">
<path fill-rule="evenodd" clip-rule="evenodd" d="M20.9834 6.32764C16.3422 5.80892 11.6576 5.80892 7.01641 6.32764C6.70238 6.36274 6.55116 6.731 6.74989 6.97667L10.8531 12.0488C12.323 13.8658 13.1249 16.1321 13.1249 18.4692V21.84L14.8749 23.1233V18.4692C14.8749 16.1321 15.6768 13.8658 17.1467 12.0488L21.2499 6.97666C21.4486 6.731 21.2974 6.36274 20.9834 6.32764ZM6.82204 4.58847C11.5924 4.05531 16.4074 4.05531 21.1777 4.58847C22.8658 4.77714 23.6787 6.75672 22.6104 8.0773L18.5072 13.1494C17.2893 14.6549 16.6249 16.5328 16.6249 18.4692V24.85C16.6249 25.1798 16.4395 25.4815 16.1454 25.6305C15.8513 25.7796 15.4983 25.7506 15.2324 25.5556L11.7324 22.989C11.5077 22.8241 11.3749 22.5621 11.3749 22.2834V18.4692C11.3749 16.5328 10.7104 14.6549 9.49253 13.1494L5.38934 8.07731C4.32104 6.75673 5.13395 4.77714 6.82204 4.58847Z" fill="white"/>
</svg>
