<svg width="25" height="24" viewBox="0 0 25 24" fill="none" xmlns="http://www.w3.org/2000/svg">
<g filter="url(#filter0_d_2466_8415)">
<path fill-rule="evenodd" clip-rule="evenodd" d="M10.7567 1.50804C10.9384 1.29895 11.2206 1.20705 11.4906 1.26904C15.0994 2.09755 16.9235 6.05217 16.4945 9.5903C16.3278 10.9657 15.9158 12.0439 15.3092 12.9018C15.3055 12.9071 15.3017 12.9123 15.298 12.9175C15.4358 12.8498 15.5629 12.7767 15.6819 12.6995C16.2738 12.3153 16.7083 11.8083 17.2739 11.1481C17.3423 11.0683 17.4126 10.9863 17.4853 10.902C17.6487 10.7125 17.8959 10.6169 18.1442 10.6473C18.3926 10.6776 18.6095 10.8299 18.7225 11.0531C19.22 12.0363 19.5 13.1479 19.5 14.3226C19.5 18.3267 16.2541 21.5726 12.25 21.5726C8.24594 21.5726 5 18.3267 5 14.3226C5 11.7856 6.30371 9.5535 8.27431 8.25906L8.34187 8.19098C8.37658 8.15601 8.41464 8.12454 8.45552 8.09703C9.32138 7.5144 9.94312 7.03786 10.3617 6.47743C10.7571 5.94801 11 5.3022 11 4.32264C11 3.59736 10.8661 2.90512 10.6223 2.26809C10.5233 2.00936 10.5749 1.71713 10.7567 1.50804ZM12.4212 3.25081C12.4731 3.60079 12.5 3.95872 12.5 4.32264C12.5 5.59106 12.1723 6.55995 11.5635 7.37505C10.9917 8.14054 10.2003 8.72847 9.35466 9.2999L9.28236 9.37275C9.24362 9.41179 9.20071 9.44644 9.15439 9.4761C7.55648 10.4991 6.5 12.2877 6.5 14.3226C6.5 17.4983 9.07436 20.0726 12.25 20.0726C15.4256 20.0726 18 17.4983 18 14.3226C18 13.8028 17.9312 13.2997 17.8023 12.8217C17.4221 13.2334 17.0024 13.6307 16.4985 13.9577C15.5753 14.5569 14.4199 14.899 12.75 14.899C12.4077 14.899 12.1089 14.6673 12.0236 14.3358C11.9384 14.0044 12.0883 13.6572 12.3881 13.4921C13.0669 13.1181 13.6423 12.661 14.0845 12.0357C14.5257 11.4118 14.8637 10.5787 15.0055 9.40975C15.3123 6.879 14.2649 4.38107 12.4212 3.25081Z" fill="white"/>
</g>
<defs>
<filter id="filter0_d_2466_8415" x="4" y="1.25" width="16.5" height="22.3223" filterUnits="userSpaceOnUse" color-interpolation-filters="sRGB">
<feFlood flood-opacity="0" result="BackgroundImageFix"/>
<feColorMatrix in="SourceAlpha" type="matrix" values="0 0 0 0 0 0 0 0 0 0 0 0 0 0 0 0 0 0 127 0" result="hardAlpha"/>
<feOffset dy="1"/>
<feGaussianBlur stdDeviation="0.5"/>
<feComposite in2="hardAlpha" operator="out"/>
<feColorMatrix type="matrix" values="0 0 0 0 0 0 0 0 0 0 0 0 0 0 0 0 0 0 0.15 0"/>
<feBlend mode="normal" in2="BackgroundImageFix" result="effect1_dropShadow_2466_8415"/>
<feBlend mode="normal" in="SourceGraphic" in2="effect1_dropShadow_2466_8415" result="shape"/>
</filter>
</defs>
</svg>
