<svg width="25" height="24" viewBox="0 0 25 24" fill="none" xmlns="http://www.w3.org/2000/svg">
<g filter="url(#filter0_d_1793_53289)">
<path fill-rule="evenodd" clip-rule="evenodd" d="M2.96013 16.8191C2.73855 16.5893 2.68669 16.2444 2.83089 15.9596L3.53239 14.5743C5.19266 11.2954 8.55561 9.2288 12.2308 9.2288H12.5757C12.6009 8.68242 12.6333 8.1363 12.6731 7.59057L12.741 6.65993C12.7961 5.90311 13.64 5.48004 14.2794 5.88863C16.3771 7.22899 18.2007 8.95608 19.653 10.9778L20.1091 11.6128C20.297 11.8742 20.297 12.2264 20.1091 12.4879L19.653 13.1228C18.2007 15.1446 16.3771 16.8717 14.2794 18.212C13.64 18.6206 12.7961 18.1976 12.741 17.4407L12.6731 16.5101C12.6256 15.8584 12.5885 15.2061 12.5619 14.5535C10.4121 14.4914 8.26485 14.9253 6.29148 15.8361L3.81429 16.9794C3.52446 17.1132 3.18171 17.0488 2.96013 16.8191ZM5.17837 14.6978L5.6629 14.4742C8.07404 13.3613 10.7196 12.8915 13.3447 13.0932C13.727 13.1225 14.0256 13.4355 14.0369 13.8188C14.0624 14.6802 14.1065 15.5411 14.1692 16.401L14.1746 16.4755C15.818 15.3138 17.2583 13.8855 18.4348 12.2477L18.5765 12.0503L18.4348 11.853C17.2583 10.2152 15.818 8.78683 14.1746 7.62517L14.1692 7.69962C14.1132 8.46723 14.0721 9.23565 14.0458 10.0044C14.032 10.4084 13.7004 10.7288 13.2962 10.7288L12.2308 10.7288C9.33351 10.7288 6.66554 12.2467 5.17837 14.6978Z" fill="white"/>
</g>
<defs>
<filter id="filter0_d_1793_53289" x="1.74998" y="5.72974" width="19.5" height="14.6411" filterUnits="userSpaceOnUse" color-interpolation-filters="sRGB">
<feFlood flood-opacity="0" result="BackgroundImageFix"/>
<feColorMatrix in="SourceAlpha" type="matrix" values="0 0 0 0 0 0 0 0 0 0 0 0 0 0 0 0 0 0 127 0" result="hardAlpha"/>
<feOffset dy="1"/>
<feGaussianBlur stdDeviation="0.5"/>
<feComposite in2="hardAlpha" operator="out"/>
<feColorMatrix type="matrix" values="0 0 0 0 0 0 0 0 0 0 0 0 0 0 0 0 0 0 0.15 0"/>
<feBlend mode="normal" in2="BackgroundImageFix" result="effect1_dropShadow_1793_53289"/>
<feBlend mode="normal" in="SourceGraphic" in2="effect1_dropShadow_1793_53289" result="shape"/>
</filter>
</defs>
</svg>
