<svg width="25" height="24" viewBox="0 0 25 24" fill="none" xmlns="http://www.w3.org/2000/svg">
<path fill-rule="evenodd" clip-rule="evenodd" d="M14.1138 2.30996C14.3904 2.42774 14.57 2.69935 14.57 3.00002V9.99821H18.5C18.7667 9.99821 19.0133 10.1398 19.1478 10.3702C19.2822 10.6005 19.2842 10.885 19.153 11.1172L18.6609 11.988C16.7948 15.2907 14.4149 18.2753 11.6106 20.8298L10.8151 21.5545C10.5955 21.7545 10.2786 21.8061 10.0069 21.6861C9.73526 21.566 9.56 21.297 9.56 21V14.0612H5.5C5.08579 14.0612 4.75 13.7254 4.75 13.3112C4.75 13.177 4.78523 13.0511 4.84693 12.9421C6.60572 9.69066 8.8575 6.73119 11.5222 4.16896L13.3002 2.45939C13.5169 2.251 13.8371 2.19218 14.1138 2.30996ZM6.78458 12.5612H10.31C10.7242 12.5612 11.06 12.8969 11.06 13.3112V19.2945C13.4786 17.009 15.5517 14.3827 17.2134 11.4982H13.82C13.4058 11.4982 13.07 11.1624 13.07 10.7482V4.76164L12.5619 5.25021C10.3111 7.41442 8.36782 9.87444 6.78458 12.5612Z" fill="white"/>
</svg>
