<svg width="24" height="24" viewBox="0 0 24 24" fill="none" xmlns="http://www.w3.org/2000/svg">
<path d="M10.4998 16.0001C10.4998 15.1717 11.1714 14.5001 11.9998 14.5001C12.8283 14.5001 13.4998 15.1717 13.4998 16.0001C13.4998 16.8285 12.8283 17.5001 11.9998 17.5001C11.1714 17.5001 10.4998 16.8285 10.4998 16.0001Z" fill="#9D69DE"/>
<path fill-rule="evenodd" clip-rule="evenodd" d="M9.81034 4.00509C10.0427 3.91258 10.2851 3.84763 10.5326 3.81157C12.0058 3.5969 13.4325 4.42673 13.9743 5.81347L14.0493 6.00549C14.1423 6.24343 14.2086 6.49092 14.2471 6.74346L14.4637 8.16577L15.9466 7.93992L15.73 6.51761C15.6748 6.15557 15.5797 5.80075 15.4465 5.45964L15.3715 5.26761C14.5757 3.23078 12.4802 2.01194 10.3163 2.32724C9.9528 2.38021 9.59676 2.47561 9.25548 2.61149C7.22382 3.42038 6.01852 5.52367 6.34777 7.6855L6.37881 7.88931C6.43396 8.25135 6.52903 8.60617 6.6623 8.94728L7.31644 10.6216L6.93497 10.6521C5.85224 10.7385 4.96814 11.5524 4.79262 12.6243C4.42655 14.86 4.42655 17.1403 4.79262 19.3759C4.96814 20.4478 5.85224 21.2617 6.93497 21.3482L8.4311 21.4676C10.8065 21.6572 13.1932 21.6572 15.5686 21.4676L17.0647 21.3482C18.1474 21.2617 19.0316 20.4478 19.2071 19.3759C19.5731 17.1403 19.5731 14.86 19.2071 12.6243C19.0316 11.5524 18.1474 10.7385 17.0647 10.6521L15.5686 10.5326C13.3425 10.3549 11.1064 10.3437 8.87901 10.4991L8.05945 8.40142C7.96649 8.16349 7.90018 7.91599 7.86171 7.66346L7.83067 7.45965C7.60651 5.9878 8.42712 4.55582 9.81034 4.00509ZM15.4492 12.0279C13.1533 11.8446 10.8464 11.8446 8.55047 12.0279L7.05434 12.1473C6.65941 12.1788 6.33693 12.4757 6.27291 12.8667C5.93312 14.9418 5.93312 17.0584 6.27291 19.1335C6.33693 19.5245 6.65941 19.8214 7.05434 19.8529L8.55047 19.9724C10.8464 20.1556 13.1533 20.1556 15.4492 19.9724L16.9454 19.8529C17.3403 19.8214 17.6628 19.5245 17.7268 19.1335C18.0666 17.0584 18.0666 14.9418 17.7268 12.8667C17.6628 12.4757 17.3403 12.1788 16.9454 12.1473L15.4492 12.0279Z" fill="#9D69DE"/>
</svg>
