<svg width="32" height="32" viewBox="0 0 32 32" fill="none" xmlns="http://www.w3.org/2000/svg">
<path d="M12.0002 4.3335C7.76598 4.3335 4.3335 7.76598 4.3335 12.0002V21.476C4.3335 22.0283 4.78121 22.476 5.3335 22.476C5.88578 22.476 6.3335 22.0283 6.3335 21.476V12.0002C6.3335 8.87055 8.87055 6.3335 12.0002 6.3335H21.3506C21.9029 6.3335 22.3506 5.88578 22.3506 5.3335C22.3506 4.78121 21.9029 4.3335 21.3506 4.3335H12.0002Z" fill="#8F00FF"/>
<path fill-rule="evenodd" clip-rule="evenodd" d="M24.5369 9.05784C20.2156 8.57488 15.7847 8.57488 11.4635 9.05784C10.2324 9.19543 9.24318 10.1642 9.09809 11.4048C8.58558 15.7868 8.58558 20.2135 9.09809 24.5955C9.24318 25.8361 10.2324 26.8049 11.4635 26.9425C15.7847 27.4254 20.2156 27.4254 24.5369 26.9425C25.7679 26.8049 26.7572 25.8361 26.9023 24.5955C27.4148 20.2135 27.4148 15.7868 26.9023 11.4048C26.7572 10.1642 25.7679 9.19543 24.5369 9.05784ZM11.6856 11.0455C15.8592 10.579 20.1411 10.579 24.3148 11.0455C24.6312 11.0808 24.88 11.3311 24.9158 11.6371C25.4103 15.8647 25.4103 20.1356 24.9158 24.3632C24.88 24.6692 24.6312 24.9195 24.3148 24.9549C20.1411 25.4213 15.8592 25.4213 11.6856 24.9549C11.3691 24.9195 11.1203 24.6692 11.0845 24.3632C10.5901 20.1356 10.5901 15.8647 11.0845 11.6371C11.1203 11.3311 11.3691 11.0808 11.6856 11.0455Z" fill="#8F00FF"/>
</svg>
