<svg width="24" height="24" viewBox="0 0 24 24" fill="none" xmlns="http://www.w3.org/2000/svg">
<g filter="url(#filter0_d_2466_7941)">
<path fill-rule="evenodd" clip-rule="evenodd" d="M10.7379 16.6272C9.96427 16.6272 9.31895 16.0359 9.2514 15.2653C9.11015 13.654 9.07441 12.0355 9.14427 10.4202C9.05994 10.4146 8.97563 10.4087 8.89133 10.4025L7.40178 10.294C6.44973 10.2246 5.91752 9.163 6.43151 8.35862C7.5277 6.6431 9.53693 4.72305 11.1904 3.53532C11.6742 3.18777 12.3258 3.18777 12.8097 3.53532C14.4631 4.72305 16.4723 6.6431 17.5685 8.35861C18.0825 9.163 17.5503 10.2246 16.5983 10.294L15.1087 10.4025C15.0244 10.4087 14.9401 10.4146 14.8558 10.4202C14.9256 12.0355 14.8899 13.654 14.7486 15.2653C14.6811 16.0359 14.0358 16.6272 13.2622 16.6272H10.7379ZM10.6815 9.76244C10.5678 11.5497 10.589 13.343 10.745 15.1272H13.255C13.411 13.343 13.4323 11.5497 13.3186 9.76244C13.3058 9.56207 13.3739 9.36496 13.5077 9.21522C13.6414 9.06547 13.8296 8.9756 14.0301 8.96573C14.3535 8.9498 14.6767 8.93006 14.9997 8.90652L16.0815 8.82766C15.1219 7.41436 13.9204 6.18011 12.5313 5.18226L12 4.80062L11.4687 5.18226C10.0796 6.18011 8.87813 7.41436 7.91858 8.82766L9.00038 8.90652C9.32337 8.93006 9.64656 8.9498 9.9699 8.96573C10.1704 8.97561 10.3586 9.06547 10.4924 9.21522C10.6261 9.36496 10.6942 9.56207 10.6815 9.76244Z" fill="white"/>
<path d="M5.75 16.9999C5.75 16.5857 5.41421 16.2499 5 16.2499C4.58579 16.2499 4.25 16.5857 4.25 16.9999V18.9999C4.25 19.9664 5.0335 20.7499 6 20.7499H18C18.9665 20.7499 19.75 19.9664 19.75 18.9999V16.9999C19.75 16.5857 19.4142 16.2499 19 16.2499C18.5858 16.2499 18.25 16.5857 18.25 16.9999V18.9999C18.25 19.138 18.1381 19.2499 18 19.2499H6C5.86193 19.2499 5.75 19.138 5.75 18.9999V16.9999Z" fill="white"/>
</g>
<defs>
<filter id="filter0_d_2466_7941" x="3.25" y="3.27466" width="17.5" height="19.4753" filterUnits="userSpaceOnUse" color-interpolation-filters="sRGB">
<feFlood flood-opacity="0" result="BackgroundImageFix"/>
<feColorMatrix in="SourceAlpha" type="matrix" values="0 0 0 0 0 0 0 0 0 0 0 0 0 0 0 0 0 0 127 0" result="hardAlpha"/>
<feOffset dy="1"/>
<feGaussianBlur stdDeviation="0.5"/>
<feComposite in2="hardAlpha" operator="out"/>
<feColorMatrix type="matrix" values="0 0 0 0 0 0 0 0 0 0 0 0 0 0 0 0 0 0 0.15 0"/>
<feBlend mode="normal" in2="BackgroundImageFix" result="effect1_dropShadow_2466_7941"/>
<feBlend mode="normal" in="SourceGraphic" in2="effect1_dropShadow_2466_7941" result="shape"/>
</filter>
</defs>
</svg>
