<svg width="25" height="24" viewBox="0 0 25 24" fill="none" xmlns="http://www.w3.org/2000/svg">
<path fill-rule="evenodd" clip-rule="evenodd" d="M2.75 12C2.75 6.61554 7.11554 2.25 12.5 2.25C15.0699 2.25 17.4004 3.25246 19.1394 4.87324C19.2883 5.01197 19.3744 5.20524 19.378 5.4087C19.3816 5.61216 19.3023 5.80834 19.1584 5.95223L16.6128 8.49788C16.3319 8.77876 15.8807 8.79193 15.584 8.52792C14.7608 7.79565 13.6837 7.35 12.5 7.35C9.93206 7.35 7.85 9.43206 7.85 12C7.85 14.5679 9.93206 16.65 12.5 16.65C14.1238 16.65 15.5521 15.8153 16.3828 14.55H12.5C12.0858 14.55 11.75 14.2142 11.75 13.8V10.2C11.75 9.78579 12.0858 9.45 12.5 9.45H21.3249C21.683 9.45 21.9911 9.70305 22.0607 10.0543C22.1832 10.6728 22.25 11.348 22.25 12C22.25 17.3845 17.8845 21.75 12.5 21.75C7.11554 21.75 2.75 17.3845 2.75 12ZM12.5 3.75C7.94396 3.75 4.25 7.44396 4.25 12C4.25 16.556 7.94396 20.25 12.5 20.25C17.056 20.25 20.75 16.556 20.75 12C20.75 11.6525 20.7275 11.2961 20.6853 10.95H13.25V13.05H17.5864C17.8299 13.05 18.0583 13.1683 18.1988 13.3671C18.3394 13.566 18.3746 13.8208 18.2933 14.0503C17.4491 16.4346 15.1795 18.15 12.5 18.15C9.10364 18.15 6.35 15.3964 6.35 12C6.35 8.60364 9.10364 5.85 12.5 5.85C13.8133 5.85 15.0272 6.26519 16.0236 6.96571L17.5229 5.46644C16.1306 4.39163 14.3918 3.75 12.5 3.75Z" fill="#9D69DE"/>
</svg>
