<svg width="25" height="24" viewBox="0 0 25 24" fill="none" xmlns="http://www.w3.org/2000/svg">
<path fill-rule="evenodd" clip-rule="evenodd" d="M15.5215 3.34352C16.0299 3.25644 16.5992 3.22736 17.135 3.31801C18.0918 3.47989 18.9757 3.92462 19.6744 4.59138C20.1311 4.60171 20.5799 4.51173 20.977 4.38347C21.3131 4.27492 21.597 4.14385 21.796 4.04021C21.8949 3.98868 21.9713 3.94472 22.021 3.91496C22.0458 3.90011 22.0638 3.88886 22.0745 3.88207L22.0841 3.87601C22.3809 3.67828 22.7761 3.71677 23.029 3.96827C23.2819 4.21984 23.3226 4.61476 23.1264 4.91266C22.9187 5.22795 22.6303 5.79002 22.3073 6.41978C22.2565 6.5188 22.2048 6.61949 22.1525 6.72116C21.9672 7.08113 21.7772 7.44494 21.6001 7.75707C21.4889 7.95306 21.37 8.15204 21.2501 8.32398V8.59775C21.2577 9.60338 21.1424 10.6038 20.9083 11.577C20.761 12.1893 20.5667 12.7909 20.3265 13.3763C19.7041 14.893 18.7857 16.2704 17.6249 17.4282C16.4642 18.5859 15.0844 19.5008 13.5662 20.1193C12.0492 20.7373 10.4245 21.0471 8.78665 21.0306C6.41234 21.0327 4.08798 20.3486 2.09326 19.0607C1.79945 18.871 1.67576 18.5035 1.79509 18.1747C1.91443 17.846 2.24512 17.6434 2.59219 17.6863C2.89255 17.7235 3.19496 17.7416 3.49762 17.7407C4.58507 17.7376 5.65181 17.4973 6.62567 17.0447C6.31612 16.9038 6.02058 16.73 5.74443 16.5253C4.93271 15.9234 4.3288 15.0834 4.01673 14.1223C3.93564 13.8725 3.99108 13.5985 4.16289 13.3999C4.16597 13.3964 4.16908 13.3929 4.17221 13.3894C3.98869 13.2257 3.81696 13.0475 3.65886 12.8559C2.94754 11.9937 2.55587 10.9123 2.55009 9.79453L2.55007 9.79065L2.55008 9.74065C2.55008 9.47478 2.69083 9.22879 2.92003 9.09407C2.97813 9.05992 3.03972 9.03421 3.10307 9.01697C2.76473 8.34189 2.58879 7.59644 2.59007 6.84018C2.58968 5.98342 2.81347 5.14145 3.23923 4.39795C3.36214 4.18331 3.58297 4.04307 3.8295 4.0231C4.07603 4.00312 4.31656 4.10598 4.47242 4.29802C5.43498 5.48403 6.63626 6.45429 7.99825 7.14576C8.69839 7.50121 9.43294 7.77891 10.1887 7.97534C10.6125 8.08547 11.0429 8.17006 11.4777 8.22849C11.4585 7.50523 11.6013 6.78236 11.9011 6.11443C12.3407 5.1346 13.0932 4.32843 14.0404 3.82233C14.4416 3.60801 14.9741 3.43729 15.5215 3.34352ZM4.24335 10.891C4.373 11.2559 4.56586 11.5982 4.81592 11.9013C5.30724 12.4969 5.98919 12.9044 6.74641 13.0551C7.08369 13.1222 7.33213 13.41 7.34916 13.7535C7.36618 14.097 7.14743 14.408 6.81843 14.5082C6.54594 14.5911 6.26676 14.6489 5.98441 14.681C6.17099 14.9215 6.39047 15.1369 6.63787 15.3204C7.19906 15.7365 7.876 15.9673 8.57451 15.9808C8.89143 15.9869 9.1703 16.1916 9.27112 16.4921C9.37195 16.7926 9.27296 17.124 9.02386 17.3201C7.97469 18.1456 6.76149 18.7213 5.47594 19.0151C6.54142 19.3564 7.65887 19.532 8.78916 19.5306L8.79786 19.5306C10.2379 19.5456 11.6665 19.2735 13.0002 18.7302C14.3339 18.1868 15.546 17.3832 16.5656 16.3661C17.5853 15.3491 18.392 14.1391 18.9388 12.8068C19.1498 12.2926 19.3205 11.7641 19.4499 11.2262C19.6557 10.3704 19.757 9.49078 19.7501 8.60651L19.7501 8.60065V8.07065C19.7501 7.88879 19.8161 7.71314 19.936 7.57636C20.0053 7.49732 20.1264 7.31476 20.2955 7.01686C20.4561 6.73374 20.6339 6.39383 20.8188 6.03465C20.83 6.01293 20.8412 5.99109 20.8525 5.96915C20.3729 6.0733 19.8293 6.12789 19.2595 6.06631C19.079 6.0468 18.9118 5.96252 18.7887 5.82908C18.2858 5.28374 17.6162 4.92073 16.8848 4.79699C16.5602 4.74209 16.1679 4.75465 15.7748 4.82199C15.3477 4.89515 14.976 5.02317 14.7473 5.14534C14.093 5.49491 13.5733 6.05175 13.2696 6.72854C12.9659 7.40533 12.8954 8.16377 13.0692 8.88493C13.1246 9.11484 13.0683 9.35742 12.9174 9.53945C12.7664 9.72148 12.5384 9.82164 12.3022 9.80969C11.4588 9.76703 10.6243 9.63838 9.81142 9.42711C8.95152 9.20362 8.11579 8.88767 7.31921 8.48326C6.14643 7.88785 5.07838 7.11075 4.15354 6.18306C4.11135 6.39868 4.08993 6.6187 4.09008 6.84015L4.09007 6.84207C4.08903 7.39279 4.22418 7.93522 4.48349 8.42107C4.7428 8.90692 5.11822 9.32111 5.57633 9.62676C5.85436 9.81226 5.97608 10.1593 5.87483 10.4779C5.77358 10.7964 5.47378 11.0095 5.13968 11.0004C4.83708 10.9921 4.53702 10.9553 4.24335 10.891Z" fill="#9D69DE"/>
</svg>
