<svg width="36" height="36" viewBox="0 0 36 36" fill="none" xmlns="http://www.w3.org/2000/svg">
<rect width="36" height="36" rx="18" fill="white"/>
<path d="M7.81204 17.2245C7.86288 17.0866 8.05719 17.0866 8.10803 17.2245L8.2332 17.5642C8.24918 17.6075 8.28324 17.6417 8.32643 17.6578L8.66469 17.7834C8.80207 17.8345 8.80207 18.0295 8.66469 18.0806L8.32643 18.2063C8.28324 18.2223 8.24918 18.2565 8.2332 18.2999L8.10803 18.6395C8.05719 18.7774 7.86288 18.7774 7.81204 18.6395L7.68687 18.2999C7.67089 18.2565 7.63684 18.2223 7.59364 18.2063L7.25538 18.0806C7.118 18.0295 7.118 17.8345 7.25538 17.7834L7.59364 17.6578C7.63684 17.6417 7.67089 17.6075 7.68687 17.5642L7.81204 17.2245Z" fill="#370063"/>
<path d="M28.7701 21.1916C28.8354 21.0143 29.0853 21.0143 29.1506 21.1916L29.3115 21.6282C29.3321 21.684 29.3759 21.728 29.4314 21.7486L29.8663 21.9102C30.043 21.9758 30.043 22.2266 29.8663 22.2922L29.4314 22.4538C29.3759 22.4744 29.3321 22.5184 29.3115 22.5741L29.1506 23.0108C29.0853 23.1881 28.8354 23.1881 28.7701 23.0108L28.6091 22.5741C28.5886 22.5184 28.5448 22.4744 28.4893 22.4538L28.0544 22.2922C27.8777 22.2266 27.8777 21.9758 28.0544 21.9102L28.4893 21.7486C28.5448 21.728 28.5886 21.684 28.6091 21.6282L28.7701 21.1916Z" fill="#370063"/>
<path d="M21.5757 6.16256C21.6556 5.94581 21.961 5.94581 22.0409 6.16256L22.2375 6.69623C22.2627 6.76438 22.3162 6.81811 22.3841 6.84332L22.9156 7.0408C23.1315 7.121 23.1315 7.42757 22.9156 7.50777L22.3841 7.70525C22.3162 7.73046 22.2627 7.78419 22.2375 7.85234L22.0409 8.38601C21.961 8.60276 21.6556 8.60275 21.5757 8.38601L21.379 7.85234C21.3539 7.78419 21.3004 7.73046 21.2325 7.70525L20.701 7.50777C20.4851 7.42757 20.4851 7.121 20.701 7.0408L21.2325 6.84332C21.3004 6.81811 21.3539 6.76438 21.379 6.69623L21.5757 6.16256Z" fill="#370063"/>
<path fill-rule="evenodd" clip-rule="evenodd" d="M7.39768 29.2916C7.33966 29.5148 7.45585 29.7465 7.66952 29.8336C7.88319 29.9207 8.12841 29.8364 8.24323 29.6364L8.24373 29.6355L8.24759 29.6289L8.26543 29.599C8.28184 29.5718 8.30727 29.5302 8.34184 29.4756C8.41098 29.3665 8.51662 29.2053 8.65956 29.0026C8.94552 28.5969 9.3803 28.0254 9.97033 27.3708C10.7716 26.4818 11.8569 25.4422 13.2424 24.4568C12.9375 24.9539 12.623 25.5412 12.3301 26.2205C12.2409 26.4275 12.3148 26.6687 12.5048 26.7903C12.6948 26.9119 12.945 26.8781 13.0958 26.7104L13.0965 26.7096L13.1003 26.7055L13.1166 26.6877C13.1313 26.6717 13.1537 26.6476 13.1831 26.6164C13.242 26.5539 13.329 26.4632 13.4399 26.352C13.6619 26.1294 13.9778 25.8266 14.3527 25.5063C14.7812 25.1403 15.2712 24.765 15.7754 24.4592C15.6775 24.7089 15.5719 25.0049 15.4594 25.3559C15.3894 25.5744 15.4911 25.8111 15.6979 25.9109C15.9026 26.0096 16.1484 25.9443 16.2772 25.758L16.2792 25.7553C16.2834 25.7498 16.2927 25.7379 16.3079 25.7201C16.3384 25.6846 16.3929 25.6252 16.4784 25.5458C16.6494 25.3871 16.9448 25.1478 17.4204 24.8589C18.3723 24.2806 20.0433 23.5053 22.8743 22.7798C25.8743 22.011 27.3303 20.3752 28.0173 18.8934C28.3566 18.1616 28.5028 17.48 28.5644 16.9803C28.5953 16.73 28.6051 16.5238 28.607 16.3777C28.608 16.3046 28.607 16.2464 28.6057 16.205L28.6044 16.1719L28.6068 16.1329C28.6093 16.0879 28.612 16.0243 28.6131 15.9444C28.6152 15.7848 28.6111 15.5595 28.5866 15.2884C28.5378 14.7481 28.4071 14.0151 28.0759 13.2553C27.4005 11.7059 25.9151 10.1081 22.8014 9.75888C19.66 9.40659 16.996 11.0504 15.0465 12.8966C13.0902 14.7492 11.7795 16.8734 11.3279 17.6457C11.2184 17.8328 11.2544 18.0709 11.4144 18.2174C11.5743 18.3638 11.8148 18.3789 11.9918 18.2537L11.9919 18.2536L11.9928 18.253L11.9972 18.2499L12.0157 18.237C12.0323 18.2255 12.0571 18.2083 12.0891 18.1867C12.1529 18.1432 12.245 18.0817 12.3564 18.0101C12.4835 17.9284 12.6339 17.8348 12.795 17.7407C12.572 17.9517 12.3299 18.1876 12.0769 18.4448C10.9788 19.5617 9.65292 21.103 8.81302 22.756C8.71343 22.952 8.76641 23.191 8.93952 23.3267C9.11262 23.4623 9.35753 23.4567 9.52428 23.3134L9.5243 23.3134L9.52432 23.3133L9.52449 23.3132L9.52556 23.3123L9.53032 23.3082L9.55008 23.2914C9.56768 23.2765 9.59399 23.2542 9.62811 23.2257C9.69637 23.1687 9.79575 23.0866 9.91906 22.9872C10.1631 22.7905 10.4992 22.5278 10.8721 22.2591C10.7699 22.3917 10.6656 22.5307 10.5596 22.6759C9.44081 24.2093 8.13555 26.4534 7.39768 29.2916Z" fill="#370063"/>
<path d="M13.9986 14.628C13.9986 14.628 13.7772 14.9078 13.4689 15.3168C13.3436 15.4832 13.2348 15.6315 13.143 15.7654C12.8514 16.191 13.5804 15.1271 14.0482 15.7063C14.5161 16.2856 13.4097 16.7386 13.8523 16.5574C13.9495 16.5176 14.0615 16.4729 14.1917 16.4233C14.4878 16.3307 14.7889 16.2054 14.9442 16.1852C15.0996 16.165 15.2127 16.1182 15.2693 16.2322C15.3039 16.3018 15.2358 16.3783 15.0996 16.5312L13.2879 18.5641C12.7102 19.2124 12.4213 19.5365 12.53 19.6864C12.6387 19.8363 13.0388 19.6622 13.8392 19.314C14.1385 19.1838 14.4376 19.0565 14.7102 18.9452C14.9865 18.8324 15.1246 18.7759 15.1783 18.8448C15.2319 18.9137 15.1424 19.0348 14.9633 19.277C14.5827 19.7918 13.9871 20.6013 13.2922 21.5593C12.6972 22.3796 12.3997 22.7898 12.524 22.9281C12.6482 23.0664 13.0945 22.8115 13.9872 22.3016C14.7236 21.8809 15.5567 21.4458 16.3461 21.1243C16.6075 21.0178 16.7382 20.9646 16.7921 21.0304C16.8459 21.0963 16.766 21.2161 16.6061 21.4558C16.4372 21.7089 16.2352 22.0187 16.0458 22.3266C15.8117 22.7071 15.6947 22.8973 15.8116 23.0254C15.9284 23.1534 16.1353 23.0512 16.5492 22.8467L17.6319 22.3117C17.851 22.2035 17.9605 22.1493 18.0186 22.2014C18.0766 22.2535 18.0345 22.3682 17.9503 22.5974L17.855 22.8565C17.7051 23.2645 17.6301 23.4685 17.7314 23.5724C17.8327 23.6763 18.0407 23.606 18.4566 23.4654C19.3007 23.1803 20.591 22.774 21.8363 22.4994C23.9363 22.0364 24.9938 21.3288 24.9938 21.3288C24.9938 21.3288 26.0448 20.7533 26.9518 19.7175C27.7581 18.7967 28.2544 17.2091 28.2051 16.3323C28.1558 15.4555 28.3825 13.4753 26.2925 11.505C24.2024 9.5347 20.1702 10.3721 20.1702 10.3721C20.1702 10.3721 17.114 10.8844 13.9986 14.628Z" fill="#8F00FF"/>
<path d="M23.0466 15.69C23.3011 15.69 23.5073 15.4324 23.5073 15.1145C23.5073 14.7967 23.3011 14.5391 23.0466 14.5391C22.7922 14.5391 22.5859 14.7967 22.5859 15.1145C22.5859 15.4324 22.7922 15.69 23.0466 15.69Z" fill="#370063"/>
<path d="M25.8123 15.69C26.0667 15.69 26.273 15.4324 26.273 15.1145C26.273 14.7967 26.0667 14.5391 25.8123 14.5391C25.5578 14.5391 25.3516 14.7967 25.3516 15.1145C25.3516 15.4324 25.5578 15.69 25.8123 15.69Z" fill="#370063"/>
<path fill-rule="evenodd" clip-rule="evenodd" d="M25.7263 16.9722C25.8469 17.121 25.824 17.3394 25.6751 17.4599C25.0287 17.9833 24.395 18.0129 23.9215 17.8937C23.6916 17.8358 23.505 17.7448 23.3758 17.6686C23.1602 17.5413 22.9242 17.2572 23.12 17.0288C23.2441 16.8839 23.4619 16.8665 23.6074 16.9894L23.6107 16.9921C23.6146 16.9952 23.6218 17.0008 23.6321 17.0083C23.6528 17.0234 23.6855 17.046 23.7287 17.0714C23.8158 17.1228 23.9406 17.1834 24.091 17.2212C24.3782 17.2935 24.7811 17.2912 25.2383 16.9211C25.3872 16.8005 25.6057 16.8234 25.7263 16.9722Z" fill="#370063"/>
</svg>
