<svg width="32" height="32" viewBox="0 0 32 32" fill="none" xmlns="http://www.w3.org/2000/svg">
<circle r="16" transform="matrix(-1 0 0 1 16 16)" fill="#EDF0F4"/>
<path d="M16.0446 6.39844L16.1719 6.83078V19.3752L16.0446 19.5022L10.2217 16.0603L16.0446 6.39844Z" fill="#343434"/>
<path d="M16.0442 6.39844L21.8672 16.0603L16.0442 19.5022V13.4135V6.39844Z" fill="#8C8C8C"/>
<path d="M16.0435 20.6042L16.1152 20.6917V25.1602L16.0435 25.3697L10.2171 17.1641L16.0435 20.6042Z" fill="#3C3C3B"/>
<path d="M16.0442 25.3697V20.6042L21.8672 17.1641L16.0442 25.3697Z" fill="#8C8C8C"/>
<path d="M16.0449 19.5028L10.222 16.0608L16.0449 13.4141V19.5028Z" fill="#141414"/>
<path d="M21.8672 16.0608L16.0442 19.5028V13.4141L21.8672 16.0608Z" fill="#393939"/>
</svg>
