<svg width="36" height="36" viewBox="0 0 36 36" fill="none" xmlns="http://www.w3.org/2000/svg">
<g clip-path="url(#clip0_7245_164303)">
<path fill-rule="evenodd" clip-rule="evenodd" d="M35.9998 17.9996C35.9998 27.9407 27.9412 35.9993 18.0002 35.9993C8.05915 35.9993 0 27.9407 0 17.9996C0 8.0586 8.05915 0 18.0002 0C27.9412 0 35.9998 8.0586 35.9998 17.9996Z" fill="#28286E"/>
<path fill-rule="evenodd" clip-rule="evenodd" d="M26.3781 13.1864L25.9204 11.7723C25.8274 11.4847 25.6004 11.2609 25.3117 11.1727L23.8907 10.7357C23.694 10.6756 23.6924 10.3981 23.8875 10.3349L25.3021 9.87717C25.5892 9.78411 25.813 9.55712 25.9018 9.26845L26.3382 7.84747C26.3983 7.65131 26.6758 7.6492 26.7391 7.84481L27.1968 9.2589C27.2898 9.54597 27.5168 9.76975 27.8055 9.85854L29.2264 10.295C29.4231 10.3556 29.4253 10.6326 29.2296 10.6958L27.815 11.1535C27.528 11.2466 27.3042 11.4741 27.2154 11.7627L26.7789 13.1832C26.7189 13.3799 26.4414 13.382 26.3781 13.1864Z" fill="#FAFAFA"/>
<path fill-rule="evenodd" clip-rule="evenodd" d="M1.63672 17.7148C2.06466 16.8764 2.91098 16.2449 3.79026 15.8456C4.67856 15.4506 5.65514 15.2082 6.61415 15.1296C8.55024 14.9547 10.4364 15.2784 12.1545 15.8382C13.0397 16.1018 13.8318 16.4681 14.6499 16.8381C15.0475 17.0295 15.4213 17.2464 15.8062 17.4559L16.8694 18.072C18.0368 18.7875 19.1686 19.4212 20.2318 19.9135C21.2976 20.4015 22.2609 20.7316 23.1689 20.9001C24.0769 21.0708 24.9997 21.0687 26.1347 20.8082C27.2607 20.5535 28.5275 20.0044 29.8517 19.3C31.1839 18.5951 32.5501 17.7307 34.1088 16.886C33.9525 18.6514 33.4528 20.3069 32.6724 21.9054C31.8729 23.4848 30.7608 25.0254 29.1393 26.2731C27.5488 27.5309 25.3644 28.4075 23.1407 28.5393C20.9159 28.6898 18.7996 28.1996 16.9991 27.4623C15.1916 26.7143 13.6298 25.7314 12.2454 24.6464C11.8632 24.3465 11.658 24.1764 11.3757 23.9378L10.5874 23.2472C10.0563 22.8315 9.54169 22.3344 9.01594 21.9224C7.96708 21.0458 6.92938 20.1676 5.79174 19.4063C5.21813 19.0193 4.62648 18.6605 3.95559 18.3426C3.62227 18.1889 3.26822 18.046 2.88812 17.9332C2.49899 17.8062 2.10347 17.7307 1.63672 17.7148Z" fill="#F6643C"/>
<path fill-rule="evenodd" clip-rule="evenodd" d="M1.63672 17.7141C1.85521 15.8976 2.70206 14.1939 4.05924 12.7436C5.40952 11.3072 7.51892 10.1999 9.85959 10.0532C11.0148 9.97606 12.1875 10.1047 13.2656 10.4035C14.3389 10.7012 15.3447 11.135 16.2511 11.6458C16.704 11.9026 17.1277 12.1833 17.5498 12.4666L18.6747 13.3183L20.4306 14.7036C21.5703 15.6111 22.658 16.4505 23.6633 17.1437C24.6781 17.838 25.5425 18.3452 26.3681 18.6423C27.1862 18.9666 28.2197 19.0496 29.5859 18.7061C30.2642 18.5498 30.9718 18.2644 31.7267 17.955C32.4773 17.6381 33.2567 17.2602 34.1088 16.8854C34.0062 17.7987 33.8207 18.7083 33.4682 19.5583C33.1296 20.42 32.6836 21.2632 32.06 22.0494C31.7411 22.4321 31.3992 22.817 31.0005 23.1721C30.6018 23.5188 30.16 23.8478 29.672 24.1365C28.6987 24.7005 27.544 25.1125 26.3596 25.2592C25.1752 25.4081 23.986 25.3337 22.9031 25.104C21.8144 24.8807 20.8224 24.5208 19.9117 24.1051C18.0969 23.2609 16.5786 22.1998 15.2363 21.0765C14.5622 20.5157 13.9301 19.9299 13.3315 19.335L12.6245 18.6253C12.4113 18.4196 12.196 18.2128 11.9828 18.0236C11.1238 17.2639 10.3263 16.6834 9.44813 16.3213C8.5763 15.9423 7.46046 15.7865 6.09156 16.0428C4.72802 16.2963 3.23207 16.8859 1.63672 17.7141Z" fill="#FAFAFA"/>
<path fill-rule="evenodd" clip-rule="evenodd" d="M8.83295 27.0827C8.83295 27.6202 8.39704 28.0561 7.85958 28.0561C7.32212 28.0561 6.88672 27.6202 6.88672 27.0827C6.88672 26.5453 7.32212 26.1094 7.85958 26.1094C8.39704 26.1094 8.83295 26.5453 8.83295 27.0827Z" fill="#28286E"/>
<path fill-rule="evenodd" clip-rule="evenodd" d="M8.83295 27.0827C8.83295 27.6202 8.39704 28.0561 7.85958 28.0561C7.32212 28.0561 6.88672 27.6202 6.88672 27.0827C6.88672 26.5453 7.32212 26.1094 7.85958 26.1094C8.39704 26.1094 8.83295 26.5453 8.83295 27.0827Z" fill="#FAFAFA"/>
</g>
<defs>
<clipPath id="clip0_7245_164303">
<rect width="36" height="36" fill="white"/>
</clipPath>
</defs>
</svg>
