<svg width="32" height="32" viewBox="0 0 32 32" fill="none" xmlns="http://www.w3.org/2000/svg">
<g clip-path="url(#clip0_7137_131535)">
<mask id="mask0_7137_131535" style="mask-type:alpha" maskUnits="userSpaceOnUse" x="0" y="0" width="32" height="32">
<path d="M0 0H32V31.9999H0V0Z" fill="white"/>
</mask>
<g mask="url(#mask0_7137_131535)">
<path fill-rule="evenodd" clip-rule="evenodd" d="M16 0C24.8367 0 32 7.16327 32 16C32 24.836 24.8367 32 16 32C7.16327 32 0 24.836 0 16C0 7.16327 7.16327 0 16 0Z" fill="#2775CA"/>
</g>
<path fill-rule="evenodd" clip-rule="evenodd" d="M12.9999 27.1244C12.9999 27.5007 12.7052 27.7145 12.3412 27.6009C7.50355 26.0576 3.99609 21.5214 3.99609 16.1691C3.99609 10.8169 7.50355 6.28054 12.3412 4.73727C12.7052 4.62436 12.9999 4.83745 12.9999 5.21381V6.1429C12.9999 6.39345 12.8057 6.68836 12.567 6.76999C8.73955 8.17545 5.99773 11.8524 5.99773 16.1627C5.99773 20.4731 8.73955 24.1507 12.567 25.5554C12.8057 25.6434 12.9999 25.9318 12.9999 26.1833V27.1244Z" fill="white"/>
<path fill-rule="evenodd" clip-rule="evenodd" d="M16.9984 23.667C16.9984 23.9433 16.7726 24.1692 16.4966 24.1692H15.4988C15.2228 24.1692 14.997 23.9433 14.997 23.667V22.0861C12.8133 21.7913 11.747 20.5675 11.4582 18.905C11.4079 18.6223 11.6337 18.3652 11.9224 18.3652H13.0644C13.3028 18.3652 13.5037 18.5348 13.5539 18.7728C13.7673 19.7643 14.3382 20.5235 16.0886 20.5235C17.3811 20.5235 18.2975 19.8019 18.2975 18.7232C18.2975 17.6435 17.7577 17.2359 15.8628 16.9219C13.0644 16.5455 11.7406 15.6983 11.7406 13.5023C11.7406 11.8083 13.0208 10.4908 15.0033 10.2083V8.65843C15.0033 8.38225 15.2293 8.15625 15.5051 8.15625H16.503C16.779 8.15625 17.0048 8.38225 17.0048 8.65843V10.2523C18.6173 10.5413 19.64 11.4568 19.9728 12.9752C20.0353 13.2643 19.8095 13.5335 19.5148 13.5335H18.4604C18.2346 13.5335 18.0464 13.3828 17.9775 13.1633C17.6951 12.1975 17.0048 11.7835 15.8062 11.7835C14.4824 11.7835 13.7984 12.4233 13.7984 13.3204C13.7984 14.2679 14.1877 14.7444 16.2208 15.0399C18.9686 15.4163 20.387 16.2004 20.387 18.5413C20.387 20.3168 19.0691 21.7537 17.0048 22.0861V23.667H16.9984Z" fill="white"/>
<path fill-rule="evenodd" clip-rule="evenodd" d="M19.6587 27.6026C19.2951 27.7163 19 27.5024 19 27.1261V26.1977C19 25.9215 19.1695 25.6644 19.4329 25.5699C23.2604 24.1644 26.0022 20.4875 26.0022 16.1772C26.0022 11.8668 23.2604 8.18989 19.4329 6.78444C19.1945 6.69644 19 6.40808 19 6.15662V5.22826C19 4.85189 19.2951 4.63244 19.6587 4.75099C24.4964 6.29517 28.0038 10.8313 28.0038 16.1835C27.9978 21.523 24.4964 26.053 19.6587 27.6026Z" fill="white"/>
</g>
<defs>
<clipPath id="clip0_7137_131535">
<rect width="32" height="32" fill="white"/>
</clipPath>
</defs>
</svg>
