<svg width="32" height="32" viewBox="0 0 32 32" fill="none" xmlns="http://www.w3.org/2000/svg">
<g clip-path="url(#clip0_7137_131546)">
<path d="M0.0283484 15.9946C0.0283484 24.7874 7.15591 31.915 15.9487 31.915C24.7413 31.915 31.8691 24.7874 31.8691 15.9946C31.8691 7.20194 24.7413 0.0742188 15.9487 0.0742188C7.15591 0.0742188 0.0283484 7.20194 0.0283484 15.9946Z" fill="#1BA27A"/>
<path d="M8.47771 8.10156H23.5527V11.741H17.8349V17.0902H14.1955V11.741H8.47771V8.10156Z" fill="white"/>
<path d="M15.9788 17.6588C20.7088 17.6588 24.5435 16.9103 24.5435 15.9867C24.5435 15.0633 20.7089 14.3146 15.9788 14.3146C11.2489 14.3146 7.41429 15.0633 7.41429 15.9867C7.41429 16.9103 11.2489 17.6588 15.9788 17.6588ZM6.36211 16.2655C6.36211 15.0746 10.6676 14.1094 15.9788 14.1094C21.2899 14.1094 25.5957 15.0746 25.5957 16.2655C25.5957 17.3142 22.257 18.1879 17.8329 18.3815V26.0605H14.1938V18.3845C9.73565 18.1969 6.36211 17.3196 6.36211 16.2655Z" fill="white"/>
</g>
<defs>
<clipPath id="clip0_7137_131546">
<rect width="32" height="32" fill="white" transform="matrix(-1 0 0 1 32 0)"/>
</clipPath>
</defs>
</svg>
