<svg width="36" height="36" viewBox="0 0 36 36" fill="none" xmlns="http://www.w3.org/2000/svg">
<path fill-rule="evenodd" clip-rule="evenodd" d="M11.625 11.25C11.625 7.72918 14.4792 4.875 18 4.875C21.5208 4.875 24.375 7.72918 24.375 11.25C24.375 14.7708 21.5208 17.625 18 17.625C14.4792 17.625 11.625 14.7708 11.625 11.25ZM18 7.125C15.7218 7.125 13.875 8.97183 13.875 11.25C13.875 13.5282 15.7218 15.375 18 15.375C20.2782 15.375 22.125 13.5282 22.125 11.25C22.125 8.97183 20.2782 7.125 18 7.125Z" fill="#8A6AB1"/>
<path fill-rule="evenodd" clip-rule="evenodd" d="M12 22.125C10.136 22.125 8.625 23.636 8.625 25.5V27.2824C8.625 27.3096 8.64467 27.3327 8.67145 27.3371C14.8496 28.3458 21.1504 28.3458 27.3285 27.3371C27.3553 27.3327 27.375 27.3096 27.375 27.2824V25.5C27.375 23.636 25.864 22.125 24 22.125H23.4887C23.4492 22.125 23.4099 22.1313 23.3723 22.1435L22.074 22.5674C19.4268 23.4319 16.5732 23.4319 13.926 22.5674L12.6277 22.1435C12.5901 22.1313 12.5508 22.125 12.5113 22.125H12ZM6.375 25.5C6.375 22.3934 8.8934 19.875 12 19.875H12.5113C12.788 19.875 13.063 19.9188 13.3261 20.0047L14.6244 20.4286C16.8178 21.1448 19.1822 21.1448 21.3756 20.4286L22.6739 20.0047C22.937 19.9188 23.212 19.875 23.4887 19.875H24C27.1066 19.875 29.625 22.3934 29.625 25.5V27.2824C29.625 28.4123 28.8062 29.3756 27.6911 29.5577C21.2729 30.6056 14.7271 30.6056 8.30891 29.5577C7.19383 29.3756 6.375 28.4123 6.375 27.2824V25.5Z" fill="#8A6AB1"/>
</svg>
