<svg width="36" height="36" viewBox="0 0 36 36" fill="none" xmlns="http://www.w3.org/2000/svg">
<path fill-rule="evenodd" clip-rule="evenodd" d="M16.107 4.875C14.9465 4.875 13.9786 5.76185 13.8772 6.91783C13.6654 9.33476 13.6117 11.7625 13.7165 14.1854C13.59 14.1939 13.4636 14.2027 13.3371 14.2119L11.1028 14.3748C9.67477 14.4789 8.87647 16.0712 9.64744 17.2778C11.2917 19.8511 13.4104 22.0882 15.8905 23.8698L16.7857 24.5128C17.5114 25.0341 18.4889 25.0341 19.2146 24.5128L20.1097 23.8698C22.5899 22.0882 24.7085 19.8511 26.3528 17.2778C27.1238 16.0712 26.3255 14.4789 24.8974 14.3748L22.6631 14.2119C22.5367 14.2027 22.4102 14.1939 22.2837 14.1854C22.3885 11.7625 22.3349 9.33475 22.123 6.91782C22.0217 5.76184 21.0537 4.875 19.8933 4.875H16.107ZM16.0224 15.1721C15.8518 12.4913 15.8836 9.80126 16.1177 7.125H19.8825C20.1166 9.80126 20.1485 12.4913 19.9779 15.1721C19.9588 15.4726 20.0609 15.7683 20.2615 15.9929C20.4622 16.2175 20.7445 16.3523 21.0453 16.3672C21.5303 16.3911 22.0151 16.4207 22.4996 16.456L24.1222 16.5743C22.6829 18.6942 20.8807 20.5456 18.797 22.0424L18.0001 22.6148L17.2032 22.0424C15.1196 20.5456 13.3174 18.6942 11.878 16.5743L13.5007 16.456C13.9852 16.4207 14.47 16.3911 14.955 16.3672C15.2558 16.3523 15.5381 16.2175 15.7387 15.9929C15.9393 15.7683 16.0415 15.4726 16.0224 15.1721Z" fill="#8A6AB1"/>
<path d="M8.625 25.5C8.625 24.8787 8.12132 24.375 7.5 24.375C6.87868 24.375 6.375 24.8787 6.375 25.5V28.5C6.375 29.9497 7.55025 31.125 9 31.125H27C28.4497 31.125 29.625 29.9497 29.625 28.5V25.5C29.625 24.8787 29.1213 24.375 28.5 24.375C27.8787 24.375 27.375 24.8787 27.375 25.5V28.5C27.375 28.7071 27.2071 28.875 27 28.875H9C8.79289 28.875 8.625 28.7071 8.625 28.5V25.5Z" fill="#8A6AB1"/>
</svg>
