<svg width="33" height="33" viewBox="0 0 33 33" fill="none" xmlns="http://www.w3.org/2000/svg">
<path d="M18.0781 13.5003C18.0781 12.948 17.6304 12.5003 17.0781 12.5003H9.07812C8.52584 12.5003 8.07812 12.948 8.07812 13.5003C8.07812 14.0525 8.52584 14.5003 9.07812 14.5003H17.0781C17.6304 14.5003 18.0781 14.0525 18.0781 13.5003Z" fill="#370063"/>
<path d="M16.7448 17.5003C16.7448 16.948 16.2971 16.5003 15.7448 16.5003H9.07812C8.52584 16.5003 8.07812 16.948 8.07812 17.5003C8.07812 18.0525 8.52584 18.5003 9.07812 18.5003H15.7448C16.2971 18.5003 16.7448 18.0525 16.7448 17.5003Z" fill="#370063"/>
<path d="M17.0781 20.5003C17.6304 20.5003 18.0781 20.948 18.0781 21.5003C18.0781 22.0525 17.6304 22.5003 17.0781 22.5003H9.07812C8.52584 22.5003 8.07812 22.0525 8.07812 21.5003C8.07812 20.948 8.52584 20.5003 9.07812 20.5003H17.0781Z" fill="#370063"/>
<path fill-rule="evenodd" clip-rule="evenodd" d="M8.07812 29.5003H25.4115C27.4365 29.5003 29.0781 27.8587 29.0781 25.8336V18.5003C29.0781 17.948 28.6304 17.5003 28.0781 17.5003H23.7448V7.09119C23.7448 5.19332 21.5996 4.08937 20.0552 5.19248L19.8218 5.35919C18.7812 6.10252 17.3716 6.10002 16.326 5.35321C14.5875 4.11143 12.2354 4.11143 10.4969 5.35321C9.45135 6.10002 8.04173 6.10252 7.00108 5.35919L6.76768 5.19248C5.22332 4.08937 3.07812 5.19333 3.07812 7.09119V24.5003C3.07812 27.2617 5.3167 29.5003 8.07812 29.5003ZM11.6594 6.98067C12.7025 6.23561 14.1205 6.23561 15.1636 6.98067C16.8996 8.2207 19.2434 8.23018 20.9843 6.98666L21.2177 6.81995C21.4383 6.66236 21.7448 6.82007 21.7448 7.09119V25.8336C21.7448 26.4338 21.889 27.0002 22.1446 27.5003H8.07812C6.42127 27.5003 5.07812 26.1571 5.07812 24.5003V7.09119C5.07812 6.82007 5.38458 6.66236 5.6052 6.81995L5.8386 6.98666C7.57953 8.23018 9.92332 8.2207 11.6594 6.98067ZM23.7448 25.8336V19.5003H27.0781V25.8336C27.0781 26.7541 26.3319 27.5003 25.4115 27.5003C24.491 27.5003 23.7448 26.7541 23.7448 25.8336Z" fill="#370063"/>
</svg>
