<svg width="70" height="72" viewBox="0 0 70 72" fill="none" xmlns="http://www.w3.org/2000/svg">
<path d="M5.28936 33.7054C5.43763 33.2974 6.00438 33.2974 6.15265 33.7054L6.51772 34.7101C6.56434 34.8384 6.66367 34.9396 6.78965 34.987L7.77625 35.3588C8.17695 35.5098 8.17695 36.0869 7.77625 36.2379L6.78965 36.6097C6.66367 36.6571 6.56434 36.7583 6.51772 36.8866L6.15265 37.8913C6.00438 38.2993 5.43763 38.2993 5.28936 37.8913L4.92428 36.8866C4.87767 36.7583 4.77834 36.6571 4.65236 36.6097L3.66576 36.2379C3.26506 36.0869 3.26506 35.5098 3.66576 35.3588L4.65236 34.987C4.77834 34.9396 4.87767 34.8384 4.92428 34.7101L5.28936 33.7054Z" fill="#C89CFF"/>
<path d="M66.4163 45.4452C66.6069 44.9206 67.3356 44.9206 67.5262 45.4452L67.9956 46.737C68.0555 46.9019 68.1832 47.0319 68.3452 47.093L69.6137 47.571C70.1289 47.7651 70.1289 48.5071 69.6137 48.7012L68.3452 49.1792C68.1832 49.2403 68.0555 49.3703 67.9956 49.5353L67.5262 50.827C67.3356 51.3516 66.6069 51.3516 66.4163 50.827L65.9469 49.5353C65.8869 49.3703 65.7592 49.2403 65.5973 49.1792L64.3288 48.7012C63.8136 48.5071 63.8136 47.7651 64.3288 47.571L65.5973 47.093C65.7592 47.0319 65.8869 46.9019 65.9469 46.737L66.4163 45.4452Z" fill="#C89CFF"/>
<path d="M45.4279 0.980909C45.6609 0.339696 46.5515 0.339698 46.7845 0.98091L47.3582 2.55969C47.4315 2.76128 47.5875 2.92023 47.7855 2.99483L49.3359 3.57903C49.9656 3.8163 49.9656 4.72322 49.3359 4.96049L47.7855 5.54469C47.5875 5.61929 47.4315 5.77823 47.3582 5.97983L46.7845 7.55861C46.5515 8.19982 45.6609 8.19982 45.4279 7.5586L44.8542 5.97983C44.781 5.77823 44.6249 5.61929 44.4269 5.54469L42.8766 4.96049C42.2469 4.72322 42.2469 3.8163 42.8766 3.57903L44.4269 2.99483C44.6249 2.92023 44.781 2.76128 44.8542 2.55969L45.4279 0.980909Z" fill="#C89CFF"/>
<path fill-rule="evenodd" clip-rule="evenodd" d="M4.08146 69.4066C3.91221 70.0669 4.25111 70.7523 4.87432 71.01C5.49753 71.2678 6.21276 71.0184 6.54764 70.4266L6.5491 70.4241L6.56036 70.4045C6.57114 70.3859 6.58848 70.3563 6.6124 70.316C6.66024 70.2354 6.73443 70.1125 6.83525 69.9511C7.03692 69.6282 7.34502 69.1514 7.76193 68.5515C8.596 67.3514 9.86408 65.6607 11.585 63.7242C13.9221 61.0944 17.0876 58.0189 21.1285 55.1035C20.2392 56.5742 19.3219 58.3117 18.4678 60.3211C18.2074 60.9337 18.423 61.6472 18.9772 62.0069C19.5314 62.3666 20.261 62.2666 20.701 61.7706L20.7031 61.7683L20.714 61.7561L20.7616 61.7034C20.8045 61.656 20.8697 61.5847 20.9556 61.4924C21.1272 61.3076 21.3812 61.0391 21.7045 60.7103C22.352 60.0518 23.2735 59.1559 24.367 58.2085C25.6167 57.1256 27.046 56.0155 28.5164 55.1107C28.2311 55.8495 27.9229 56.7252 27.5949 57.7634C27.3906 58.4099 27.6873 59.1102 28.2905 59.4053C28.8876 59.6973 29.6044 59.5041 29.98 58.953L29.986 58.9449C29.9981 58.9287 30.0252 58.8936 30.0697 58.841C30.1586 58.7358 30.3176 58.5602 30.567 58.3253C31.0656 57.8557 31.9271 57.1479 33.3143 56.2933C36.0908 54.5825 40.9645 52.2889 49.2216 50.1426C57.9716 47.8682 62.2183 43.0288 64.222 38.6452C65.2115 36.4804 65.638 34.4639 65.8177 32.9855C65.9077 32.2451 65.9364 31.6351 65.9421 31.2029C65.9449 30.9867 65.942 30.8144 65.9381 30.692C65.9369 30.6547 65.9356 30.6221 65.9344 30.5942C65.9358 30.5733 65.9373 30.5497 65.9389 30.5234C65.9397 30.5093 65.9406 30.4943 65.9414 30.4786C65.9488 30.3457 65.9565 30.1574 65.9597 29.9212C65.966 29.4491 65.954 28.7826 65.8825 27.9806C65.7401 26.382 65.3588 24.2135 64.3928 21.9657C62.423 17.3822 58.0905 12.6553 49.0089 11.6223C39.8466 10.5801 32.0767 15.4429 26.3905 20.9046C20.6845 26.3853 16.8618 32.6693 15.5445 34.954C15.2252 35.5076 15.3303 36.212 15.7967 36.6453C16.2632 37.0785 16.9647 37.1233 17.481 36.7527L17.4812 36.7526L17.4839 36.7507L17.4966 36.7416L17.5508 36.7033C17.5992 36.6693 17.6715 36.6186 17.7646 36.5545C17.951 36.426 18.2195 36.2439 18.5443 36.0322C18.9151 35.7904 19.3539 35.5135 19.8237 35.2351C19.1732 35.8593 18.467 36.5573 17.7293 37.3183C14.5262 40.6222 10.6592 45.1819 8.20953 50.072C7.91905 50.6519 8.07358 51.359 8.57849 51.7603C9.08336 52.1616 9.79769 52.1451 10.284 51.721L10.2841 51.721L10.2842 51.7209L10.2847 51.7205L10.2878 51.7178L10.3017 51.7057L10.3593 51.656C10.4106 51.6118 10.4874 51.5461 10.5869 51.4617C10.786 51.293 11.0758 51.05 11.4355 50.7561C12.1473 50.1743 13.1275 49.397 14.2151 48.6021C13.9172 48.9943 13.6128 49.4055 13.3036 49.8353C10.0406 54.3716 6.23357 61.0102 4.08146 69.4066Z" fill="#C89CFF"/>
<path d="M23.3307 26.0323C23.3307 26.0323 22.6847 26.8599 21.7857 28.0701C20.7186 29.5064 20.0635 30.4879 19.8489 31.2885C19.7645 31.6035 19.7223 31.7609 20.0828 32.1641C20.4434 32.5672 20.6089 32.5421 20.9401 32.4919C21.4847 32.4093 22.0797 32.0444 23.8938 31.3434C24.7574 31.0694 25.6356 30.6989 26.0886 30.6391C26.5417 30.5793 26.8717 30.4407 27.0369 30.7781C27.1377 30.9841 26.939 31.2102 26.5417 31.6625L21.2577 37.6766C19.5727 39.5944 18.7302 40.5533 19.0471 40.9967C19.3641 41.4402 20.5313 40.9251 22.8656 39.8951C23.7387 39.5099 24.6108 39.1334 25.4059 38.804C26.2119 38.4702 26.6149 38.3033 26.7713 38.5071C26.9277 38.7108 26.6666 39.0691 26.1443 39.7855C25.0341 41.3087 23.297 43.7032 21.2702 46.5375C19.5348 48.9642 18.6671 50.1776 19.0295 50.5868C19.3919 50.996 20.6937 50.2418 23.2972 48.7333C25.445 47.4889 27.875 46.2015 30.1773 45.2504C30.9398 44.9354 31.3211 44.7779 31.4781 44.9728C31.6352 45.1677 31.402 45.5222 30.9357 46.2313C30.4432 46.9801 29.8539 47.8965 29.3015 48.8074C28.6189 49.933 28.2776 50.4958 28.6184 50.8745C28.9593 51.2533 29.5627 50.9508 30.7697 50.346L33.9277 48.7632C34.5666 48.443 34.8861 48.2829 35.0554 48.4371C35.2248 48.5912 35.1019 48.9303 34.8562 49.6084L34.5785 50.3748C34.1412 51.582 33.9225 52.1856 34.2179 52.4928C34.5133 52.8001 35.1199 52.5922 36.3332 52.1764C38.7949 51.3328 42.5585 50.131 46.1906 49.3186C52.3154 47.9489 55.4 45.8555 55.4 45.8555C55.4 45.8555 58.4653 44.1531 61.1108 41.0887C63.4623 38.3648 64.9099 33.6681 64.7661 31.0743C64.6224 28.4804 65.2837 22.6224 59.1877 16.7935C53.0917 10.9646 41.3311 13.4419 41.3311 13.4419C41.3311 13.4419 32.4171 14.9574 23.3307 26.0323Z" fill="#370063"/>
<path d="M49.7246 29.1724C50.4667 29.1724 51.0683 28.4102 51.0683 27.47C51.0683 26.5298 50.4667 25.7676 49.7246 25.7676C48.9825 25.7676 48.3809 26.5298 48.3809 27.47C48.3809 28.4102 48.9825 29.1724 49.7246 29.1724Z" fill="#C89CFF"/>
<path d="M57.7871 29.1724C58.5292 29.1724 59.1308 28.4102 59.1308 27.47C59.1308 26.5298 58.5292 25.7676 57.7871 25.7676C57.045 25.7676 56.4434 26.5298 56.4434 27.47C56.4434 28.4102 57.045 29.1724 57.7871 29.1724Z" fill="#C89CFF"/>
<path fill-rule="evenodd" clip-rule="evenodd" d="M57.5396 32.9572C57.8915 33.3974 57.8246 34.0434 57.3903 34.4C55.5049 35.9482 53.6567 36.0358 52.2756 35.6832C51.6049 35.512 51.0607 35.2427 50.684 35.0172C50.0552 34.6408 49.3668 33.8004 49.9378 33.1246C50.2998 32.696 50.9351 32.6445 51.3596 33.0082L51.369 33.0159C51.3804 33.0251 51.4015 33.0417 51.4315 33.0639C51.4919 33.1087 51.5874 33.1753 51.7133 33.2507C51.9674 33.4028 52.3313 33.5818 52.77 33.6938C53.6075 33.9076 54.7827 33.9008 56.1162 32.8059C56.5505 32.4493 57.1878 32.5171 57.5396 32.9572Z" fill="#C89CFF"/>
</svg>
