<svg width="9" height="10" viewBox="0 0 9 10" fill="none" xmlns="http://www.w3.org/2000/svg">
<path d="M4.11614 1.5369C4.24793 1.18073 4.75168 1.18073 4.88348 1.5369L5.64994 3.60823C5.69137 3.7202 5.77966 3.80849 5.89164 3.84993L7.96297 4.61639C8.31913 4.74818 8.31913 5.25193 7.96297 5.38372L5.89164 6.15018C5.77966 6.19162 5.69137 6.2799 5.64994 6.39188L4.88348 8.46321C4.75168 8.81937 4.24793 8.81937 4.11614 8.46321L3.34968 6.39188C3.30825 6.2799 3.21996 6.19162 3.10798 6.15018L1.03665 5.38372C0.680491 5.25193 0.680491 4.74818 1.03665 4.61639L3.10798 3.84993C3.21996 3.80849 3.30825 3.7202 3.34968 3.60823L4.11614 1.5369Z" fill="currentColor"/>
<defs>
<linearGradient id="paint0_linear_2056_36524" x1="4.49981" y1="8.73033" x2="4.49981" y2="5.00005" gradientUnits="userSpaceOnUse">
<stop stop-color="currentColor"/>
<stop offset="1" stop-color="currentColor"/>
</linearGradient>
</defs>
</svg>
