<svg width="144" height="36" viewBox="0 0 144 36" fill="none" xmlns="http://www.w3.org/2000/svg">
<path fill-rule="evenodd" clip-rule="evenodd" d="M36.9998 17.9996C36.9998 27.9407 28.7173 35.9993 18.5002 35.9993C8.28301 35.9993 0 27.9407 0 17.9996C0 8.0586 8.28301 0 18.5002 0C28.7173 0 36.9998 8.0586 36.9998 17.9996Z" fill="#29296E"/>
<path fill-rule="evenodd" clip-rule="evenodd" d="M27.1085 13.1869L26.6381 11.7728C26.5425 11.4852 26.3092 11.2614 26.0125 11.1732L24.5521 10.7362C24.3499 10.6761 24.3483 10.3986 24.5488 10.3354L26.0027 9.87765C26.2977 9.7846 26.5278 9.55761 26.619 9.26894L27.0676 7.84796C27.1293 7.6518 27.4145 7.64968 27.4795 7.8453L27.95 9.25939C28.0456 9.54645 28.2789 9.77024 28.5755 9.85903L30.036 10.2955C30.2382 10.3561 30.2403 10.6331 30.0393 10.6963L28.5854 11.154C28.2904 11.2471 28.0603 11.4746 27.9691 11.7632L27.5205 13.1837C27.4588 13.3804 27.1736 13.3825 27.1085 13.1869Z" fill="#FAFAFA"/>
<path fill-rule="evenodd" clip-rule="evenodd" d="M1.68164 17.7143C2.12147 16.8759 2.9913 16.2444 3.895 15.8451C4.80798 15.4501 5.81169 15.2077 6.79733 15.1291C8.78721 14.9542 10.7258 15.2779 12.4916 15.8377C13.4014 16.1014 14.2154 16.4677 15.0563 16.8376C15.465 17.029 15.8491 17.2459 16.2447 17.4554L17.3374 18.0715C18.5372 18.787 19.7005 19.4207 20.7932 19.913C21.8887 20.401 22.8787 20.7311 23.8119 20.8996C24.7451 21.0703 25.6936 21.0682 26.8601 20.8077C28.0174 20.553 29.3194 20.0039 30.6804 19.2995C32.0496 18.5946 33.4538 17.7302 35.0558 16.8855C34.8951 18.6509 34.3815 20.3064 33.5795 21.9049C32.7577 23.4843 31.6147 25.0249 29.9482 26.2726C28.3135 27.5304 26.0685 28.407 23.783 28.5388C21.4964 28.6893 19.3213 28.1991 17.4707 27.4618C15.6131 26.7138 14.0078 25.7309 12.5851 24.6459C12.1922 24.3461 11.9813 24.1759 11.6912 23.9373L10.8809 23.2467C10.3351 22.831 9.8062 22.3339 9.26584 21.9219C8.18785 21.0453 7.12132 20.1671 5.95208 19.4058C5.36254 19.0188 4.75445 18.66 4.06492 18.3421C3.72234 18.1885 3.35846 18.0455 2.9678 17.9327C2.56786 17.8057 2.16136 17.7302 1.68164 17.7143Z" fill="#F6643C"/>
<path fill-rule="evenodd" clip-rule="evenodd" d="M1.68164 17.7141C1.9062 15.8976 2.77657 14.1939 4.17146 12.7436C5.55924 11.3072 7.72724 10.1999 10.1329 10.0532C11.3202 9.97606 12.5255 10.1047 13.6336 10.4035C14.7367 10.7012 15.7704 11.135 16.702 11.6458C17.1675 11.9026 17.6029 12.1833 18.0368 12.4666L19.1929 13.3183L20.9976 14.7036C22.169 15.6111 23.2869 16.4505 24.32 17.1437C25.3631 17.838 26.2515 18.3452 27.1 18.6423C27.9409 18.9666 29.003 19.0496 30.4072 18.7061C31.1044 18.5498 31.8316 18.2644 32.6074 17.955C33.3789 17.6381 34.1799 17.2602 35.0558 16.8854C34.9503 17.7987 34.7596 18.7083 34.3974 19.5583C34.0493 20.42 33.5909 21.2632 32.95 22.0494C32.6222 22.4321 32.2709 22.817 31.8611 23.1721C31.4513 23.5188 30.9973 23.8478 30.4957 24.1365C29.4953 24.7005 28.3086 25.1125 27.0913 25.2592C25.8739 25.4081 24.6517 25.3337 23.5387 25.104C22.4198 24.8807 21.4002 24.5208 20.4643 24.1051C18.599 23.2609 17.0385 22.1998 15.659 21.0765C14.9662 20.5157 14.3165 19.9299 13.7013 19.335L12.9746 18.6253C12.7555 18.4196 12.5343 18.2128 12.3152 18.0236C11.4322 17.2639 10.6126 16.6834 9.71004 16.3213C8.81399 15.9423 7.66715 15.7865 6.26023 16.0428C4.85881 16.2963 3.32131 16.8859 1.68164 17.7141Z" fill="#FAFAFA"/>
<path fill-rule="evenodd" clip-rule="evenodd" d="M9.07646 27.0818C9.07646 27.6192 8.62844 28.0551 8.07606 28.0551C7.52367 28.0551 7.07617 27.6192 7.07617 27.0818C7.07617 26.5443 7.52367 26.1084 8.07606 26.1084C8.62844 26.1084 9.07646 26.5443 9.07646 27.0818Z" fill="#FAFAFA"/>
<path fill-rule="evenodd" clip-rule="evenodd" d="M9.07646 27.0818C9.07646 27.6192 8.62844 28.0551 8.07606 28.0551C7.52367 28.0551 7.07617 27.6192 7.07617 27.0818C7.07617 26.5443 7.52367 26.1084 8.07606 26.1084C8.62844 26.1084 9.07646 26.5443 9.07646 27.0818Z" fill="#FAFAFA"/>
<path fill-rule="evenodd" clip-rule="evenodd" d="M54.0075 18.5009C53.5077 18.1876 52.6004 17.7923 51.2858 17.315C49.9709 16.8377 49.0583 16.4092 48.5475 16.0295C48.0371 15.6498 47.7815 15.1253 47.7815 14.4565C47.7815 13.7876 48.0403 13.26 48.5585 12.8732C49.0762 12.4865 49.7591 12.2933 50.6066 12.2933C51.4542 12.2933 52.144 12.5146 52.6763 12.9568C53.209 13.3993 53.4752 14.028 53.4752 14.8432H55.5506C55.5506 13.443 55.0685 12.3472 54.1053 11.5566C53.1417 10.7659 51.9813 10.3706 50.6229 10.3706C49.2649 10.3706 48.1109 10.7378 47.1623 11.473C46.2133 12.2083 45.739 13.1956 45.739 14.4358C45.739 15.3973 45.9849 16.1599 46.4778 16.7245C46.7383 17.0239 46.9883 17.2767 47.2272 17.482C47.4666 17.6877 47.9697 17.9698 48.7378 18.3285C49.5055 18.6875 50.1575 18.9294 50.6935 19.0547C51.7253 19.4808 52.5712 19.8282 53.1113 20.2044C53.6505 20.5805 53.9207 21.098 53.9207 21.7564C53.9207 22.4147 53.6399 22.9462 53.0784 23.3501C52.5173 23.754 51.7423 23.9562 50.7535 23.9562C49.7647 23.9562 48.9585 23.7177 48.3357 23.2405C47.7125 22.7632 47.4013 22.0822 47.4013 21.1971H45.3369C45.3369 22.6812 45.8672 23.8379 46.9286 24.6668C47.9896 25.4961 49.2701 25.9105 50.7698 25.9105C52.269 25.9105 53.515 25.5308 54.5074 24.7714C55.4998 24.012 55.9904 22.9774 55.9798 21.6674C55.9689 20.3577 55.3116 19.3021 54.0075 18.5009Z" fill="white"/>
<path fill-rule="evenodd" clip-rule="evenodd" d="M67.7493 10.7915H57.5068V12.6647H61.606V25.6309H63.6286V12.6647H67.7493V10.7915Z" fill="white"/>
<path fill-rule="evenodd" clip-rule="evenodd" d="M73.0862 10.7915L67.3945 25.6309H69.5786C69.5786 25.6309 70.1333 23.9798 70.5832 23.3047C72.5385 20.3735 75.7892 20.0161 76.834 20.043L78.9175 25.6309H81.1016L75.3993 10.7915H73.0862ZM71.8455 19.5521L74.2483 13.1096L76.1309 18.1577C75.0573 18.2334 73.4924 18.5441 71.8455 19.5521Z" fill="white"/>
<path fill-rule="evenodd" clip-rule="evenodd" d="M107.751 10.7915H105.234L98.8 17.5177V10.7915H96.7559V25.6309H98.8V18.5113L105.46 25.6309H107.966L100.941 18.0251L107.751 10.7915Z" fill="white"/>
<path fill-rule="evenodd" clip-rule="evenodd" d="M117.896 19.9498L111.881 10.7915H109.568V25.6309H112.613V16.452L118.606 25.6309H120.919V10.7915H117.896V19.9498Z" fill="white"/>
<path fill-rule="evenodd" clip-rule="evenodd" d="M125.845 19.5045H131.29V16.7728H125.845V13.5958H131.838V10.7915H122.801V25.6305H131.946V22.8368H125.845V19.5045Z" fill="white"/>
<path fill-rule="evenodd" clip-rule="evenodd" d="M133.509 10.7915V13.5962H137.21V25.6309H140.244V13.5962H143.966V10.7915H133.509Z" fill="white"/>
<path fill-rule="evenodd" clip-rule="evenodd" d="M90.3595 20.2885C90.0479 20.0114 89.7318 19.7706 89.4149 19.5587C90.4098 19.4175 91.4817 18.8945 92.1719 18.0454C92.8012 17.2715 93.0759 16.3689 93.0759 15.3964C93.0759 14.1199 92.606 13.0335 91.6664 12.1367C90.7267 11.2399 89.5971 10.7915 88.2772 10.7915H82.6611V25.6305H84.7052V20.0344C85.8229 20.0594 87.4852 20.3306 89.0132 21.6887C90.4784 22.9929 91.4907 24.6132 92.012 25.6297H94.1832C93.7336 24.5066 92.4454 22.1437 90.3595 20.2885ZM88.2772 12.6436C89.0376 12.6436 89.6868 12.9113 90.2248 13.4456C90.7628 13.9802 91.0314 14.6288 91.0314 15.3909C91.0314 16.1535 90.7709 16.8149 90.2248 17.3519C89.2506 18.3095 86.9992 18.1187 84.7657 18.1285C84.7454 18.1281 84.7251 18.1273 84.7052 18.1269V12.6436H88.2772Z" fill="white"/>
</svg>
