<svg width="28" height="28" viewBox="0 0 28 28" fill="none" xmlns="http://www.w3.org/2000/svg">
<path d="M16.4397 12.824V16.1632C16.4425 16.2244 16.4326 16.2857 16.4104 16.3429C16.3881 16.4001 16.3543 16.4521 16.3109 16.4955C16.2675 16.5387 16.2156 16.5725 16.1583 16.5947C16.1011 16.6169 16.0399 16.6268 15.9786 16.624H7.96978C7.25123 16.624 6.7524 16.4867 6.44475 16.204C6.28838 16.0569 6.16558 15.8777 6.08468 15.6789C6.00379 15.48 5.96673 15.266 5.97596 15.0514C5.97491 14.8165 6.03056 14.5847 6.13823 14.3759C6.24546 14.1722 6.38367 13.9865 6.54786 13.8254L9.75784 10.6304H1.55231C1.12226 12.3456 1.05085 14.1312 1.34253 15.8753C1.63421 17.6195 2.28273 19.2847 3.24749 20.7667H23.2801L16.4443 12.8299L16.4397 12.824Z" fill="#3648B6"/>
<path d="M16.4398 1.16553V11.1989L16.4576 11.1763L16.4763 11.153L20.2188 7.98285C20.2779 7.91438 20.3515 7.85987 20.4343 7.82312C20.5169 7.78637 20.6067 7.76834 20.6971 7.77027H22.6506C22.7412 7.76476 22.8307 7.79254 22.9023 7.84841C22.974 7.90427 23.0227 7.98434 23.0394 8.07359C23.0496 8.14315 23.0422 8.21411 23.018 8.28009C22.9936 8.34606 22.9532 8.40491 22.9004 8.45124L22.8854 8.46524L18.8371 12.0096L25.3945 19.665C26.3124 17.8934 26.8046 15.9321 26.8318 13.937C26.859 11.9419 26.4204 9.96796 25.5511 8.17202C24.6817 6.37609 23.4055 4.80765 21.8238 3.59138C20.2421 2.37509 18.3984 1.54447 16.4395 1.16553H16.4398Z" fill="#3648B6"/>
<path d="M12.9854 8.60766C13.2635 8.89221 13.4045 9.31151 13.4045 9.85392C13.409 10.0777 13.3709 10.3004 13.2921 10.51C13.2188 10.6953 13.1086 10.8637 12.9679 11.0048L9.80191 14.1698H13.985V0.933105C11.5753 0.935262 9.21487 1.61574 7.17384 2.89668C5.13282 4.17761 3.49364 6.00725 2.44385 8.17624H11.546C12.2306 8.17624 12.7013 8.31742 12.9854 8.60766Z" fill="#3648B6"/>
<path fill-rule="evenodd" clip-rule="evenodd" d="M13.4769 26.1776V26.9416C13.4782 26.9511 13.4773 26.9607 13.4743 26.9698C13.4713 26.9789 13.4661 26.9871 13.4593 26.9939C13.4525 27.0006 13.4442 27.0057 13.4351 27.0086C13.426 27.0116 13.4163 27.0124 13.4069 27.011H11.3929C11.3649 27.0114 11.3371 27.0092 11.3096 27.0041C10.9251 26.9719 10.6519 26.8595 10.4899 26.6672C10.3278 26.4749 10.2468 26.1842 10.2467 25.7955V22.0999C10.2454 22.0904 10.2463 22.0808 10.2493 22.0717C10.2524 22.0626 10.2575 22.0543 10.2643 22.0477C10.2711 22.0409 10.2794 22.0358 10.2885 22.0329C10.2976 22.0298 10.3073 22.0291 10.3167 22.0305H11.1851C11.1946 22.029 11.2042 22.0298 11.2133 22.0329C11.2224 22.0358 11.2307 22.0408 11.2376 22.0476C11.2443 22.0543 11.2495 22.0626 11.2525 22.0717C11.2555 22.0807 11.2564 22.0904 11.2551 22.0999V25.8788C11.2551 26.0316 11.3454 26.108 11.526 26.108H13.4077C13.4171 26.1067 13.4267 26.1077 13.4357 26.1107C13.4447 26.1137 13.4528 26.1188 13.4596 26.1255C13.4663 26.1323 13.4714 26.1405 13.4743 26.1496C13.4773 26.1585 13.4782 26.1681 13.4769 26.1776ZM7.50713 22.0305H6.79864C6.78915 22.0291 6.77948 22.0298 6.77038 22.0329C6.76128 22.0358 6.75301 22.0409 6.74623 22.0477C6.73941 22.0543 6.73429 22.0626 6.73123 22.0717C6.72816 22.0808 6.72729 22.0904 6.72864 22.0999V26.1629H4.40849C4.35749 26.1629 4.33217 26.1444 4.33217 26.1073C4.3359 26.072 4.35337 26.0395 4.38084 26.017L5.94416 24.4537C5.99553 24.4022 6.03578 24.3408 6.06233 24.2731C6.09191 24.1931 6.10599 24.1082 6.10389 24.0231C6.11763 23.8505 6.06277 23.6795 5.95116 23.5472C5.84927 23.443 5.66171 23.391 5.38849 23.391H3.1101C3.10063 23.3895 3.09095 23.3903 3.08184 23.3933C3.07272 23.3962 3.06443 23.4012 3.05763 23.408C3.05083 23.4148 3.04569 23.4231 3.04265 23.4322C3.0396 23.4411 3.03873 23.4508 3.04009 23.4604V24.1689C3.03862 24.1784 3.03943 24.1882 3.04243 24.1973C3.04542 24.2065 3.05053 24.2148 3.05736 24.2216C3.06417 24.2284 3.0725 24.2335 3.08167 24.2366C3.09083 24.2395 3.10057 24.2403 3.1101 24.2389H4.69396C4.77249 24.2389 4.81191 24.2597 4.81191 24.3013C4.81178 24.313 4.80924 24.3247 4.80452 24.3354C4.79975 24.3461 4.79288 24.3558 4.78426 24.3639L3.17951 25.9622C3.11405 26.0261 3.05895 26.1 3.01619 26.1809C2.97697 26.2571 2.95677 26.3418 2.95727 26.4276C2.9532 26.5068 2.9663 26.586 2.99569 26.6597C3.02507 26.7335 3.07002 26.8 3.12749 26.8548C3.24081 26.9589 3.44341 27.011 3.73531 27.011L6.77922 27.0108C6.78561 27.0119 6.79217 27.012 6.79864 27.011H7.4552C7.4601 27.0116 7.46509 27.0116 7.46994 27.011H7.50713C7.51663 27.0124 7.52629 27.0116 7.53539 27.0086C7.54449 27.0057 7.55276 27.0006 7.55959 26.9939C7.56637 26.9871 7.57149 26.9789 7.57455 26.9698C7.57761 26.9607 7.57849 26.9511 7.57713 26.9416V25.0743C7.58334 25.1065 7.59389 25.1378 7.60863 25.1673C7.63239 25.2186 7.66284 25.2665 7.69919 25.3098L9.01471 26.9491C9.02989 26.9686 9.04936 26.9845 9.07163 26.9952C9.09386 27.006 9.11831 27.0116 9.14303 27.0116H10.1183C10.1586 27.0116 10.1661 26.9955 10.1409 26.9631L8.64406 25.0944C8.6312 25.0818 8.61983 25.0678 8.61011 25.0528C8.60014 25.0408 8.59358 25.0263 8.59108 25.011C8.59314 24.9975 8.59988 24.985 8.61011 24.976C8.62271 24.9619 8.63391 24.9505 8.64406 24.941L10.0578 23.4614C10.0778 23.443 10.087 23.4269 10.0843 23.4129C10.0816 23.3989 10.0679 23.392 10.0428 23.392H9.05999C9.03576 23.3906 9.01156 23.3949 8.98929 23.4046C8.96698 23.4143 8.94729 23.4289 8.93163 23.4476L7.70689 24.7262C7.66734 24.7711 7.63427 24.8214 7.60863 24.8757C7.59406 24.903 7.58348 24.9323 7.57713 24.9625V22.0999C7.57849 22.0904 7.57761 22.0808 7.57455 22.0717C7.57149 22.0626 7.56637 22.0543 7.55959 22.0477C7.55276 22.0409 7.54449 22.0358 7.53539 22.0329C7.52629 22.0298 7.51663 22.0291 7.50713 22.0305ZM14.616 25.8684C14.5792 25.8115 14.5599 25.7451 14.5605 25.6774C14.5593 25.668 14.5603 25.6585 14.5634 25.6495C14.5665 25.6407 14.5715 25.6326 14.5783 25.626C14.5851 25.6193 14.5932 25.6144 14.6021 25.6114C14.6111 25.6085 14.6207 25.6075 14.63 25.6089H17.1997C17.2091 25.6102 17.2188 25.6094 17.2279 25.6064C17.237 25.6033 17.2453 25.5982 17.252 25.5913C17.2587 25.5845 17.2639 25.5763 17.2668 25.5672C17.2698 25.5581 17.2705 25.5484 17.2691 25.5389V24.8165C17.272 24.6157 17.2404 24.416 17.1758 24.226C17.116 24.0545 17.0145 23.9005 16.8806 23.778C16.7317 23.6472 16.5564 23.55 16.3666 23.4932C16.1254 23.4214 15.8747 23.3875 15.6232 23.3925C15.3901 23.3926 15.158 23.4218 14.9322 23.4793C14.707 23.5352 14.4963 23.6382 14.3138 23.7815C14.1217 23.9367 13.9693 24.1355 13.8693 24.3615C13.7465 24.6523 13.6883 24.9663 13.699 25.2819C13.6936 25.5471 13.7276 25.8116 13.7998 26.0668C13.8606 26.2745 13.9785 26.4611 14.1401 26.6051C14.3227 26.7579 14.5396 26.8639 14.7722 26.9143C15.0926 26.9852 15.4202 27.0179 15.7482 27.0115H17.2027C17.2122 27.0128 17.2217 27.012 17.2308 27.0089C17.2398 27.0059 17.248 27.0009 17.2548 26.9941C17.2615 26.9873 17.2665 26.9792 17.2696 26.9701C17.2726 26.9611 17.2734 26.9514 17.2721 26.9421V26.2336C17.2735 26.224 17.2727 26.2144 17.2698 26.2053C17.2668 26.1962 17.2618 26.1879 17.255 26.1811C17.2482 26.1743 17.2401 26.1692 17.231 26.1661C17.2219 26.1631 17.2122 26.1622 17.2027 26.1636H15.269C15.1751 26.164 15.0815 26.1511 14.9912 26.1254C14.9107 26.1034 14.8343 26.0682 14.7653 26.0212C14.7061 25.9805 14.6553 25.9286 14.616 25.8684ZM16.4437 24.7925C16.4346 24.7956 16.4249 24.7965 16.4155 24.7952L14.6305 24.7954C14.6209 24.7968 14.6112 24.796 14.602 24.7931C14.5929 24.79 14.5845 24.7849 14.5777 24.7781C14.5708 24.7713 14.5658 24.763 14.5628 24.7538C14.5598 24.7447 14.5589 24.7349 14.5605 24.7254C14.561 24.6805 14.5706 24.6363 14.5885 24.5951C14.6063 24.5539 14.6322 24.5168 14.6645 24.4858C14.7397 24.4101 14.828 24.3489 14.9252 24.3052C15.03 24.2563 15.1394 24.2179 15.2518 24.1906C15.3529 24.1644 15.4567 24.1504 15.561 24.149C15.7981 24.1355 16.0342 24.1898 16.2417 24.3052C16.3161 24.3471 16.3778 24.4082 16.4205 24.482C16.4632 24.5559 16.4853 24.6398 16.4848 24.7252C16.4862 24.7346 16.4855 24.7443 16.4824 24.7534C16.4795 24.7625 16.4744 24.7708 16.4677 24.7776C16.461 24.7843 16.4528 24.7895 16.4437 24.7925ZM18.7004 26.7888C18.7004 26.9369 18.6355 27.011 18.5059 27.011H18.0404C18.0111 27.0124 17.9821 27.0053 17.9569 26.9906C17.9316 26.9758 17.9111 26.9539 17.8981 26.9277C17.8668 26.8678 17.8513 26.8008 17.8529 26.7332V23.8505C17.854 23.7909 17.867 23.7321 17.8915 23.6778C17.916 23.6234 17.9514 23.5746 17.9954 23.5344C18.0432 23.487 18.1003 23.4499 18.1629 23.4255C18.2257 23.401 18.2926 23.3896 18.36 23.392H19.9299C20.0906 23.3907 20.2496 23.4252 20.3953 23.4927C20.5366 23.5583 20.6648 23.6489 20.7739 23.7601C20.8819 23.8703 20.9679 23.9999 21.0275 24.1422C21.087 24.2829 21.1177 24.434 21.1178 24.5868V26.9416C21.1178 26.9883 21.0922 27.011 21.0413 27.011H20.3398C20.3303 27.0124 20.3207 27.0116 20.3116 27.0087C20.3025 27.0057 20.2942 27.0006 20.2873 26.9939C20.2805 26.9871 20.2754 26.9789 20.2724 26.9698C20.2693 26.9607 20.2684 26.9511 20.2698 26.9416V24.7326C20.2733 24.635 20.2554 24.5378 20.2176 24.4479C20.1861 24.3775 20.1356 24.3173 20.0718 24.2741C20.0054 24.231 19.931 24.2015 19.8531 24.1873C19.7637 24.1706 19.673 24.1624 19.5822 24.163H18.9083C18.8557 24.1637 18.805 24.1834 18.766 24.2186C18.7468 24.232 18.731 24.2497 18.7195 24.2701C18.7081 24.2905 18.7013 24.3132 18.6999 24.3367L18.7004 26.7888ZM24.195 22.0999V23.3225C24.1963 23.3319 24.1955 23.3415 24.1925 23.3506C24.1894 23.3596 24.1844 23.3679 24.1777 23.3746C24.1709 23.3813 24.1627 23.3864 24.1536 23.3895C24.1445 23.3925 24.135 23.3933 24.1255 23.392H22.8128C22.6147 23.3862 22.4184 23.4317 22.2431 23.524C22.0842 23.6131 21.9505 23.741 21.8541 23.8957C21.7448 24.0739 21.6684 24.2703 21.6283 24.4756C21.5776 24.7224 21.5532 24.9738 21.5553 25.2258C21.5564 25.4294 21.5809 25.6321 21.6283 25.8301C21.6746 26.0324 21.7506 26.2268 21.8541 26.4068C21.9513 26.5776 22.084 26.7257 22.2431 26.841C22.4098 26.9572 22.6095 27.0169 22.8128 27.011H24.973C24.9824 27.0124 24.9921 27.0116 25.0012 27.0087C25.0103 27.0057 25.0186 27.0006 25.0255 26.9939C25.0322 26.9871 25.0374 26.9789 25.0404 26.9698C25.0434 26.9607 25.0444 26.9511 25.043 26.9416V22.0999C25.0444 22.0904 25.0434 22.0807 25.0404 22.0717C25.0374 22.0626 25.0322 22.0543 25.0255 22.0476C25.0186 22.0408 25.0103 22.0358 25.0012 22.0329C24.9963 22.0312 24.9912 22.0302 24.986 22.0299C24.9817 22.0296 24.9773 22.0298 24.973 22.0305H24.2645C24.255 22.0291 24.2454 22.0301 24.2363 22.033C24.2274 22.036 24.2191 22.0411 24.2124 22.0478C24.2057 22.0546 24.2006 22.0628 24.1976 22.0718C24.1946 22.0808 24.1936 22.0905 24.195 22.0999ZM24.1925 24.2807C24.1955 24.2897 24.1964 24.2993 24.195 24.3089L24.1947 26.0941C24.1961 26.1036 24.1952 26.1133 24.1921 26.1224C24.1891 26.1315 24.184 26.1396 24.1772 26.1464C24.1703 26.1532 24.162 26.1582 24.1529 26.1612C24.1438 26.1641 24.1341 26.165 24.1247 26.1636H23.3676C23.2334 26.165 23.0993 26.1511 22.9682 26.1219C22.8573 26.0976 22.7539 26.0477 22.6659 25.9761C22.5776 25.8995 22.5106 25.8013 22.4714 25.6913C22.4205 25.5415 22.397 25.3839 22.4021 25.2258C22.397 25.0564 22.4204 24.8872 22.4714 24.7256C22.5092 24.609 22.5777 24.5046 22.6697 24.4236C22.7581 24.3504 22.8631 24.3003 22.9755 24.2776C23.1047 24.251 23.2362 24.2383 23.368 24.2395H24.125C24.1345 24.238 24.1442 24.2388 24.1533 24.2417C24.1624 24.2447 24.1707 24.2498 24.1775 24.2565C24.1843 24.2633 24.1894 24.2716 24.1925 24.2807Z" fill="#3648B6"/>
</svg>
