<svg width="48" height="48" viewBox="0 0 48 48" fill="none" xmlns="http://www.w3.org/2000/svg">
<path d="M18.546 4.52951C21.9262 2.5994 26.0748 2.5994 29.455 4.52951L38.2396 9.54557C41.6686 11.5036 43.7851 15.1493 43.7851 19.098V28.9014C43.7851 32.8501 41.6686 36.4958 38.2396 38.4538L29.455 43.4699C26.0748 45.4 21.9262 45.4 18.546 43.4699L9.7614 38.4538C6.33236 36.4958 4.21588 32.8501 4.21588 28.9014L4.21588 19.098C4.21588 15.1493 6.33236 11.5036 9.76139 9.54558L18.546 4.52951Z" fill="#FAF3FF" stroke="#9D69DE" stroke-width="2"/>
<path d="M23.0303 20.7941C23.3232 20.5012 23.3232 20.0264 23.0303 19.7335C22.7374 19.4406 22.2626 19.4406 21.9697 19.7335L17.9697 23.7335C17.8232 23.8799 17.75 24.0719 17.75 24.2638C17.75 24.3655 17.7702 24.4625 17.8069 24.5509C17.8435 24.6393 17.8978 24.7222 17.9697 24.7941L21.9697 28.7941C22.2626 29.087 22.7374 29.087 23.0303 28.7941C23.3232 28.5012 23.3232 28.0264 23.0303 27.7335L20.3107 25.0138H30C30.4142 25.0138 30.75 24.678 30.75 24.2638C30.75 23.8496 30.4142 23.5138 30 23.5138H20.3107L23.0303 20.7941Z" fill="#9D69DE"/>
</svg>
