<svg width="48" height="48" viewBox="0 0 48 48" fill="none" xmlns="http://www.w3.org/2000/svg">
<path d="M18.546 4.26608C21.9262 2.33597 26.0748 2.33597 29.455 4.26608L38.2396 9.28214C41.6686 11.2401 43.7851 14.8859 43.7851 18.8346V28.638C43.7851 32.5867 41.6686 36.2324 38.2396 38.1904L29.455 43.2064C26.0748 45.1366 21.9262 45.1366 18.546 43.2064L9.7614 38.1904C6.33236 36.2324 4.21588 32.5867 4.21588 28.638L4.21588 18.8346C4.21588 14.8859 6.33236 11.2401 9.76139 9.28215L18.546 4.26608Z" fill="#FAF3FF" stroke="#8F00FF" stroke-width="2"/>
<path d="M28.0658 20.9952C28.3586 20.7023 28.3586 20.2274 28.0658 19.9345C27.7729 19.6416 27.298 19.6416 27.0051 19.9345L23.9999 22.9397L20.9947 19.9345C20.7018 19.6416 20.2269 19.6416 19.934 19.9345C19.6411 20.2274 19.6411 20.7023 19.934 20.9952L22.9392 24.0004L19.934 27.0056C19.6411 27.2985 19.6411 27.7733 19.934 28.0662C20.2269 28.3591 20.7018 28.3591 20.9947 28.0662L23.9999 25.061L27.0051 28.0662C27.298 28.3591 27.7729 28.3591 28.0658 28.0662C28.3587 27.7733 28.3587 27.2985 28.0658 27.0056L25.0606 24.0004L28.0658 20.9952Z" fill="#8F00FF"/>
</svg>
