<svg width="18" height="18" viewBox="0 0 18 18" fill="none" xmlns="http://www.w3.org/2000/svg">
<path d="M15.2378 3.11668C14.0905 2.59027 12.8602 2.20243 11.5739 1.9803C11.5505 1.97601 11.5271 1.98673 11.515 2.00816C11.3568 2.28957 11.1815 2.65669 11.0588 2.94525C9.6753 2.73812 8.29889 2.73812 6.94374 2.94525C6.82099 2.65028 6.63936 2.28957 6.48043 2.00816C6.46836 1.98744 6.44496 1.97673 6.42154 1.9803C5.13593 2.20172 3.90567 2.58956 2.7577 3.11668C2.74776 3.12096 2.73924 3.12811 2.73359 3.13739C0.400044 6.62366 -0.239213 10.0242 0.0743851 13.3827C0.075804 13.3991 0.0850274 13.4148 0.0977985 13.4248C1.63741 14.5555 3.12878 15.2419 4.59246 15.6968C4.61588 15.704 4.6407 15.6954 4.65561 15.6761C5.00184 15.2033 5.31048 14.7048 5.57511 14.1805C5.59072 14.1498 5.57582 14.1133 5.5439 14.1012C5.05435 13.9155 4.5882 13.6891 4.1398 13.4319C4.10433 13.4112 4.10149 13.3605 4.13412 13.3362C4.22848 13.2655 4.32286 13.1919 4.41297 13.1177C4.42927 13.1041 4.45198 13.1012 4.47115 13.1098C7.41696 14.4548 10.6062 14.4548 13.5172 13.1098C13.5364 13.1005 13.5591 13.1034 13.5761 13.1169C13.6662 13.1912 13.7606 13.2655 13.8557 13.3362C13.8883 13.3605 13.8862 13.4112 13.8507 13.4319C13.4023 13.6941 12.9361 13.9155 12.4459 14.1005C12.414 14.1126 12.3998 14.1498 12.4154 14.1805C12.6857 14.704 12.9943 15.2026 13.3342 15.6754C13.3484 15.6954 13.3739 15.704 13.3973 15.6968C14.8681 15.2419 16.3595 14.5555 17.8991 13.4248C17.9126 13.4148 17.9211 13.3998 17.9225 13.3834C18.2978 9.50067 17.2939 6.12798 15.2612 3.1381C15.2562 3.12811 15.2477 3.12096 15.2378 3.11668ZM6.01502 11.3377C5.12812 11.3377 4.39735 10.5235 4.39735 9.52354C4.39735 8.52358 5.11395 7.70934 6.01502 7.70934C6.92315 7.70934 7.64686 8.53073 7.63266 9.52354C7.63266 10.5235 6.91606 11.3377 6.01502 11.3377ZM11.9961 11.3377C11.1092 11.3377 10.3784 10.5235 10.3784 9.52354C10.3784 8.52358 11.095 7.70934 11.9961 7.70934C12.9042 7.70934 13.6279 8.53073 13.6137 9.52354C13.6137 10.5235 12.9042 11.3377 11.9961 11.3377Z" fill="#8F00FF"/>
</svg>
