<svg width="20" height="20" viewBox="0 0 20 20" fill="none" xmlns="http://www.w3.org/2000/svg">
<path fill-rule="evenodd" clip-rule="evenodd" d="M11.8748 2.08333C11.8748 1.96827 11.7816 1.875 11.6665 1.875H5.83317C4.56752 1.875 3.5415 2.90102 3.5415 4.16667V15.8333C3.5415 17.099 4.56752 18.125 5.83317 18.125H14.1665C15.4322 18.125 16.4582 17.099 16.4582 15.8333V7.62255C16.4582 7.50749 16.3649 7.41422 16.2498 7.41422H12.4998C12.1547 7.41422 11.8748 7.13439 11.8748 6.78922V2.08333ZM12.4998 10.2083C12.845 10.2083 13.1248 10.4882 13.1248 10.8333C13.1248 11.1785 12.845 11.4583 12.4998 11.4583H7.49984C7.15466 11.4583 6.87484 11.1785 6.87484 10.8333C6.87484 10.4882 7.15466 10.2083 7.49984 10.2083H12.4998ZM12.4998 13.5417C12.845 13.5417 13.1248 13.8215 13.1248 14.1667C13.1248 14.5118 12.845 14.7917 12.4998 14.7917H7.49984C7.15466 14.7917 6.87484 14.5118 6.87484 14.1667C6.87484 13.8215 7.15466 13.5417 7.49984 13.5417H12.4998Z" fill="#8F00FF"/>
<path d="M13.1248 2.35345C13.1248 2.1997 13.2854 2.10208 13.405 2.19866C13.5058 2.28 13.5963 2.3753 13.6736 2.48296L16.1846 5.98121C16.2417 6.06085 16.1798 6.16422 16.0818 6.16422H13.3332C13.2181 6.16422 13.1248 6.07094 13.1248 5.95588V2.35345Z" fill="#8F00FF"/>
</svg>
