<svg width="19" height="18" viewBox="0 0 19 18" fill="none" xmlns="http://www.w3.org/2000/svg">
<path d="M5.96712 3.68074C8.3181 3.47637 10.6824 3.47637 13.0334 3.68074L14.166 3.7792C14.9201 3.84475 15.5658 4.2945 15.9005 4.93783C15.9433 5.02013 15.9112 5.11978 15.8323 5.16861L11.1328 8.07781C10.1249 8.70174 8.85406 8.71483 7.83352 8.11179L3.10265 5.31628C3.02621 5.27111 2.99113 5.17814 3.02558 5.09632C3.33169 4.36914 4.01992 3.85001 4.83444 3.7792L5.96712 3.68074Z" fill="#9D69DE"/>
<path d="M3.02173 6.57519C2.90475 6.50607 2.7555 6.58045 2.74187 6.71563C2.55157 8.60236 2.59762 10.5069 2.88004 12.385C3.02893 13.3751 3.83698 14.1341 4.83444 14.2209L5.96712 14.3193C8.31809 14.5237 10.6824 14.5237 13.0334 14.3193L14.166 14.2209C15.1635 14.1341 15.9715 13.3751 16.1204 12.385C16.4111 10.4522 16.4514 8.49133 16.2414 6.55074C16.2266 6.4146 16.0748 6.34159 15.9584 6.41366L11.725 9.03435C10.3614 9.87851 8.64193 9.89622 7.2612 9.08033L3.02173 6.57519Z" fill="#9D69DE"/>
</svg>
