<svg width="48" height="48" viewBox="0 0 48 48" fill="none" xmlns="http://www.w3.org/2000/svg">
<path d="M18.546 4.52927C21.9262 2.59915 26.0748 2.59915 29.455 4.52927L38.2396 9.54533C41.6686 11.5033 43.7851 15.1491 43.7851 19.0977V28.9012C43.7851 32.8498 41.6686 36.4956 38.2396 38.4536L29.455 43.4696C26.0748 45.3997 21.9262 45.3997 18.546 43.4696L9.7614 38.4536C6.33236 36.4956 4.21588 32.8498 4.21588 28.9012L4.21588 19.0977C4.21588 15.1491 6.33236 11.5033 9.76139 9.54533L18.546 4.52927Z" fill="#FAF3FF" stroke="#9D69DE" stroke-width="2"/>
<path fill-rule="evenodd" clip-rule="evenodd" d="M15.25 24.2637C15.25 19.4312 19.1675 15.5137 24 15.5137C28.8325 15.5137 32.75 19.4312 32.75 24.2637C32.75 29.0962 28.8325 33.0137 24 33.0137C19.1675 33.0137 15.25 29.0962 15.25 24.2637ZM25 20.2637C25 20.816 24.5523 21.2637 24 21.2637C23.4477 21.2637 23 20.816 23 20.2637C23 19.7114 23.4477 19.2637 24 19.2637C24.5523 19.2637 25 19.7114 25 20.2637ZM24 23.0137C24.4142 23.0137 24.75 23.3495 24.75 23.7637V28.7637C24.75 29.1779 24.4142 29.5137 24 29.5137C23.5858 29.5137 23.25 29.1779 23.25 28.7637V23.7637C23.25 23.3495 23.5858 23.0137 24 23.0137Z" fill="#9D69DE"/>
</svg>
