<svg width="20" height="20" viewBox="0 0 20 20" fill="none" xmlns="http://www.w3.org/2000/svg">
<path fill-rule="evenodd" clip-rule="evenodd" d="M17.9066 8.54163C17.8862 8.39071 17.8641 8.23997 17.84 8.08945L17.7867 7.75492C17.5989 6.5788 16.5844 5.71339 15.3934 5.71339L8.62929 5.71339C8.37843 4.82093 7.5586 4.16663 6.58595 4.16663H4.67632C3.44062 4.16663 2.3998 5.08994 2.25247 6.31682L2.0254 8.20775C1.78153 10.2386 1.84447 12.2946 2.21211 14.3067C2.40879 15.3832 3.30907 16.1901 4.40056 16.2682L5.66223 16.3584C8.55034 16.565 11.4495 16.565 14.3376 16.3584L15.7025 16.2608C16.3763 16.2126 16.9729 15.8703 17.3572 15.355C17.8686 14.8644 18.2711 14.2653 18.5314 13.5958L19.5726 10.9184C20.0174 9.77482 19.1738 8.54163 17.9468 8.54163H17.9066ZM4.67632 5.41663C4.07334 5.41663 3.56545 5.86718 3.49355 6.46585L3.26648 8.35678C3.03755 10.2632 3.09664 12.1932 3.44175 14.082C3.53594 14.5975 3.96707 14.9839 4.48976 15.0213L4.56143 15.0265L6.50484 10.006C6.84649 9.12342 7.69555 8.54163 8.64197 8.54163H16.6445C16.6322 8.4565 16.6192 8.37145 16.6057 8.28647L16.5523 7.95194C16.4614 7.38244 15.9701 6.96339 15.3934 6.96339L8.13272 6.96339C7.76022 6.96339 7.45826 6.66142 7.45826 6.28893C7.45826 5.80717 7.06771 5.41663 6.58595 5.41663H4.67632Z" fill="#8F00FF"/>
</svg>
