<svg width="20" height="20" viewBox="0 0 20 20" fill="none" xmlns="http://www.w3.org/2000/svg">
<path fill-rule="evenodd" clip-rule="evenodd" d="M10.0001 0.416748C7.62614 0.41798 5.33001 1.2588 3.52229 2.78885C1.71457 4.3189 0.513151 6.43842 0.132852 8.76841C-0.247447 11.0984 0.218171 13.4869 1.44646 15.5069C2.67474 17.5269 4.5856 19.0466 6.83734 19.7942C7.33411 19.8864 7.52123 19.5785 7.52123 19.3167C7.52123 19.055 7.51129 18.2959 7.50798 17.4661C4.72606 18.0671 4.13822 16.2922 4.13822 16.2922C3.6845 15.1396 3.02876 14.8367 3.02876 14.8367C2.12133 14.2209 3.09666 14.2324 3.09666 14.2324C4.10179 14.3032 4.63003 15.2582 4.63003 15.2582C5.5209 16.7779 6.96981 16.3383 7.53944 16.0814C7.62886 15.4376 7.88884 14.9997 8.17531 14.751C5.95309 14.5008 3.61826 13.6479 3.61826 9.83793C3.60449 8.84984 3.97325 7.89429 4.64824 7.16898C4.54557 6.91872 4.2028 5.90778 4.74593 4.53461C4.74593 4.53461 5.58548 4.26788 7.4964 5.55378C9.13546 5.1081 10.8648 5.1081 12.5038 5.55378C14.4131 4.26788 15.251 4.53461 15.251 4.53461C15.7958 5.90448 15.453 6.91542 15.3503 7.16898C16.0275 7.89441 16.397 8.85162 16.382 9.84123C16.382 13.6594 14.0422 14.5008 11.8166 14.7461C12.1743 15.0556 12.4939 15.6599 12.4939 16.5885C12.4939 17.9189 12.4823 18.9891 12.4823 19.3167C12.4823 19.5818 12.6628 19.8914 13.1695 19.7942C15.4215 19.0465 17.3326 17.5265 18.5608 15.5062C19.7891 13.4859 20.2545 11.097 19.8737 8.76679C19.493 6.43658 18.291 4.31704 16.4827 2.78725C14.6744 1.25746 12.3777 0.417199 10.0034 0.416748H10.0001Z" fill="#8f00ff"/>
</svg>
