<svg width="24" height="24" viewBox="0 0 24 24" fill="none" xmlns="http://www.w3.org/2000/svg">
<path d="M9 1.73205C10.8564 0.660254 13.1436 0.660254 15 1.73205L19.3923 4.26795C21.2487 5.33975 22.3923 7.32051 22.3923 9.4641V14.5359C22.3923 16.6795 21.2487 18.6603 19.3923 19.7321L15 22.268C13.1436 23.3397 10.8564 23.3397 9 22.2679L4.6077 19.732C2.75129 18.6603 1.6077 16.6795 1.6077 14.5359V9.4641C1.6077 7.32051 2.75129 5.33975 4.6077 4.26795L9 1.73205Z" fill="#8F00FF"/>
<path d="M10.7284 13.3443C10.7284 13.7426 11.0514 14.0656 11.4497 14.0656H12.7793C13.0419 14.0656 13.2547 13.8527 13.2547 13.5902C13.2547 13.2295 13.3895 12.8525 13.9116 12.459C15.5116 11.2295 16 10.4754 16 9.22951C16 7.11475 14.2653 6 12.2105 6C10.3532 6 8.94105 6.78426 8.31907 8.26272C8.03585 8.93594 8.60624 9.5957 9.33515 9.64177C10.0344 9.68596 10.597 9.06614 11.1388 8.62191C11.4117 8.39814 11.7858 8.2623 12.2611 8.2623C12.9516 8.2623 13.4737 8.68852 13.4737 9.40984C13.4737 10.1639 12.5642 10.7049 11.3179 11.8689C10.8968 12.2623 10.7284 12.6885 10.7284 13.3443ZM10.4421 16.4918C10.4421 17.3279 11.1326 18 11.9916 18C12.8505 18 13.5411 17.3279 13.5411 16.4918C13.5411 15.6557 12.8505 14.9836 11.9916 14.9836C11.1326 14.9836 10.4421 15.6557 10.4421 16.4918Z" fill="white"/>
</svg>
