<svg width="19" height="18" viewBox="0 0 19 18" fill="none" xmlns="http://www.w3.org/2000/svg">
<path fill-rule="evenodd" clip-rule="evenodd" d="M1.4375 9C1.4375 6.61827 3.36827 4.6875 5.75 4.6875C7.38543 4.6875 8.80718 5.59778 9.5381 6.9375H16.25C16.9749 6.9375 17.5625 7.52513 17.5625 8.25V10.125C17.5625 10.4357 17.3107 10.6875 17 10.6875H15.3125V12C15.3125 12.3107 15.0607 12.5625 14.75 12.5625H12.875C12.5643 12.5625 12.3125 12.3107 12.3125 12V10.6875H9.71966C9.06304 12.2301 7.53355 13.3125 5.75 13.3125C3.36827 13.3125 1.4375 11.3817 1.4375 9ZM5.75 7.5C4.92157 7.5 4.25 8.17157 4.25 9C4.25 9.82843 4.92157 10.5 5.75 10.5C6.57843 10.5 7.25 9.82843 7.25 9C7.25 8.17157 6.57843 7.5 5.75 7.5Z" fill="#9D69DE"/>
</svg>
