<svg width="25" height="24" viewBox="0 0 25 24" fill="none" xmlns="http://www.w3.org/2000/svg">
<path d="M11.75 19C11.75 18.5858 12.0858 18.25 12.5 18.25H18.5C18.6381 18.25 18.75 18.1381 18.75 18L18.75 6C18.75 5.86193 18.6381 5.75 18.5 5.75L12.5 5.75C12.0858 5.75 11.75 5.41421 11.75 5C11.75 4.58579 12.0858 4.25 12.5 4.25H18.5C19.4665 4.25 20.25 5.0335 20.25 6V18C20.25 18.9665 19.4665 19.75 18.5 19.75H12.5C12.0858 19.75 11.75 19.4142 11.75 19Z" fill="white"/>
<path d="M4 13.1152C4 13.6675 4.44771 14.1152 5 14.1152H9.85599C9.87892 14.4706 9.90762 14.8258 9.9421 15.1805L9.97176 15.4857C10.02 15.982 10.547 16.2791 10.9966 16.0637C12.8245 15.1876 14.4793 13.9889 15.8813 12.525L15.9113 12.4937C16.1784 12.2148 16.1784 11.7751 15.9113 11.4962L15.8813 11.4649C14.4793 10.001 12.8245 8.80226 10.9966 7.92625C10.547 7.71077 10.02 8.00796 9.97176 8.5042L9.9421 8.8094C9.90762 9.16413 9.87892 9.51928 9.85599 9.8747L5 9.87471C4.44772 9.87471 4 10.3224 4 10.8747V13.1152Z" fill="white"/>
</svg>
