<svg width="58" height="49" viewBox="0 0 58 49" fill="none" xmlns="http://www.w3.org/2000/svg">
<path d="M28.9866 4.41261L39.1024 4.36435C43.2305 4.34465 47.0524 6.53912 49.1165 10.1142L54.0182 18.6042C56.0823 22.1793 56.0718 26.5865 53.9907 30.1517L48.891 38.888C46.8395 42.4024 43.0835 44.571 39.0142 44.5904L28.8984 44.6387C24.7703 44.6584 20.9483 42.4639 18.8843 38.8888L13.9826 30.3988C11.9185 26.8237 11.929 22.4166 14.0101 18.8514L19.1098 10.115C21.1612 6.6006 24.9173 4.43203 28.9866 4.41261Z" fill="white" stroke="#8A6AB1"/>
<g clip-path="url(#clip0_8111_57777)">
<path d="M34.0368 12.8948V12.9067C34.0486 12.9658 34.0486 13.0367 34.0486 13.1077V21.6318C34.0368 21.6791 34.0013 21.6909 33.9658 21.7145C33.7176 21.8328 33.4811 21.9392 33.2328 22.0456C32.89 22.1993 32.5353 22.3648 32.1924 22.5185L30.9511 23.086C30.6082 23.2397 30.2653 23.3934 29.9343 23.5471C29.5323 23.7362 29.1185 23.9136 28.7166 24.1027C28.3737 24.2564 28.0309 24.4219 27.6762 24.5756C27.3924 24.7057 27.1087 24.8239 26.8368 24.954C26.8131 24.9658 26.7895 24.9776 26.7658 24.9776C26.754 24.9776 26.754 24.9776 26.7422 24.9658L27.0614 24.4338C27.6762 23.417 28.2791 22.4121 28.8939 21.3953C29.5442 20.3077 30.2062 19.22 30.8565 18.1323C31.4594 17.1274 32.0742 16.1224 32.6772 15.1175C33.1146 14.3845 33.5639 13.6515 34.0013 12.9185C34.0131 12.8948 34.0249 12.883 34.0249 12.8594H34.0368C34.0249 12.8712 34.0368 12.883 34.0368 12.8948Z" fill="#8A92B2"/>
<path d="M41.2945 24.9653L41.3063 24.9772L39.5684 26.0057L34.1063 29.2333C34.0827 29.2451 34.059 29.257 34.0472 29.2688C34.0117 29.2688 34.0117 29.2333 34.0117 29.2215V29.1151V21.8087C34.0117 21.7732 34.0117 21.7259 34.0235 21.6905C34.0354 21.6432 34.0708 21.655 34.1063 21.6668C34.26 21.7378 34.4255 21.8087 34.5792 21.8796C35.0403 22.0924 35.5014 22.3052 35.9625 22.5062C36.3644 22.6836 36.7546 22.8727 37.1565 23.0501C37.5585 23.2274 37.9605 23.4166 38.3625 23.5939C38.7053 23.7476 39.06 23.9131 39.4029 24.0668C39.7457 24.2205 40.1004 24.386 40.4432 24.5397C40.7152 24.658 40.9871 24.788 41.259 24.9062C41.259 24.9417 41.2708 24.9535 41.2945 24.9653Z" fill="#454A75"/>
<path d="M34.0368 36.6094C34.0368 36.6212 34.0249 36.6331 34.0249 36.6449H34.0131C34.0131 36.6212 33.9895 36.6094 33.9777 36.5858C33.2447 35.5572 32.5116 34.5168 31.7786 33.4882C31.0338 32.436 30.2772 31.372 29.5323 30.3198C28.8112 29.303 28.0781 28.2744 27.357 27.2577C27.1678 26.9858 26.9786 26.7257 26.7895 26.4537C26.7777 26.4301 26.7658 26.4183 26.7422 26.3828C26.7777 26.3828 26.8013 26.4065 26.8131 26.4183C27.8417 27.0212 28.8584 27.6242 29.887 28.2271C31.0693 28.9247 32.2397 29.6222 33.422 30.3198L34.0249 30.6744C34.0486 30.6981 34.0486 30.7217 34.0486 30.7454V36.4439C34.0486 36.503 34.0486 36.5621 34.0368 36.6094Z" fill="#8A92B2"/>
<path d="M26.7305 24.9902V24.9784C27.1088 24.8129 27.4753 24.6356 27.8536 24.47C28.3384 24.2454 28.8231 24.0326 29.3078 23.808C29.6743 23.6425 30.0526 23.4651 30.4191 23.2996C30.963 23.0513 31.495 22.8149 32.0388 22.5666C32.4053 22.4011 32.7718 22.2356 33.1502 22.0582C33.4103 21.94 33.6822 21.8218 33.9423 21.7035C33.9659 21.6917 34.0014 21.6799 34.0132 21.6562C34.0251 21.6562 34.0251 21.6681 34.0132 21.6799V29.1873C34.0132 29.2228 34.0014 29.2582 34.0251 29.2819C34.0014 29.3173 33.9778 29.2819 33.9659 29.27C33.8595 29.2109 33.7531 29.1518 33.6467 29.0809C31.365 27.7331 29.0714 26.3735 26.7896 25.0257C26.7778 25.0139 26.7541 25.0021 26.7305 24.9902Z" fill="#62688F"/>
<path d="M41.2707 26.3828H41.2826C41.2826 26.4065 41.2589 26.4301 41.2471 26.4537C39.0717 29.5158 36.8963 32.5897 34.721 35.6518C34.4963 35.971 34.2599 36.2902 34.0353 36.6094C34.0234 36.5976 34.0234 36.5858 34.0234 36.5739V36.503V30.769V30.6626C34.52 30.3671 35.0047 30.0833 35.5013 29.7877C37.4165 28.6528 39.3318 27.5296 41.2353 26.3946C41.2471 26.4065 41.2589 26.3946 41.2707 26.3828Z" fill="#62688F"/>
<path d="M34.0236 21.6787V21.655V21.5841V13.0008C34.0236 12.9654 34.0118 12.9417 34.0355 12.9062C36.4355 16.8905 38.8355 20.8629 41.2236 24.8471C41.2473 24.8826 41.2828 24.9299 41.2946 24.9772C41.1291 24.9181 40.9754 24.8353 40.8217 24.7644C40.6325 24.6816 40.4315 24.587 40.2424 24.5043C40.1241 24.4452 39.9941 24.3979 39.8759 24.3388C39.6749 24.2442 39.4739 24.1614 39.2729 24.0668C39.1547 24.0195 39.0365 23.9604 38.9182 23.9013L38.1379 23.5466C38.0079 23.4875 37.8778 23.4284 37.736 23.3693L37.1685 23.121C37.0502 23.0737 36.932 23.0146 36.8138 22.9555L36.0335 22.6008C35.9034 22.5417 35.7734 22.4826 35.6315 22.4235L35.064 22.1752C34.934 22.1161 34.8158 22.057 34.6857 21.9979C34.4611 21.8915 34.2365 21.7851 34 21.6905C34.0355 21.6787 34.0236 21.6787 34.0236 21.6787Z" fill="#62688F"/>
</g>
<defs>
<clipPath id="clip0_8111_57777">
<rect width="24" height="24" fill="white" transform="translate(22 12.7656)"/>
</clipPath>
</defs>
</svg>
