<svg width="17" height="16" viewBox="0 0 17 16" fill="none" xmlns="http://www.w3.org/2000/svg">
<path fill-rule="evenodd" clip-rule="evenodd" d="M14.4026 14.4917L14.4032 14.4903L14.4177 14.454L16.9167 1.85477V1.81385C16.9167 1.49993 16.8007 1.22588 16.5483 1.0615C16.3273 0.917616 16.0734 0.907369 15.8953 0.920886C15.7069 0.935182 15.5293 0.982194 15.4064 1.02133C15.3431 1.04146 15.2902 1.06086 15.2523 1.07553C15.2333 1.0829 15.2179 1.08914 15.2067 1.0938L15.1957 1.09843L1.26256 6.56421L1.25872 6.56559C1.2512 6.56833 1.24124 6.57204 1.22922 6.57672C1.20526 6.58604 1.17265 6.59939 1.13433 6.61676C1.0591 6.65085 0.955149 6.70347 0.84973 6.77566C0.670686 6.89827 0.329757 7.18854 0.387326 7.64873C0.43501 8.0299 0.697762 8.27199 0.874903 8.39732C0.96986 8.46451 1.0607 8.51296 1.12723 8.54463C1.16093 8.56068 1.18957 8.57297 1.21089 8.58165C1.22158 8.58601 1.23052 8.58949 1.23743 8.59211L1.24629 8.59541L1.25195 8.59752L3.68965 9.41819C3.68142 9.57113 3.69659 9.72708 3.73715 9.88094L4.95822 14.5129C5.103 15.0622 5.59986 15.4447 6.16783 15.4443C6.67694 15.4439 7.12846 15.136 7.32028 14.6764L9.22668 12.638L12.5008 15.1482L12.5474 15.1685C12.8449 15.2984 13.1228 15.3395 13.3769 15.3048C13.6306 15.2701 13.8323 15.1637 13.9837 15.0425C14.1328 14.9233 14.2349 14.7887 14.2992 14.6874C14.3318 14.6359 14.3562 14.5906 14.373 14.5566C14.3815 14.5395 14.3882 14.525 14.3932 14.5137L14.3995 14.4992L14.4017 14.4939L14.4026 14.4917ZM4.94582 9.5623C4.91807 9.45702 4.96163 9.34589 5.05354 9.28753L13.3219 4.03677C13.3219 4.03677 13.8082 3.74152 13.7908 4.03677C13.7908 4.03677 13.8776 4.08891 13.617 4.33201C13.3698 4.56291 7.72395 10.0138 7.15267 10.5654C7.1197 10.5972 7.10001 10.6337 7.08839 10.6781L6.16689 14.1943L4.94582 9.5623Z" fill="#8f00ff"/>
</svg>
