<svg width="24" height="24" viewBox="0 0 30 24" fill="none" xmlns="http://www.w3.org/2000/svg">
<path d="M25.3963 2.19434C23.4842 1.31699 21.4337 0.670598 19.2899 0.300381C19.2508 0.293236 19.2118 0.311092 19.1917 0.346805C18.928 0.815823 18.6359 1.4277 18.4314 1.90863C16.1255 1.56342 13.8315 1.56342 11.5729 1.90863C11.3683 1.41701 11.0656 0.815823 10.8007 0.346805C10.7806 0.312284 10.7416 0.294428 10.7026 0.300381C8.55989 0.669415 6.50945 1.31581 4.59617 2.19434C4.57961 2.20149 4.56541 2.2134 4.55599 2.22887C0.66674 8.03932 -0.398688 13.707 0.123975 19.3043C0.12634 19.3317 0.141712 19.3579 0.162998 19.3745C2.72901 21.259 5.21463 22.403 7.6541 23.1613C7.69314 23.1732 7.73451 23.1589 7.75935 23.1267C8.33641 22.3387 8.8508 21.5078 9.29185 20.634C9.31787 20.5828 9.29303 20.5221 9.23983 20.5019C8.42391 20.1924 7.647 19.815 6.89966 19.3865C6.84055 19.3519 6.83582 19.2674 6.8902 19.2269C7.04747 19.1091 7.20477 18.9864 7.35494 18.8626C7.38211 18.84 7.41997 18.8353 7.45192 18.8495C12.3616 21.0911 17.6769 21.0911 22.5287 18.8495C22.5606 18.8341 22.5985 18.8389 22.6268 18.8615C22.7771 18.9853 22.9343 19.1091 23.0928 19.2269C23.1472 19.2674 23.1436 19.3519 23.0845 19.3865C22.3372 19.8233 21.5602 20.1924 20.7431 20.5007C20.6899 20.5209 20.6663 20.5828 20.6923 20.634C21.1428 21.5066 21.6572 22.3375 22.2236 23.1256C22.2473 23.1589 22.2898 23.1732 22.3289 23.1613C24.7802 22.403 27.2658 21.259 29.8318 19.3745C29.8543 19.3579 29.8685 19.3329 29.8708 19.3055C30.4964 12.8343 28.8231 7.21318 25.4353 2.23005C25.427 2.2134 25.4128 2.20149 25.3963 2.19434ZM10.025 15.8961C8.54687 15.8961 7.32892 14.539 7.32892 12.8724C7.32892 11.2058 8.52325 9.84878 10.025 9.84878C11.5386 9.84878 12.7448 11.2178 12.7211 12.8724C12.7211 14.539 11.5268 15.8961 10.025 15.8961ZM19.9934 15.8961C18.5153 15.8961 17.2974 14.539 17.2974 12.8724C17.2974 11.2058 18.4917 9.84878 19.9934 9.84878C21.507 9.84878 22.7132 11.2178 22.6896 12.8724C22.6896 14.539 21.507 15.8961 19.9934 15.8961Z" fill="currentColor"/>
</svg>
