<svg width="24" height="24" viewBox="0 0 24 24" fill="none" xmlns="http://www.w3.org/2000/svg">
<path d="M13.7958 4.13621C12.8133 3.12159 11.1861 3.12159 10.2037 4.1362L5.40521 9.09194C5.12963 9.37655 4.94444 9.73636 4.87299 10.126C4.29023 13.304 4.24721 16.5575 4.74574 19.7497L4.92225 20.8799C4.978 21.2369 5.28546 21.5001 5.64677 21.5001H8.99973C9.27587 21.5001 9.49973 21.2762 9.49973 21.0001V14.0001H14.4997V21.0001C14.4997 21.2762 14.7236 21.5001 14.9997 21.5001H18.3526C18.7139 21.5001 19.0214 21.2369 19.0772 20.8799L19.2537 19.7497C19.7522 16.5575 19.7092 13.304 19.1264 10.126C19.055 9.73636 18.8698 9.37655 18.5942 9.09194L13.7958 4.13621Z" fill="currentColor"/>
<defs>
<linearGradient id="paint0_linear_2302_39788" x1="11.9997" y1="21.5001" x2="11.9997" y2="12.4377" gradientUnits="userSpaceOnUse">
<stop stop-color="#7E1AFF"/>
<stop offset="1" stop-color="#9F24FF"/>
</linearGradient>
</defs>
</svg>
