<svg width="19" height="19" viewBox="0 0 19 19" fill="none" xmlns="http://www.w3.org/2000/svg">
<path fill-rule="evenodd" clip-rule="evenodd" d="M1.50399 17.0148C1.34345 16.9493 1.25615 16.7751 1.29975 16.6073C1.85415 14.4733 2.83487 12.786 3.67545 11.633C3.71429 11.5797 3.64805 11.5128 3.59555 11.5527C3.44246 11.6691 3.30557 11.7772 3.1942 11.867C3.10155 11.9417 3.02688 12.0035 2.97559 12.0464C2.94996 12.0678 2.93019 12.0845 2.91696 12.0958L2.90212 12.1084L2.89854 12.1115L2.89774 12.1122L2.89761 12.1123L2.89759 12.1123L2.89758 12.1123C2.77229 12.2201 2.58828 12.2243 2.45822 12.1223C2.32815 12.0203 2.28834 11.8406 2.36317 11.6932C2.99424 10.4503 3.99041 9.2914 4.81554 8.45166C4.90454 8.36108 4.99176 8.274 5.07656 8.19072C5.11429 8.15367 5.06997 8.09617 5.0255 8.12477C4.94182 8.1786 4.87264 8.22488 4.82464 8.25752C4.80066 8.27383 4.78201 8.2867 4.76955 8.29536L4.7556 8.30509L4.75231 8.3074L4.75162 8.30789L4.75158 8.30792C4.61856 8.4021 4.43786 8.39072 4.3177 8.2806C4.19754 8.17049 4.17047 7.99146 4.25271 7.85074C4.59207 7.27006 5.57682 5.6729 7.04674 4.2799C8.51154 2.89176 10.5131 1.6558 12.8734 1.92069C15.2129 2.18325 16.329 3.38464 16.8364 4.54961C17.0853 5.1209 17.1835 5.67206 17.2202 6.07836C17.2386 6.2822 17.2417 6.4516 17.2401 6.57158C17.2393 6.63163 17.2372 6.67948 17.2354 6.71327L17.2335 6.74265L17.2345 6.7675C17.2355 6.79862 17.2363 6.8424 17.2355 6.89736C17.2341 7.00721 17.2267 7.16223 17.2035 7.35043C17.1572 7.72618 17.0473 8.23869 16.7924 8.78892C16.2763 9.90305 15.1823 11.1331 12.9282 11.7111C10.8011 12.2566 9.54561 12.8396 8.83034 13.2744C8.47301 13.4916 8.25108 13.6715 8.12262 13.7909C8.05838 13.8506 8.01742 13.8952 7.99451 13.9219C7.98305 13.9353 7.97608 13.9442 7.97295 13.9484L7.97141 13.9504C7.87465 14.0905 7.68999 14.1396 7.5362 14.0654C7.3808 13.9904 7.30436 13.8124 7.35698 13.648C7.4275 13.4278 7.18878 13.2375 7.00397 13.3764C6.83678 13.5022 6.67606 13.6324 6.52546 13.7612C6.24376 14.002 6.00638 14.2297 5.83958 14.397C5.75628 14.4806 5.69087 14.5489 5.64665 14.5958C5.62454 14.6193 5.60774 14.6374 5.59667 14.6495L5.58442 14.6628L5.58162 14.6659L5.58108 14.6665C5.46773 14.7926 5.27977 14.818 5.13701 14.7266C4.99425 14.6352 4.9387 14.4538 5.00577 14.2981C5.13704 13.9934 4.76888 13.6793 4.51896 13.8975C4.01475 14.3376 3.58682 14.7699 3.23272 15.1631C2.7894 15.6552 2.46273 16.085 2.24787 16.39C2.14047 16.5425 2.0611 16.6636 2.00915 16.7457C1.98317 16.7867 1.96406 16.818 1.95174 16.8384L1.93833 16.861L1.93543 16.8659L1.93505 16.8666C1.84879 17.017 1.66454 17.0804 1.50399 17.0148ZM1.63804 16.6887C1.63751 16.6896 1.63621 16.6888 1.63648 16.6878L1.63655 16.6876C1.67295 16.6251 2.25423 15.6394 3.43754 14.4372C3.47574 14.3996 3.51452 14.3618 3.55387 14.3239C3.01028 14.8645 2.58614 15.3668 2.27645 15.7685C1.87524 16.289 1.66609 16.6408 1.63804 16.6887ZM5.32659 14.4283L5.3268 14.428C5.34196 14.4113 5.41105 14.3357 5.52295 14.2214C5.55155 14.1934 5.58157 14.1642 5.61293 14.1341C5.45282 14.2941 5.35149 14.4045 5.32862 14.4296C5.3277 14.4306 5.32605 14.4296 5.32659 14.4283ZM7.68877 13.747L7.6889 13.7467C7.69464 13.7386 7.71142 13.7159 7.74262 13.6804L7.75903 13.6657C7.72027 13.7084 7.69888 13.7366 7.69065 13.7479C7.68998 13.7488 7.68842 13.7481 7.68877 13.747ZM16.8894 6.81471C16.8949 7.17624 16.836 8.75802 15.4716 10.0254L15.5059 9.98947C16.8326 8.73185 16.8944 7.17984 16.8894 6.81471ZM16.887 6.73528C16.887 6.7355 16.8866 6.73542 16.8866 6.7352C16.8866 6.73488 16.8963 6.63109 16.8938 6.45515C16.8962 6.61468 16.8886 6.71571 16.887 6.73528ZM16.8866 6.7352C16.8866 6.73521 16.8866 6.73519 16.8866 6.7352V6.7352ZM6.74551 6.26167C6.93904 6.00856 7.0781 5.83546 7.0781 5.83546C9.03416 3.51912 10.9531 3.20215 10.9531 3.20215C10.9531 3.20215 13.4848 2.68402 14.7971 3.90315C15.9608 4.98421 15.9806 6.07006 15.9918 6.68042C15.9932 6.75836 15.9945 6.82856 15.998 6.89C16.0289 7.43251 15.7173 8.41483 15.2111 8.98454C14.6416 9.62545 13.9817 9.98152 13.9817 9.98152C13.9817 9.98152 13.3177 10.4194 11.9992 10.7058C11.2173 10.8757 10.4071 11.1271 9.87716 11.3036C9.61598 11.3905 9.48539 11.434 9.4218 11.3697C9.35821 11.3055 9.40528 11.1792 9.49944 10.9268L9.55922 10.7664C9.61211 10.6246 9.63856 10.5537 9.6021 10.5215C9.56565 10.4892 9.49688 10.5227 9.35935 10.5897L9.35935 10.5897L8.6795 10.9207C8.41968 11.0472 8.28977 11.1105 8.2164 11.0313C8.14303 10.952 8.2165 10.8343 8.36344 10.5989C8.48236 10.4084 8.60922 10.2167 8.71525 10.0601L8.71525 10.0601C8.81563 9.91181 8.86582 9.83767 8.83201 9.79691C8.7982 9.75615 8.71613 9.78909 8.55198 9.85497C8.05637 10.0539 7.53326 10.3231 7.07089 10.5834C6.51043 10.8989 6.2302 11.0567 6.15219 10.9711C6.07417 10.8855 6.26096 10.6317 6.63454 10.1242C7.07086 9.53137 7.44481 9.03055 7.6838 8.71198C7.79622 8.56213 7.85243 8.4872 7.81876 8.44459C7.78509 8.40197 7.69834 8.43688 7.52484 8.5067C7.35368 8.57557 7.16594 8.65432 6.97799 8.73489C6.47547 8.95033 6.22421 9.05805 6.15598 8.9653C6.08775 8.87255 6.26912 8.672 6.63185 8.27088L7.76933 7.01303C7.85488 6.91843 7.89765 6.87113 7.87594 6.82804C7.85423 6.78496 7.79342 6.78963 7.67181 6.79898C7.54618 6.80865 7.42293 6.83 7.30319 6.86022C7.08099 6.9163 6.91236 6.98362 6.77934 7.03672C6.53003 7.13625 6.40578 7.18585 6.28836 7.01797C6.23146 6.93395 6.40281 6.70986 6.74551 6.26167Z" fill="currentColor"/>
</svg>
