<svg width="16" height="16" viewBox="0 0 16 16" fill="none" xmlns="http://www.w3.org/2000/svg">
<path fill-rule="evenodd" clip-rule="evenodd" d="M1.11483 14.68C0.972119 14.6218 0.894518 14.467 0.933273 14.3178C1.42607 12.4208 2.29782 10.921 3.04501 9.89617C3.07953 9.84881 3.02065 9.78936 2.97399 9.82482C2.8379 9.92824 2.71623 10.0244 2.61723 10.1042C2.53487 10.1706 2.4685 10.2255 2.42291 10.2636C2.40013 10.2827 2.38255 10.2975 2.3708 10.3075L2.3576 10.3187L2.35442 10.3215L2.35371 10.3221L2.35359 10.3222L2.35358 10.3222L2.35357 10.3222C2.2422 10.418 2.07863 10.4217 1.96302 10.3311C1.84741 10.2404 1.81202 10.0807 1.87854 9.94966C2.43948 8.84487 3.32497 7.81474 4.05842 7.0683C4.13753 6.98779 4.21506 6.91039 4.29044 6.83636C4.32398 6.80342 4.28458 6.75231 4.24505 6.77774C4.17067 6.82558 4.10918 6.86672 4.06651 6.89574C4.04519 6.91023 4.02862 6.92167 4.01754 6.92937L4.00514 6.93802L4.00222 6.94008L4.00161 6.94051L4.00157 6.94053C3.88333 7.02425 3.7227 7.01414 3.61589 6.91625C3.50908 6.81837 3.48502 6.65924 3.55812 6.53416C3.85978 6.01799 4.73512 4.5983 6.04171 3.36007C7.34375 2.12617 9.12295 1.02754 11.221 1.263C13.3005 1.49638 14.2926 2.56429 14.7437 3.59981C14.9649 4.10763 15.0522 4.59755 15.0848 4.9587C15.1011 5.13989 15.1039 5.29047 15.1024 5.39712C15.1017 5.4505 15.0999 5.49303 15.0983 5.52307L15.0966 5.54918L15.0975 5.57127C15.0984 5.59893 15.0991 5.63785 15.0984 5.68671C15.0971 5.78435 15.0905 5.92215 15.0699 6.08944C15.0288 6.42344 14.9311 6.879 14.7045 7.36809C14.2457 8.35843 13.2733 9.45177 11.2697 9.96561C9.37892 10.4505 8.26293 10.9687 7.62714 11.3552C7.30951 11.5483 7.11223 11.7082 6.99805 11.8143C6.94095 11.8673 6.90454 11.907 6.88417 11.9308C6.87398 11.9427 6.86779 11.9506 6.86501 11.9543L6.86364 11.9561C6.77763 12.0806 6.61349 12.1242 6.47678 12.0583C6.33865 11.9916 6.2707 11.8334 6.31748 11.6873C6.38016 11.4916 6.16796 11.3224 6.0037 11.4459C5.85508 11.5576 5.71222 11.6734 5.57835 11.7879C5.32795 12.0019 5.11695 12.2043 4.96868 12.3531C4.89464 12.4274 4.8365 12.488 4.79718 12.5298C4.77753 12.5506 4.7626 12.5667 4.75276 12.5775L4.74187 12.5894L4.73938 12.5921L4.7389 12.5926C4.63815 12.7047 4.47107 12.7273 4.34417 12.646C4.21727 12.5648 4.16789 12.4036 4.22752 12.2652C4.3442 11.9943 4.01695 11.7151 3.79479 11.909C3.34661 12.3003 2.96623 12.6845 2.65147 13.034C2.2574 13.4715 1.96703 13.8535 1.77604 14.1246C1.68058 14.2601 1.61003 14.3678 1.56385 14.4408C1.54076 14.4773 1.52378 14.505 1.51282 14.5232L1.5009 14.5432L1.49832 14.5476L1.49799 14.5482C1.42131 14.6819 1.25753 14.7383 1.11483 14.68ZM1.23398 14.3902C1.2335 14.391 1.23235 14.3902 1.23259 14.3893L1.23265 14.3892C1.26501 14.3336 1.78171 13.4574 2.83354 12.3888C2.86749 12.3553 2.90196 12.3218 2.93694 12.2881C2.45374 12.7686 2.07674 13.2151 1.80145 13.5722C1.44482 14.0348 1.2589 14.3475 1.23398 14.3902ZM4.51269 12.3809L4.51287 12.3806C4.52634 12.3658 4.58775 12.2986 4.68723 12.1969C4.71265 12.172 4.73933 12.1462 4.7672 12.1194C4.62488 12.2616 4.53481 12.3597 4.51449 12.3821C4.51367 12.383 4.51221 12.382 4.51269 12.3809ZM6.6124 11.7753L6.61251 11.775C6.61762 11.7678 6.63254 11.7477 6.66027 11.7161L6.67486 11.703C6.6404 11.7409 6.62139 11.766 6.61407 11.7761C6.61348 11.7769 6.61209 11.7762 6.6124 11.7753ZM14.7907 5.61323C14.7956 5.93459 14.7433 7.34061 13.5305 8.46713L13.561 8.43523C14.7402 7.31735 14.7952 5.93779 14.7907 5.61323ZM14.7886 5.54264C14.7886 5.54283 14.7883 5.54276 14.7883 5.54256C14.7883 5.54228 14.7969 5.45002 14.7947 5.29362C14.7968 5.43543 14.79 5.52524 14.7886 5.54264ZM14.7883 5.54256C14.7883 5.54257 14.7883 5.54255 14.7883 5.54256ZM5.77395 5.12165C5.94598 4.89666 6.06959 4.74279 6.06959 4.74279C7.8083 2.68383 9.514 2.40207 9.514 2.40207C9.514 2.40207 11.7644 1.94152 12.9309 3.02518C13.9653 3.98612 13.9829 4.95132 13.9928 5.49386C13.9941 5.56315 13.9952 5.62555 13.9984 5.68016C14.0259 6.16239 13.7489 7.03557 13.2989 7.54197C12.7927 8.11168 12.2061 8.42818 12.2061 8.42818C12.2061 8.42818 11.6159 8.81737 10.4439 9.07203C9.74888 9.22305 9.02871 9.44648 8.55764 9.60332C8.32548 9.68062 8.2094 9.71927 8.15287 9.66215C8.09635 9.60502 8.13819 9.49281 8.22189 9.26839L8.22189 9.26839L8.27502 9.1259C8.32204 8.99982 8.34555 8.93679 8.31314 8.90813C8.28074 8.87948 8.21961 8.90924 8.09736 8.96877L8.09736 8.96877L7.49305 9.26302C7.2621 9.37547 7.14663 9.4317 7.08141 9.36129C7.01619 9.29087 7.0815 9.18624 7.21211 8.97698C7.31781 8.80763 7.43059 8.63726 7.52483 8.49804C7.61406 8.36622 7.65867 8.30031 7.62862 8.26408C7.59856 8.22785 7.52561 8.25713 7.37971 8.31569C6.93916 8.49251 6.47417 8.73185 6.06317 8.96321C5.56499 9.24365 5.3159 9.38388 5.24655 9.30779C5.1772 9.23171 5.34324 9.00613 5.67531 8.55498L5.67531 8.55497C6.06315 8.02805 6.39555 7.58287 6.60799 7.2997C6.70792 7.1665 6.75788 7.0999 6.72795 7.06202C6.69802 7.02414 6.62091 7.05517 6.46669 7.11723C6.31455 7.17845 6.14766 7.24845 5.9806 7.32007C5.53391 7.51157 5.31057 7.60732 5.24992 7.52487C5.18928 7.44243 5.35049 7.26416 5.67292 6.90761L6.68402 5.78952C6.76006 5.70544 6.79808 5.66339 6.77878 5.62509C6.75948 5.58679 6.70543 5.59095 6.59733 5.59926C6.48565 5.60785 6.3761 5.62683 6.26966 5.65369C6.07216 5.70354 5.92226 5.76338 5.80402 5.81058C5.58241 5.89905 5.47197 5.94314 5.36759 5.79391C5.31701 5.71923 5.46933 5.52004 5.77395 5.12165Z" fill="currentColor"/>
</svg>
