<svg width="16" height="16" viewBox="0 0 16 16" fill="none" xmlns="http://www.w3.org/2000/svg">
<path d="M5.03657 2.83483C5.26649 2.85162 5.45513 3.02343 5.49327 3.25079L6.69351 10.4057L8.18617 5.1958C8.24763 4.98125 8.44384 4.83343 8.66701 4.83351C8.89018 4.83359 9.08628 4.98156 9.14759 5.19615L10.1597 8.73866L10.7405 7.74742C10.8302 7.59427 10.9944 7.50017 11.1719 7.50017L12.4098 7.50017C12.6222 6.82399 13.2539 6.33351 14.0002 6.3335C14.9206 6.3335 15.6668 7.0797 15.6668 8.00017C15.6668 8.92065 14.9206 9.66684 14.0002 9.66684C13.2539 9.66684 12.6222 9.17636 12.4098 8.50017L11.4584 8.50017L10.4316 10.2529C10.3304 10.4256 10.136 10.5213 9.93741 10.4962C9.73884 10.4711 9.57439 10.33 9.5194 10.1375L8.66617 7.15122L7.04648 12.8045C6.98214 13.0291 6.77087 13.1792 6.53763 13.166C6.30439 13.1529 6.11136 12.9799 6.07271 12.7496L4.84641 5.43922L3.97098 8.15364C3.90437 8.36018 3.71213 8.50017 3.49511 8.50017L1.3335 8.50017C1.05735 8.50017 0.833497 8.27632 0.833497 8.00017C0.833497 7.72403 1.05735 7.50017 1.3335 7.50017L3.13101 7.50017L4.5243 3.18004C4.59506 2.96063 4.80665 2.81805 5.03657 2.83483Z" fill="currentColor"/>
</svg>
