<svg width="16" height="16" viewBox="0 0 16 16" fill="none" xmlns="http://www.w3.org/2000/svg">
<path fill-rule="evenodd" clip-rule="evenodd" d="M7.10909 7.89246L7.23395 8.00004L7.10909 8.10762C5.79214 9.2423 4.69718 10.6115 3.87984 12.1457C3.5591 12.7478 3.9573 13.4818 4.63686 13.5412L5.41923 13.6096C7.13644 13.7598 8.86349 13.7598 10.5807 13.6096L11.3631 13.5412C12.0426 13.4818 12.4408 12.7478 12.1201 12.1457C11.3028 10.6115 10.2078 9.2423 8.89084 8.10762L8.76598 8.00004L8.89084 7.89246C10.2078 6.75778 11.3028 5.38857 12.1201 3.85436C12.4408 3.25231 12.0426 2.51825 11.3631 2.45884L10.5807 2.39044C8.86349 2.2403 7.13644 2.2403 5.41923 2.39044L4.63686 2.45884C3.9573 2.51826 3.5591 3.25231 3.87984 3.85436C4.69718 5.38857 5.79214 6.75778 7.10909 7.89246ZM7.99993 6.50004C7.86733 6.50004 7.74015 6.44736 7.64638 6.35359L6.31305 5.02026C6.17005 4.87726 6.12727 4.6622 6.20466 4.47536C6.28205 4.28853 6.46437 4.1667 6.6666 4.1667H9.33327C9.5355 4.1667 9.71782 4.28853 9.79521 4.47536C9.8726 4.6622 9.82982 4.87726 9.68682 5.02026L8.35349 6.35359C8.25972 6.44736 8.13254 6.50004 7.99993 6.50004ZM7.99993 9.50004C7.86733 9.50004 7.74015 9.55272 7.64638 9.64648L6.31305 10.9798C6.17005 11.1228 6.12727 11.3379 6.20466 11.5247C6.28205 11.7115 6.46437 11.8334 6.6666 11.8334H9.33327C9.5355 11.8334 9.71782 11.7115 9.79521 11.5247C9.8726 11.3379 9.82982 11.1228 9.68682 10.9798L8.35349 9.64648C8.25972 9.55272 8.13254 9.50004 7.99993 9.50004Z" fill="currentColor"/>
</svg>
