<svg width="40" height="40" viewBox="0 0 40 40" fill="none" xmlns="http://www.w3.org/2000/svg">
<path d="M21.9343 7.34507C20.7442 6.62847 19.2555 6.62847 18.0654 7.34507L17.2049 7.86322C15.117 9.12046 12.773 9.89194 10.3466 10.1205L9.80442 10.1716C8.73427 10.2724 7.9165 11.1709 7.9165 12.2458V14.9856C7.9165 19.6166 9.79664 24.0492 13.1262 27.268L18.5518 32.513C19.3594 33.2937 20.6403 33.2937 21.4478 32.513L26.8734 27.268C30.203 24.0492 32.0832 19.6166 32.0832 14.9856V12.2458C32.0832 11.1709 31.2654 10.2724 30.1953 10.1716L29.6531 10.1205C27.2266 9.89194 24.8827 9.12046 22.7948 7.86322L21.9343 7.34507Z" fill="currentColor"/>
</svg>
