<svg width="24" height="24" viewBox="0 0 38 38" fill="none" xmlns="http://www.w3.org/2000/svg">
<path d="M34.5319 9.86044C34.6237 9.73256 34.4881 9.56744 34.3414 9.62432C33.2984 10.0286 32.2084 10.3014 31.0965 10.4358C32.3345 9.69616 33.2898 8.57028 33.8196 7.23733C33.8736 7.10154 33.7253 6.98028 33.5974 7.05092C32.4467 7.68637 31.2058 8.14395 29.9167 8.40748C29.8628 8.41851 29.8071 8.40014 29.7692 8.36016C28.8019 7.33943 27.5285 6.6598 26.1403 6.42495C24.723 6.18516 23.2662 6.42259 21.9983 7.09998C20.7304 7.77738 19.7233 8.85644 19.1348 10.1679C18.5752 11.4149 18.4242 12.8049 18.7002 14.1399C18.7216 14.2434 18.6405 14.3412 18.535 14.3347C16.0269 14.1789 13.5764 13.5118 11.3343 12.3735C9.09802 11.2382 7.1177 9.65871 5.51398 7.73254C5.44281 7.64705 5.30791 7.65812 5.25605 7.75652C4.75703 8.70346 4.49576 9.7589 4.49647 10.8316C4.49444 11.8994 4.75648 12.9511 5.25925 13.8931C5.76201 14.8351 6.48991 15.6381 7.37813 16.2308C6.43617 16.2051 5.51257 15.9723 4.67261 15.55C4.56436 15.4956 4.43452 15.5731 4.44015 15.6941C4.50565 17.1021 5.02253 18.5156 5.91722 19.6C6.86931 20.7541 8.19079 21.5439 9.65813 21.8358C9.09329 22.0077 8.50685 22.0983 7.91647 22.1049C7.59514 22.1012 7.27445 22.0775 6.95623 22.034C6.83824 22.0178 6.7419 22.1299 6.7832 22.2416C7.22086 23.4251 7.99405 24.4578 9.01067 25.2117C10.0976 26.0176 11.4086 26.4647 12.7615 26.4908C10.477 28.2883 7.65662 29.2693 4.7498 29.2774C4.45111 29.2784 4.15256 29.2687 3.85471 29.2484C3.68687 29.237 3.60967 29.4606 3.75435 29.5465C6.58657 31.2272 9.82373 32.1156 13.1256 32.1116C15.5635 32.1369 17.9819 31.6762 20.2397 30.7564C22.4975 29.8366 24.5494 28.4761 26.2755 26.7544C28.0017 25.0327 29.3674 22.9843 30.293 20.7289C31.2186 18.4734 31.6855 16.0562 31.6665 13.6183V12.8585C31.6665 12.8085 31.6901 12.7615 31.73 12.7314C32.804 11.9205 33.7484 10.9524 34.5319 9.86044Z" fill="currentColor"/>
</svg>
