<svg width="16" height="16" viewBox="0 0 16 16" fill="none" xmlns="http://www.w3.org/2000/svg">
<path fill-rule="evenodd" clip-rule="evenodd" d="M7.6599 2.74048C5.79276 1.6202 3.50925 1.43723 1.48755 2.24591C1.19309 2.36369 1 2.64889 1 2.96604L1 10.7386C1 11.2593 1.52584 11.6153 2.00925 11.4219C3.66481 10.7597 5.53477 10.9095 7.06376 11.8269L7.82061 12.281C7.87833 12.3157 7.94007 12.3308 8 12.3297C8.05993 12.3308 8.12168 12.3157 8.17939 12.281L8.93624 11.8269C10.4652 10.9095 12.3352 10.7597 13.9908 11.4219C14.4742 11.6153 15 11.2593 15 10.7386L15 2.96604C15 2.64889 14.8069 2.36369 14.5124 2.24591C12.4907 1.43723 10.2072 1.6202 8.3401 2.74048L8 2.94454L7.6599 2.74048ZM8.5 4.33327C8.5 4.05713 8.27614 3.83327 8 3.83327C7.72386 3.83327 7.5 4.05713 7.5 4.33327L7.5 10.6666C7.5 10.9427 7.72386 11.1666 8 11.1666C8.27614 11.1666 8.5 10.9427 8.5 10.6666L8.5 4.33327Z" fill="currentColor"/>
<path d="M1.81656 12.6948C3.1658 11.9077 4.8342 11.9077 6.18344 12.6948L6.90828 13.1176C7.5829 13.5111 8.4171 13.5111 9.09172 13.1176L9.81656 12.6948C11.1658 11.9077 12.8342 11.9077 14.1834 12.6948L14.2519 12.7347C14.4905 12.8739 14.571 13.18 14.4319 13.4185C14.2928 13.6571 13.9866 13.7376 13.7481 13.5985L13.6796 13.5585C12.6417 12.9531 11.3583 12.9531 10.3204 13.5585L9.59559 13.9814C8.60961 14.5565 7.39039 14.5565 6.40441 13.9814L5.67957 13.5585C4.64169 12.9531 3.35831 12.9531 2.32043 13.5585L2.25194 13.5985C2.01341 13.7376 1.70725 13.6571 1.56811 13.4185C1.42897 13.18 1.50954 12.8739 1.74807 12.7347L1.81656 12.6948Z" fill="currentColor"/>
</svg>
