<svg width="24" height="24" viewBox="0 0 24 24" fill="none" xmlns="http://www.w3.org/2000/svg">
<path d="M7.31673 3.76858C10.4043 3.4235 13.5957 3.4235 16.6832 3.76858C17.8424 3.89813 18.8601 4.52501 19.5038 5.4354L11.5 13.4392L9.03033 10.9695C8.73744 10.6766 8.26256 10.6766 7.96967 10.9695C7.67678 11.2624 7.67678 11.7373 7.96967 12.0302L10.9697 15.0302C11.2626 15.323 11.7374 15.323 12.0303 15.0302L20.1458 6.91472C20.1682 7.02429 20.1862 7.13554 20.1994 7.2483C20.5686 10.4052 20.5686 13.5944 20.1994 16.7513C19.9845 18.5883 18.5096 20.0269 16.6832 20.2311C13.5957 20.5761 10.4043 20.5761 7.31673 20.2311C5.49035 20.0269 4.01545 18.5883 3.8006 16.7513C3.43137 13.5944 3.43137 10.4052 3.8006 7.2483C4.01545 5.41134 5.49035 3.9727 7.31673 3.76858Z" fill="currentColor"/>
</svg>
