<svg width="25" height="24" viewBox="0 0 25 24" fill="none" xmlns="http://www.w3.org/2000/svg">
<g filter="url(#filter0_d_1511_32532)">
<path fill-rule="evenodd" clip-rule="evenodd" d="M11.0067 1.50804C11.1884 1.29895 11.4706 1.20705 11.7406 1.26904C15.3494 2.09755 17.1735 6.05217 16.7445 9.5903C16.5778 10.9657 16.1658 12.0439 15.5592 12.9018C15.5555 12.9071 15.5517 12.9123 15.548 12.9175C15.6858 12.8498 15.8129 12.7767 15.9319 12.6995C16.5238 12.3153 16.9583 11.8083 17.5239 11.1481C17.5923 11.0683 17.6626 10.9863 17.7353 10.902C17.8987 10.7125 18.1459 10.6169 18.3942 10.6473C18.6426 10.6776 18.8595 10.8299 18.9725 11.0531C19.47 12.0363 19.75 13.1479 19.75 14.3226C19.75 18.3267 16.5041 21.5726 12.5 21.5726C8.49594 21.5726 5.25 18.3267 5.25 14.3226C5.25 11.7856 6.55371 9.5535 8.52431 8.25906L8.59187 8.19098C8.62658 8.15601 8.66464 8.12454 8.70552 8.09703C9.57138 7.5144 10.1931 7.03786 10.6117 6.47743C11.0071 5.94801 11.25 5.3022 11.25 4.32264C11.25 3.59736 11.1161 2.90512 10.8723 2.26809C10.7733 2.00936 10.8249 1.71713 11.0067 1.50804ZM12.6712 3.25081C12.7231 3.60079 12.75 3.95872 12.75 4.32264C12.75 5.59106 12.4223 6.55995 11.8135 7.37505C11.2417 8.14054 10.4503 8.72847 9.60466 9.2999L9.53236 9.37275C9.49362 9.41179 9.45071 9.44644 9.40439 9.4761C7.80648 10.4991 6.75 12.2877 6.75 14.3226C6.75 17.4983 9.32436 20.0726 12.5 20.0726C15.6756 20.0726 18.25 17.4983 18.25 14.3226C18.25 13.8028 18.1812 13.2997 18.0523 12.8217C17.6721 13.2334 17.2524 13.6307 16.7485 13.9577C15.8253 14.5569 14.6699 14.899 13 14.899C12.6577 14.899 12.3589 14.6673 12.2736 14.3358C12.1884 14.0044 12.3383 13.6572 12.6381 13.4921C13.3169 13.1181 13.8923 12.661 14.3345 12.0357C14.7757 11.4118 15.1137 10.5787 15.2555 9.40975C15.5623 6.879 14.5149 4.38107 12.6712 3.25081Z" fill="currentColor"/>
</g>
<defs>
<filter id="filter0_d_1511_32532" x="4.25" y="1.25" width="16.5" height="22.3228" filterUnits="userSpaceOnUse" color-interpolation-filters="sRGB">
<feFlood flood-opacity="0" result="BackgroundImageFix"/>
<feColorMatrix in="SourceAlpha" type="matrix" values="0 0 0 0 0 0 0 0 0 0 0 0 0 0 0 0 0 0 127 0" result="hardAlpha"/>
<feOffset dy="1"/>
<feGaussianBlur stdDeviation="0.5"/>
<feComposite in2="hardAlpha" operator="out"/>
<feColorMatrix type="matrix" values="0 0 0 0 0 0 0 0 0 0 0 0 0 0 0 0 0 0 0.15 0"/>
<feBlend mode="normal" in2="BackgroundImageFix" result="effect1_dropShadow_1511_32532"/>
<feBlend mode="normal" in="SourceGraphic" in2="effect1_dropShadow_1511_32532" result="shape"/>
</filter>
</defs>
</svg>
