<svg width="25" height="24" viewBox="0 0 25 24" fill="none" xmlns="http://www.w3.org/2000/svg">
<path d="M12.5625 2.06508C12.2729 1.9381 11.9876 2.02693 11.8041 2.21382C11.6259 2.39536 11.5367 2.67243 11.5992 2.95179C11.6979 3.39273 11.75 3.85148 11.75 4.3227C11.75 5.39854 11.4789 6.15205 11.0123 6.7767C10.538 7.41168 9.85149 7.92863 8.98466 8.51192C8.97103 8.52109 8.95834 8.53158 8.94678 8.54324L8.84179 8.64903C6.98195 9.85058 5.75 11.9427 5.75 14.3227C5.75 18.0506 8.77208 21.0727 12.5 21.0727C16.2279 21.0727 19.25 18.0506 19.25 14.3227C19.25 13.2281 18.9893 12.1938 18.5264 11.2789C18.4887 11.2045 18.4164 11.1538 18.3336 11.1437C18.2508 11.1335 18.1684 11.1654 18.114 11.2286C18.0435 11.3103 17.9744 11.391 17.9064 11.4705C17.0281 12.4967 16.3193 13.3248 14.8662 13.6947C14.8044 13.7105 14.766 13.6988 14.7387 13.6817C14.7067 13.6617 14.6716 13.6217 14.6476 13.5579C14.5975 13.4247 14.619 13.255 14.7216 13.1437C15.4988 12.3011 16.0509 11.1573 16.2482 9.53017C16.6177 6.48227 15.2325 3.23568 12.5625 2.06508Z" fill="currentColor"/>
</svg>
