<svg width="21" height="20" viewBox="0 0 21 20" fill="none" xmlns="http://www.w3.org/2000/svg">
<path fill-rule="evenodd" clip-rule="evenodd" d="M12.3083 6.44743C11.1158 6.31416 9.88414 6.31416 8.69171 6.44743C7.79371 6.5478 7.06598 7.2546 6.95965 8.16373C6.81696 9.38375 6.81696 10.6163 6.95965 11.8363C7.06598 12.7454 7.79371 13.4522 8.69171 13.5526C9.88414 13.6858 11.1158 13.6858 12.3083 13.5526C13.2063 13.4522 13.934 12.7454 14.0403 11.8363C14.183 10.6163 14.183 9.38375 14.0403 8.16373C13.934 7.2546 13.2063 6.5478 12.3083 6.44743ZM8.85832 7.93815C9.94003 7.81726 11.06 7.81726 12.1417 7.93815C12.3577 7.9623 12.5266 8.13371 12.5505 8.33798C12.6796 9.44223 12.6796 10.5578 12.5505 11.662C12.5266 11.8663 12.3577 12.0377 12.1417 12.0619C11.06 12.1827 9.94003 12.1827 8.85832 12.0619C8.64227 12.0377 8.47339 11.8663 8.44949 11.662C8.32034 10.5578 8.32034 9.44223 8.44949 8.33798C8.47339 8.13371 8.64227 7.9623 8.85832 7.93815Z" fill="currentColor"/>
<path fill-rule="evenodd" clip-rule="evenodd" d="M14.25 1C14.25 0.585786 13.9142 0.25 13.5 0.25C13.0858 0.25 12.75 0.585786 12.75 1V3.52362C12.2517 3.48862 11.7512 3.4653 11.25 3.45366V2C11.25 1.58579 10.9142 1.25 10.5 1.25C10.0858 1.25 9.75 1.58579 9.75 2V3.45366C9.24877 3.4653 8.74827 3.48862 8.25 3.52362V1C8.25 0.585786 7.91421 0.25 7.5 0.25C7.08579 0.25 6.75 0.585786 6.75 1V3.67203C5.45006 3.9088 4.4125 4.93591 4.18791 6.25H1.5C1.08579 6.25 0.75 6.58579 0.75 7C0.75 7.41421 1.08579 7.75 1.5 7.75H4.0374C4.00089 8.24948 3.97655 8.74963 3.96439 9.25H2.5C2.08579 9.25 1.75 9.58579 1.75 10C1.75 10.4142 2.08579 10.75 2.5 10.75H3.96439C3.97655 11.2504 4.00089 11.7505 4.0374 12.25H1.5C1.08579 12.25 0.75 12.5858 0.75 13C0.75 13.4142 1.08579 13.75 1.5 13.75H4.18791C4.41251 15.0641 5.45006 16.0912 6.75 16.328V19C6.75 19.4142 7.08579 19.75 7.5 19.75C7.91421 19.75 8.25 19.4142 8.25 19V16.4764C8.74827 16.5114 9.24877 16.5347 9.75 16.5463V18C9.75 18.4142 10.0858 18.75 10.5 18.75C10.9142 18.75 11.25 18.4142 11.25 18V16.5463C11.7512 16.5347 12.2517 16.5114 12.75 16.4764V19C12.75 19.4142 13.0858 19.75 13.5 19.75C13.9142 19.75 14.25 19.4142 14.25 19V16.328C15.5499 16.0912 16.5875 15.0641 16.8121 13.75H19.5C19.9142 13.75 20.25 13.4142 20.25 13C20.25 12.5858 19.9142 12.25 19.5 12.25H16.9626C16.9991 11.7505 17.0235 11.2504 17.0356 10.75H18.5C18.9142 10.75 19.25 10.4142 19.25 10C19.25 9.58579 18.9142 9.25 18.5 9.25H17.0356C17.0235 8.74963 16.9991 8.24948 16.9626 7.75H19.5C19.9142 7.75 20.25 7.41421 20.25 7C20.25 6.58579 19.9142 6.25 19.5 6.25H16.8121C16.5875 4.93591 15.5499 3.90879 14.25 3.67203V1ZM7.13335 5.13094C9.35213 4.88296 11.6479 4.88296 13.8667 5.13094C14.6397 5.21734 15.2569 5.82785 15.3459 6.58883C15.611 8.85522 15.611 11.1448 15.3459 13.4112C15.2569 14.1721 14.6397 14.7827 13.8667 14.8691C11.6479 15.117 9.35213 15.117 7.13335 14.8691C6.36027 14.7827 5.74309 14.1721 5.65408 13.4112C5.38901 11.1448 5.38901 8.85522 5.65408 6.58883C5.74309 5.82785 6.36027 5.21734 7.13335 5.13094Z" fill="currentColor"/>
</svg>
