<svg width="16" height="16" viewBox="0 0 16 16" fill="none" xmlns="http://www.w3.org/2000/svg">
<path d="M12.6368 2.07035C12.8321 1.87509 12.8321 1.5585 12.6368 1.36324C12.4416 1.16798 12.125 1.16798 11.9297 1.36324L11.4583 1.83465C11.128 2.16494 11.1449 2.67818 11.4331 2.99973C13.3681 5.1589 13.2979 8.48036 11.2226 10.5556C10.1493 11.629 8.74255 12.166 7.3357 12.1665L7.33354 12.1665L7.3315 12.1665C6.01968 12.1661 4.70803 11.6993 3.66672 10.7661C3.34518 10.4779 2.83193 10.461 2.50164 10.7913L2.03024 11.2627C1.83497 11.458 1.83497 11.7746 2.03024 11.9698C2.2255 12.1651 2.54208 12.1651 2.73734 11.9698L3.10431 11.6029C4.18416 12.5299 5.49603 13.0448 6.83354 13.1474L6.83354 14.1665L5.66687 14.1665C5.39073 14.1665 5.16687 14.3904 5.16687 14.6665C5.16687 14.9427 5.39073 15.1665 5.66687 15.1665L9.0002 15.1665C9.27635 15.1665 9.5002 14.9427 9.5002 14.6665C9.5002 14.3904 9.27635 14.1665 9.0002 14.1665L7.83354 14.1665L7.83354 13.1474C9.32666 13.0329 10.7878 12.4047 11.9297 11.2627C14.3492 8.84328 14.4625 4.99137 12.2699 2.43731L12.6368 2.07035Z" fill="currentColor"/>
<path fill-rule="evenodd" clip-rule="evenodd" d="M3.0002 6.66654C3.0002 4.27331 4.9403 2.33321 7.33354 2.33321C9.72677 2.33321 11.6669 4.27331 11.6669 6.66654C11.6669 9.05978 9.72677 10.9999 7.33354 10.9999C4.9403 10.9999 3.0002 9.05978 3.0002 6.66654ZM8.66687 4.16654C7.65435 4.16654 6.83354 4.98736 6.83354 5.99988C6.83354 7.0124 7.65435 7.83321 8.66687 7.83321C9.67939 7.83321 10.5002 7.0124 10.5002 5.99988C10.5002 4.98736 9.67939 4.16654 8.66687 4.16654ZM4.16687 8.33321C4.16687 7.87297 4.53997 7.49988 5.0002 7.49988C5.46044 7.49988 5.83354 7.87297 5.83354 8.33321C5.83354 8.79345 5.46044 9.16654 5.0002 9.16654C4.53997 9.16654 4.16687 8.79345 4.16687 8.33321Z" fill="currentColor"/>
</svg>
