<svg width="19" height="19" viewBox="0 0 19 19" fill="none" xmlns="http://www.w3.org/2000/svg">
<path fill-rule="evenodd" clip-rule="evenodd" d="M3.1875 8.02235C3.1875 5.99698 4.96436 4.4375 7.05 4.4375C8.1251 4.4375 9.07113 4.9416 9.75 5.59387C10.4289 4.9416 11.3749 4.4375 12.45 4.4375C14.5356 4.4375 16.3125 5.99698 16.3125 8.02235C16.3125 9.40975 15.7208 10.6298 14.9011 11.6612C14.0828 12.6907 13.0125 13.5645 11.9876 14.2745C11.5962 14.5457 11.2001 14.7958 10.8377 14.9804C10.4974 15.1537 10.1061 15.3125 9.75 15.3125C9.39394 15.3125 9.00262 15.1537 8.6623 14.9804C8.29986 14.7958 7.90385 14.5457 7.5124 14.2745C6.48754 13.5645 5.41715 12.6907 4.59887 11.6612C3.77916 10.6298 3.1875 9.40975 3.1875 8.02235ZM7.05 5.5625C5.49056 5.5625 4.3125 6.70932 4.3125 8.02235C4.3125 9.07497 4.75934 10.055 5.47957 10.9612C6.20121 11.8691 7.17219 12.6702 8.15306 13.3497C8.52421 13.6068 8.87381 13.8256 9.17284 13.9779C9.49399 14.1415 9.68 14.1875 9.75 14.1875C9.82 14.1875 10.006 14.1415 10.3272 13.9779C10.6262 13.8256 10.9758 13.6068 11.3469 13.3497C12.3278 12.6702 13.2988 11.8691 14.0204 10.9612C14.7407 10.055 15.1875 9.07497 15.1875 8.02235C15.1875 6.70932 14.0094 5.5625 12.45 5.5625C11.5544 5.5625 10.7181 6.09757 10.1959 6.77669C10.0894 6.91517 9.92468 6.99632 9.75 6.99632C9.57532 6.99632 9.41055 6.91517 9.30408 6.77669C8.7819 6.09757 7.94561 5.5625 7.05 5.5625Z" fill="currentColor"/>
</svg>
