<svg width="24" height="25" viewBox="0 0 24 25" fill="none" xmlns="http://www.w3.org/2000/svg">
<path d="M13.82 3.50001C13.82 3.29956 13.7003 3.11849 13.5159 3.03997C13.3314 2.96145 13.1179 3.00066 12.9734 3.1396L11.1955 4.84917C8.54827 7.39458 6.31144 10.3348 4.56461 13.5651C4.52348 13.6378 4.5 13.7217 4.5 13.8112C4.5 14.0873 4.72386 14.3112 5 14.3112H9.31V21.5C9.31 21.698 9.42684 21.8774 9.60795 21.9574C9.78907 22.0374 10.0003 22.003 10.1467 21.8696L10.9422 21.145C13.7269 18.6083 16.0902 15.6446 17.9432 12.365L18.4353 11.4942C18.5228 11.3394 18.5215 11.1498 18.4318 10.9962C18.3422 10.8426 18.1778 10.7482 18 10.7482H13.82V3.50001Z" fill="currentColor"/>
</svg>
