<svg width="25" height="24" viewBox="0 0 25 24" fill="none" xmlns="http://www.w3.org/2000/svg">
<g filter="url(#filter0_d_1793_33601)">
<path fill-rule="evenodd" clip-rule="evenodd" d="M11.2024 5.25C11.0361 5.25 10.8827 5.33919 10.8004 5.48362L7.45444 11.3569C7.01091 12.1354 6.82478 13.0342 6.92265 13.9249L7.2758 17.1385C7.33863 17.7103 7.7875 18.1632 8.3587 18.2312L10.4757 18.483C11.8733 18.6493 13.2903 18.5051 14.6258 18.0609C15.2854 17.8416 15.8136 17.341 16.0681 16.6942L17.7722 12.3636C17.8139 12.2578 17.8427 12.1473 17.858 12.0345C17.9872 11.0824 17.1538 10.2792 16.2071 10.4437L12.7913 11.0369C11.7123 11.2243 10.7804 10.2722 10.991 9.19744L11.6564 5.80158C11.7124 5.51581 11.4936 5.25 11.2024 5.25ZM9.49708 4.74111C9.84617 4.12836 10.4972 3.75001 11.2024 3.75C12.4378 3.74999 13.3659 4.87768 13.1284 6.09001L12.463 9.48587C12.4601 9.50042 12.4616 9.50931 12.4637 9.51569C12.4661 9.52355 12.4712 9.53276 12.4795 9.5413C12.4879 9.54984 12.497 9.5551 12.5048 9.55774C12.5111 9.55988 12.52 9.5616 12.5346 9.55906L15.9504 8.96579C17.8966 8.62777 19.6101 10.2789 19.3444 12.2363C19.3129 12.4681 19.2537 12.6952 19.1681 12.9129L17.464 17.2435C17.0467 18.3039 16.1806 19.1246 15.0992 19.4843C13.5544 19.9981 11.9152 20.1648 10.2986 19.9725L8.18151 19.7207C6.9173 19.5703 5.92383 18.5679 5.78477 17.3024L5.43163 14.0887C5.29921 12.8837 5.55103 11.6677 6.15111 10.6143L9.49708 4.74111Z" fill="currentColor"/>
</g>
<defs>
<filter id="filter0_d_1793_33601" x="4.39722" y="3.75" width="15.9745" height="18.3" filterUnits="userSpaceOnUse" color-interpolation-filters="sRGB">
<feFlood flood-opacity="0" result="BackgroundImageFix"/>
<feColorMatrix in="SourceAlpha" type="matrix" values="0 0 0 0 0 0 0 0 0 0 0 0 0 0 0 0 0 0 127 0" result="hardAlpha"/>
<feOffset dy="1"/>
<feGaussianBlur stdDeviation="0.5"/>
<feComposite in2="hardAlpha" operator="out"/>
<feColorMatrix type="matrix" values="0 0 0 0 0 0 0 0 0 0 0 0 0 0 0 0 0 0 0.15 0"/>
<feBlend mode="normal" in2="BackgroundImageFix" result="effect1_dropShadow_1793_33601"/>
<feBlend mode="normal" in="SourceGraphic" in2="effect1_dropShadow_1793_33601" result="shape"/>
</filter>
</defs>
</svg>
