<svg width="24" height="24" viewBox="0 0 20 20" fill="none" xmlns="http://www.w3.org/2000/svg">
<path d="M17.8072 3.68678C18.1054 3.9324 18.3536 4.23701 18.534 4.58381C18.591 4.69354 18.5483 4.82641 18.4431 4.89151L12.1771 8.77044C10.8333 9.60236 9.13874 9.61981 7.77802 8.81575L1.4702 5.0884C1.36829 5.02818 1.32151 4.90422 1.36744 4.79512C1.55004 4.36134 1.83463 3.98308 2.19065 3.68904L2.19031 3.68606L2.20257 3.67924C2.46602 3.46401 2.76805 3.29465 3.09645 3.18264L7.20633 0.899377C8.94296 -0.0654168 11.0546 -0.0654178 12.7912 0.899376L16.8963 3.17996C17.2304 3.29285 17.5374 3.46506 17.8045 3.68454L17.8072 3.68678Z" fill="currentColor"/>
<path d="M0.989156 6.95421C1.00734 6.77397 1.20634 6.67479 1.3623 6.76695L7.01493 10.1071C8.8559 11.195 11.1485 11.1714 12.9667 10.0458L18.6112 6.55158C18.7665 6.45548 18.9688 6.55283 18.9885 6.73435C19.2685 9.32181 19.2148 11.9363 18.8272 14.5134C18.6287 15.8335 17.5513 16.8456 16.2214 16.9612L14.7111 17.0924C11.5765 17.3649 8.42413 17.3649 5.28949 17.0924L3.77926 16.9612C2.44931 16.8456 1.3719 15.8335 1.17339 14.5134C0.796831 12.0093 0.735421 9.46984 0.989156 6.95421Z" fill="currentColor"/>
</svg>
