<svg width="24" height="24" viewBox="0 0 24 24" fill="none" xmlns="http://www.w3.org/2000/svg">
    <path fill-rule="evenodd" clip-rule="evenodd"
          d="M9.75423 7.84674C11.7879 4.4573 15.63 2.58707 19.5522 3.07734C20.2687 3.16691 20.8331 3.73129 20.9227 4.44782C21.4129 8.37003 19.5427 12.2121 16.1532 14.2458L15.1541 14.8453V17.022C15.1541 17.7642 14.8167 18.4662 14.2371 18.9299L12.0994 20.64C11.0329 21.4932 9.45297 20.7339 9.45297 19.3681V18.1318C8.64549 18.3226 7.77436 18.0925 7.16332 17.4814L6.51858 16.8367C5.90754 16.2256 5.67747 15.3546 5.8682 14.547H4.63195C3.26612 14.547 2.50677 12.9671 3.36 11.9006L5.07014 9.7629C5.53382 9.1833 6.23582 8.84589 6.97807 8.84589H9.15473L9.75423 7.84674ZM8.17739 10.4748H6.97807C6.73066 10.4748 6.49666 10.5873 6.3421 10.7805L4.63195 12.9181H6.71139L8.17739 10.4748ZM11.0818 17.2886L13.5252 15.8226V17.022C13.5252 17.2693 13.4127 17.5033 13.2195 17.6579L11.0818 19.3681V17.2886ZM17.3589 6.64109C17.677 6.95916 17.677 7.47484 17.3589 7.7929L16.5444 8.60735C16.2264 8.92541 15.7108 8.92541 15.3926 8.60735C15.0746 8.28928 15.0746 7.77361 15.3926 7.45554L16.2071 6.64109C16.5252 6.32304 17.0408 6.32304 17.3589 6.64109ZM5.95664 18.0434C6.27469 18.3614 6.27469 18.8771 5.95664 19.1952L5.14219 20.0096C4.82413 20.3277 4.30845 20.3277 3.99039 20.0096C3.67232 19.6916 3.67232 19.1759 3.99039 18.8578L4.80484 18.0434C5.12289 17.7253 5.63858 17.7253 5.95664 18.0434Z"
          fill="currentColor"/>
    <defs>
        <linearGradient id="paint0_linear_2303_11422" x1="12" y1="21" x2="12" y2="12" gradientUnits="userSpaceOnUse">
            <stop stop-color="#7E1AFF"/>
            <stop offset="1" stop-color="#9F24FF"/>
        </linearGradient>
    </defs>
</svg>
