<svg width="26" height="29" viewBox="0 0 26 29" fill="none" xmlns="http://www.w3.org/2000/svg">
<path fill-rule="evenodd" clip-rule="evenodd" d="M1.3335 21.0831C2.02385 21.0831 2.5835 21.6427 2.5835 22.3331V25.6664C2.5835 25.8965 2.77004 26.0831 3.00016 26.0831H23.0002C23.2303 26.0831 23.4168 25.8966 23.4168 25.6664V22.3331C23.4168 21.6427 23.9765 21.0831 24.6668 21.0831C25.3572 21.0831 25.9168 21.6427 25.9168 22.3331V25.6664C25.9168 27.2773 24.611 28.5831 23.0002 28.5831H3.00016C1.38933 28.5831 0.0834961 27.2773 0.0834961 25.6664V22.3331C0.0834961 21.6427 0.64314 21.0831 1.3335 21.0831Z" fill="currentColor"/>
<path fill-rule="evenodd" clip-rule="evenodd" d="M10.8966 20.8785C10.0393 20.8785 9.32413 20.2233 9.24926 19.3693C8.99319 16.4481 8.94802 13.5125 9.11398 10.5855C8.70235 10.5627 8.29087 10.5364 7.87959 10.5064L5.397 10.3254C4.43983 10.2556 3.90476 9.18836 4.42152 8.37965C6.1916 5.60951 8.47238 3.2013 11.1423 1.28339L12.1369 0.568923C12.6528 0.198379 13.3475 0.198381 13.8634 0.568923L14.858 1.28339C17.5279 3.2013 19.8087 5.60951 21.5788 8.37965C22.0955 9.18836 21.5605 10.2556 20.6033 10.3254L18.1207 10.5064C17.7094 10.5364 17.2979 10.5627 16.8863 10.5855C17.0523 13.5126 17.0071 16.4481 16.751 19.3693C16.6762 20.2233 15.961 20.8785 15.1037 20.8785H10.8966Z" fill="currentColor"/>
</svg>
