<svg width="22" height="22" viewBox="0 0 22 22" fill="none" xmlns="http://www.w3.org/2000/svg">
<g filter="url(#filter0_d_2822_40473)">
<path fill-rule="evenodd" clip-rule="evenodd" d="M19.1477 3.25H5.33514L4.15497 1.1346C4.0225 0.897154 3.7719 0.75 3.5 0.75H2C1.58579 0.75 1.25 1.08579 1.25 1.5C1.25 1.91421 1.58579 2.25 2 2.25H3.0596L4.22429 4.33765L6.91037 10.2809L6.91312 10.2869L7.14971 10.8104L4.45287 13.687C4.25895 13.8939 4.19825 14.1924 4.29599 14.4585C4.39372 14.7247 4.63317 14.913 4.91486 14.9452L7.37299 15.2261C10.4477 15.5775 13.5524 15.5775 16.627 15.2261L19.0852 14.9452C19.4967 14.8981 19.7922 14.5264 19.7452 14.1148C19.6981 13.7033 19.3264 13.4078 18.9149 13.4549L16.4567 13.7358C13.4952 14.0742 10.5048 14.0742 7.54331 13.7358L6.56779 13.6243L8.54717 11.513C8.56632 11.4925 8.5841 11.4713 8.60052 11.4494L9.35334 11.5474C10.4083 11.6847 11.4746 11.7116 12.5351 11.6277C15.0086 11.4321 17.301 10.2551 18.9015 8.35907L19.4795 7.67425C19.499 7.65125 19.517 7.62711 19.5335 7.60194L20.6109 5.96009C21.3745 4.79633 20.5397 3.25 19.1477 3.25ZM8.65627 9.94405C8.49086 9.92253 8.34823 9.81745 8.27858 9.66604L8.27725 9.66311L6.05674 4.75H19.1477C19.3466 4.75 19.4658 4.9709 19.3567 5.13716L18.3042 6.74123L17.7552 7.39152C16.4132 8.98139 14.4909 9.96832 12.4169 10.1324C11.4603 10.208 10.4984 10.1837 9.54688 10.0599L8.65627 9.94405Z" fill="currentColor"/>
<path d="M6.5 16.5C5.67157 16.5 5 17.1716 5 18C5 18.8284 5.67157 19.5 6.5 19.5C7.32843 19.5 8 18.8284 8 18C8 17.1716 7.32843 16.5 6.5 16.5Z" fill="currentColor"/>
<path d="M16 18C16 17.1716 16.6716 16.5 17.5 16.5C18.3284 16.5 19 17.1716 19 18C19 18.8284 18.3284 19.5 17.5 19.5C16.6716 19.5 16 18.8284 16 18Z" fill="currentColor"/>
</g>
<defs>
<filter id="filter0_d_2822_40473" x="0.25" y="0.75" width="21.6509" height="20.75" filterUnits="userSpaceOnUse" color-interpolation-filters="sRGB">
<feFlood flood-opacity="0" result="BackgroundImageFix"/>
<feColorMatrix in="SourceAlpha" type="matrix" values="0 0 0 0 0 0 0 0 0 0 0 0 0 0 0 0 0 0 127 0" result="hardAlpha"/>
<feOffset dy="1"/>
<feGaussianBlur stdDeviation="0.5"/>
<feComposite in2="hardAlpha" operator="out"/>
<feColorMatrix type="matrix" values="0 0 0 0 0 0 0 0 0 0 0 0 0 0 0 0 0 0 0.15 0"/>
<feBlend mode="normal" in2="BackgroundImageFix" result="effect1_dropShadow_2822_40473"/>
<feBlend mode="normal" in="SourceGraphic" in2="effect1_dropShadow_2822_40473" result="shape"/>
</filter>
</defs>
</svg>
