<svg width="32" height="28" viewBox="0 0 32 28" fill="none" xmlns="http://www.w3.org/2000/svg">
<path d="M7.06066 3.06066C7.64645 2.47487 7.64645 1.52513 7.06066 0.93934C6.47487 0.353553 5.52513 0.353553 4.93934 0.93934L0.93934 4.93934C0.353553 5.52513 0.353553 6.47487 0.93934 7.06066L4.93934 11.0607C5.52513 11.6464 6.47487 11.6464 7.06066 11.0607C7.64645 10.4749 7.64645 9.52513 7.06066 8.93934L5.62132 7.5H26C26.8284 7.5 27.5 6.82843 27.5 6C27.5 5.17157 26.8284 4.5 26 4.5H5.62132L7.06066 3.06066Z" fill="currentColor"/>
<path d="M24.9393 16.9393C24.3536 17.5251 24.3536 18.4749 24.9393 19.0607L26.3787 20.5H6C5.17157 20.5 4.5 21.1716 4.5 22C4.5 22.8284 5.17157 23.5 6 23.5H26.3787L24.9393 24.9393C24.3536 25.5251 24.3536 26.4749 24.9393 27.0607C25.5251 27.6464 26.4749 27.6464 27.0607 27.0607L31.0607 23.0607C31.6464 22.4749 31.6464 21.5251 31.0607 20.9393L27.0607 16.9393C26.4749 16.3536 25.5251 16.3536 24.9393 16.9393Z" fill="currentColor"/>
</svg>
