<svg width="24" height="25" viewBox="0 0 24 25" fill="none" xmlns="http://www.w3.org/2000/svg">
<path fill-rule="evenodd" clip-rule="evenodd" d="M18.4833 20.735L18.484 20.7333L18.5014 20.6898L21.5002 5.57075V5.52164C21.5002 5.14494 21.361 4.81608 21.0581 4.61882C20.793 4.44616 20.4882 4.43386 20.2745 4.45008C20.0485 4.46724 19.8354 4.52365 19.6879 4.57061C19.612 4.59477 19.5484 4.61805 19.503 4.63566C19.4802 4.64449 19.4617 4.65199 19.4483 4.65758L19.4351 4.66314L2.71526 11.2221L2.71066 11.2237C2.70163 11.227 2.68969 11.2315 2.67526 11.2371C2.64651 11.2483 2.60737 11.2643 2.56139 11.2851C2.47111 11.326 2.34637 11.3892 2.21987 11.4758C2.00502 11.6229 1.5959 11.9713 1.66499 12.5235C1.72221 12.9809 2.03751 13.2714 2.25008 13.4218C2.36403 13.5024 2.47304 13.5606 2.55287 13.5986C2.59332 13.6178 2.62767 13.6326 2.65326 13.643C2.66609 13.6482 2.67682 13.6524 2.68512 13.6556L2.69574 13.6595L2.70253 13.662L5.62777 14.6468C5.6179 14.8304 5.6361 15.0175 5.68478 15.2021L7.15006 20.7606C7.3238 21.4196 7.92002 21.8787 8.60159 21.8782C9.21252 21.8778 9.75435 21.5082 9.98454 20.9567L12.2722 18.5107L16.2012 21.5229L16.2571 21.5473C16.614 21.7031 16.9475 21.7524 17.2525 21.7107C17.557 21.6691 17.7989 21.5415 17.9807 21.396C18.1595 21.2529 18.2821 21.0914 18.3592 20.9699C18.3984 20.9081 18.4276 20.8538 18.4478 20.8129C18.458 20.7924 18.466 20.775 18.472 20.7615L18.4796 20.7441L18.4822 20.7377L18.4833 20.735ZM7.13518 14.8198C7.10187 14.6934 7.15416 14.5601 7.26444 14.4901L17.1865 8.18914C17.1865 8.18914 17.77 7.83485 17.7492 8.18914C17.7492 8.18914 17.8533 8.25171 17.5406 8.54344C17.244 8.82051 10.4689 15.3616 9.7834 16.0235C9.74383 16.0617 9.72021 16.1055 9.70627 16.1587L8.60046 20.3782L7.13518 14.8198Z" fill="currentColor"/>
</svg>
