<svg width="19" height="19" viewBox="0 0 19 19" fill="none" xmlns="http://www.w3.org/2000/svg">
<path fill-rule="evenodd" clip-rule="evenodd" d="M9.20867 2.97652C9.39129 2.92455 9.5839 2.9245 9.7665 2.97632C10.1546 3.08647 10.5464 3.18864 10.9394 3.29115C12.785 3.7725 14.6594 4.26137 16.3271 5.61963L17.095 6.24512C17.4065 6.49884 17.5624 6.87439 17.5625 7.25V12.5C17.5625 12.8107 17.3107 13.0625 17 13.0625C16.6893 13.0625 16.4375 12.8107 16.4375 12.5V8.79251L16.3153 8.89222C15.7375 9.36376 15.1346 9.72991 14.5166 10.0271C14.5461 10.0955 14.5625 10.1708 14.5625 10.25V13.4704C14.5625 14.3204 14.0411 15.0833 13.2492 15.3921L10.2492 16.5617C9.76738 16.7495 9.23262 16.7495 8.75083 16.5617L5.75083 15.3921C4.95892 15.0833 4.4375 14.3204 4.4375 13.4704V10.25C4.4375 10.1688 4.45469 10.0917 4.48564 10.022C3.86287 9.723 3.25529 9.35469 2.67293 8.88037L1.90498 8.25488C1.28198 7.74745 1.28166 6.7527 1.90411 6.24476L2.68469 5.60778C4.34027 4.25678 6.20144 3.77083 8.0334 3.29251C8.42728 3.18967 8.81982 3.08718 9.20867 2.97652ZM16.4375 7.25045C16.4375 7.18288 16.4102 7.13826 16.3846 7.1174L15.6166 6.49191C14 5.375 12.5595 4.88239 10.7299 4.40162C10.3276 4.2959 9.91393 4.18719 9.48797 4.06669C9.06012 4.18807 8.64492 4.2973 8.24128 4.40349C6.42635 4.88096 4.84492 5.29701 3.39596 6.4794L2.61538 7.11638C2.58973 7.1373 2.56247 7.18198 2.5625 7.24955C2.56253 7.31712 2.58982 7.36173 2.61544 7.3826L3.38339 8.00809C4.84463 9.19825 6.44049 9.61761 8.27008 10.0984C8.6724 10.2041 9.08605 10.3128 9.51202 10.4333C9.93985 10.3119 10.355 10.2027 10.7586 10.0965C12.5736 9.61906 14.1551 9.20299 15.604 8.0206L16.3846 7.38362C16.4102 7.36272 16.4375 7.3179 16.4375 7.25045ZM10.9666 11.2075C11.7915 10.9921 12.6222 10.7752 13.4375 10.4785V13.4704C13.4375 13.8568 13.2005 14.2036 12.8405 14.3439L9.84053 15.5135C9.62154 15.5989 9.37846 15.5989 9.15947 15.5135L6.15947 14.3439C5.79951 14.2036 5.5625 13.8568 5.5625 13.4704V10.4721C6.38658 10.7723 7.22652 10.9913 8.06058 11.2089C8.45362 11.3114 8.84535 11.4135 9.2335 11.5237C9.4161 11.5755 9.60872 11.5754 9.79133 11.5235C10.1802 11.4128 10.5727 11.3103 10.9666 11.2075Z" fill="currentColor"/>
</svg>
